<svg width="626" height="164" viewBox="0 0 626 164" fill="none" xmlns="http://www.w3.org/2000/svg">
<path d="M8.4 129.9C7.6 103.9 7.2 84.3 7.2 71.1C7.2 57.9 8.05 43.8 9.75 28.8L37.95 31.05C41.45 43.65 45.15 61.3 49.05 84C54.65 65.7 59.6 45.9 63.9 24.6L92.25 27.15C93.05 58.05 93.45 80.65 93.45 94.95C93.45 109.15 93 121.8 92.1 132.9L71.55 130.95C72.85 118.35 73.95 91.65 74.85 50.85L73.65 50.7C72.65 54.6 71.05 61.3 68.85 70.8C64.25 90.5 59.8 107.3 55.5 121.2L41.85 120C39.45 110.4 36.65 98 33.45 82.8C30.35 67.5 27.95 56.25 26.25 49.05L25.05 48.9C25.95 82.3 27 109.9 28.2 131.7L8.4 129.9ZM118.709 102C118.709 113.3 121.209 118.95 126.209 118.95C128.409 118.95 130.259 115.8 131.759 109.5C133.259 103.1 134.009 97 134.009 91.2C134.009 78.4 131.909 72 127.709 72C125.009 72 122.809 75.45 121.109 82.35C119.509 89.15 118.709 95.7 118.709 102ZM101.159 100.65C101.159 91.35 103.059 82.25 106.859 73.35C108.859 68.85 111.659 65.2 115.259 62.4C118.959 59.5 123.059 58.05 127.559 58.05C132.059 58.05 135.909 59.1 139.109 61.2C142.409 63.2 144.909 65.9 146.609 69.3C149.909 76 151.559 83.3 151.559 91.2C151.559 102.1 149.309 111.8 144.809 120.3C140.409 128.7 134.209 132.9 126.209 132.9C109.509 132.9 101.159 122.15 101.159 100.65ZM187.583 90.6C187.783 89.2 187.883 87.4 187.883 85.2C187.883 83 187.433 80.75 186.533 78.45C185.633 76.15 184.483 75 183.083 75C180.283 75 178.233 78.25 176.933 84.75C175.733 91.15 175.133 97.05 175.133 102.45C175.133 111.55 176.983 116.1 180.683 116.1C183.683 116.1 187.933 110.85 193.433 100.35L204.533 108.3C201.833 115.6 198.433 121.4 194.333 125.7C190.333 130 185.483 132.15 179.783 132.15C174.083 132.15 168.933 129.9 164.333 125.4C159.833 120.9 157.583 114.05 157.583 104.85C157.583 95.05 159.183 85.3 162.383 75.6C164.183 70.3 166.833 65.95 170.333 62.55C173.933 59.15 178.483 57.45 183.983 57.45C189.483 57.45 194.033 60.25 197.633 65.85C201.333 71.45 203.183 77.65 203.183 84.45C203.183 87.35 202.733 89.85 201.833 91.95L187.583 90.6ZM215.261 130.2C214.861 119.8 214.661 104.4 214.661 84C214.661 63.6 215.411 42.05 216.911 19.35L234.461 20.7C232.961 45.2 232.211 68.8 232.211 91.5C242.611 78.8 250.411 66.45 255.611 54.45L267.611 64.95C263.111 75.45 257.111 85.85 249.611 96.15C257.411 105.25 263.611 113.75 268.211 121.65L256.811 132.45C251.411 124.05 243.211 114.1 232.211 102.6C232.211 113.7 232.411 123.45 232.811 131.85L215.261 130.2Z" fill="#E7E7E7"/>
<path d="M320.284 127.5L316.834 106.65L294.484 107.55L288.784 135.75L267.784 133.95L294.634 25.2L322.384 27.6L342.034 129.3L320.284 127.5ZM307.084 44.85L297.634 91.5L314.434 90.9L307.084 44.85ZM355.028 131.55C354.628 120.25 354.428 106.7 354.428 90.9C354.428 75 354.928 53.8 355.928 27.3C364.328 24.2 372.928 22.65 381.728 22.65C390.628 22.65 398.528 25.95 405.428 32.55C412.428 39.05 415.928 47.3 415.928 57.3C415.928 67.2 412.128 75.8 404.528 83.1C397.028 90.3 387.178 95.6 374.978 99C374.978 110.2 375.128 121.7 375.428 133.5L355.028 131.55ZM389.828 72.45C393.528 68.15 395.378 63.35 395.378 58.05C395.378 52.75 393.978 48.45 391.178 45.15C388.478 41.85 385.428 40.2 382.028 40.2C381.128 40.2 379.078 40.45 375.878 40.95C375.378 55.05 375.078 68.7 374.978 81.9C381.278 79.9 386.228 76.75 389.828 72.45ZM449.354 25.2C448.454 41 448.004 58.8 448.004 78.6C448.004 98.4 448.654 116.45 449.954 132.75L429.704 130.95C428.404 110.55 427.754 92.15 427.754 75.75C427.754 59.25 428.204 41.8 429.104 23.4L449.354 25.2Z" fill="#10CD94"/>
<path d="M623.303 66.4237C626.538 63.1965 626.538 57.9556 623.303 54.7284L581.906 13.4204C578.672 10.1932 573.419 10.1932 570.185 13.4204C566.951 16.6476 566.951 21.8885 570.185 25.1157L597.482 52.3274H518.102C513.522 52.3274 509.822 56.0193 509.822 60.589C509.822 65.1587 513.522 68.8506 518.102 68.8506H597.456L570.211 96.0622C566.977 99.2894 566.977 104.53 570.211 107.758C573.445 110.985 578.698 110.985 581.932 107.758L623.329 66.4496L623.303 66.4237Z" fill="#10CD94"/>
<path d="M470.401 96.5763C467.2 99.8035 467.2 105.044 470.401 108.272L511.371 149.58C514.572 152.807 519.771 152.807 522.971 149.58C526.172 146.352 526.172 141.111 522.971 137.884L495.956 110.673H574.518C579.05 110.673 582.712 106.981 582.712 102.411C582.712 97.8413 579.05 94.1494 574.518 94.1494H495.982L522.946 66.9378C526.147 63.7106 526.147 58.4696 522.946 55.2424C519.745 52.0152 514.547 52.0152 511.346 55.2424L470.375 96.5504L470.401 96.5763Z" fill="#10CD94"/>
</svg>
