<svg width="500" height="398" viewBox="0 0 500 398" fill="none" xmlns="http://www.w3.org/2000/svg">
<g clip-path="url(#clip0_90_308)">
<path d="M500 352.4H0V352.65H500V352.4Z" fill="#EBEBEB"/>
<path d="M111.66 360.79H78.54V361.04H111.66V360.79Z" fill="#EBEBEB"/>
<path d="M163.5 368H133.33V368.25H163.5V368Z" fill="#EBEBEB"/>
<path d="M95.1001 370.07H56.8501V370.32H95.1001V370.07Z" fill="#EBEBEB"/>
<path d="M449.9 369.53H434V369.78H449.9V369.53Z" fill="#EBEBEB"/>
<path d="M430.79 369.53H391.47V369.78H430.79V369.53Z" fill="#EBEBEB"/>
<path d="M280.33 360.66H250V360.91H280.33V360.66Z" fill="#EBEBEB"/>
<path d="M356.77 360.66H284.67V360.91H356.77V360.66Z" fill="#EBEBEB"/>
<path d="M237 307.8H43.91C42.3973 307.797 40.9475 307.195 39.8788 306.124C38.8102 305.054 38.21 303.603 38.21 302.09V30.66C38.2231 29.156 38.8292 27.718 39.8964 26.6582C40.9637 25.5985 42.4059 25.0026 43.91 25H237C238.514 25 239.967 25.6016 241.038 26.6724C242.108 27.7433 242.71 29.1956 242.71 30.71V302.09C242.71 303.604 242.108 305.057 241.038 306.128C239.967 307.198 238.514 307.8 237 307.8ZM43.91 25.2C42.4636 25.2026 41.0774 25.7791 40.0556 26.8027C39.0338 27.8264 38.46 29.2136 38.46 30.66V302.09C38.46 303.536 39.0338 304.924 40.0556 305.947C41.0774 306.971 42.4636 307.547 43.91 307.55H237C238.447 307.547 239.834 306.971 240.858 305.948C241.881 304.924 242.457 303.537 242.46 302.09V30.66C242.457 29.2127 241.881 27.8255 240.858 26.8021C239.834 25.7787 238.447 25.2026 237 25.2H43.91Z" fill="#EBEBEB"/>
<path d="M453.31 307.8H260.21C258.696 307.797 257.246 307.195 256.175 306.125C255.105 305.054 254.503 303.604 254.5 302.09V30.66C254.516 29.1551 255.124 27.7171 256.193 26.6576C257.262 25.5981 258.705 25.0025 260.21 25H453.31C454.812 25.0052 456.252 25.6022 457.317 26.6617C458.382 27.7212 458.987 29.1578 459 30.66V302.09C459 303.601 458.401 305.05 457.335 306.121C456.268 307.191 454.821 307.795 453.31 307.8ZM260.21 25.2C258.763 25.2026 257.375 25.7787 256.352 26.8021C255.329 27.8255 254.753 29.2127 254.75 30.66V302.09C254.753 303.537 255.329 304.924 256.352 305.948C257.375 306.971 258.763 307.547 260.21 307.55H453.31C454.757 307.547 456.145 306.971 457.168 305.948C458.191 304.924 458.767 303.537 458.77 302.09V30.66C458.767 29.2127 458.191 27.8255 457.168 26.8021C456.145 25.7787 454.757 25.2026 453.31 25.2H260.21Z" fill="#EBEBEB"/>
<path d="M429.278 206.109L413.955 190.786L272.767 331.974L288.09 347.297L429.278 206.109Z" fill="#EBEBEB"/>
<path d="M361.93 273.45L346.61 258.12L325.72 279.01L339.77 301.42L361.93 273.45Z" fill="#E0E0E0"/>
<path d="M288.087 347.297L293.192 352.402L434.38 211.214L429.275 206.109L288.087 347.297Z" fill="#E0E0E0"/>
<path d="M288.093 195.885L272.77 211.208L413.958 352.396L429.281 337.073L288.093 195.885Z" fill="#EBEBEB"/>
<path d="M429.28 337.076L434.385 331.97L293.197 190.782L288.092 195.888L429.28 337.076Z" fill="#E0E0E0"/>
<path d="M176.202 238.549L164.273 226.62L54.3886 336.504L66.3175 348.433L176.202 238.549Z" fill="#EBEBEB"/>
<path d="M123.78 290.95L111.85 279.03L95.6001 295.29L106.53 312.72L123.78 290.95Z" fill="#E0E0E0"/>
<path d="M66.3093 348.429L70.2832 352.403L180.168 242.519L176.194 238.545L66.3093 348.429Z" fill="#E0E0E0"/>
<path d="M66.3229 230.592L54.394 242.521L164.278 352.406L176.207 340.477L66.3229 230.592Z" fill="#EBEBEB"/>
<path d="M176.188 340.47L180.162 336.496L70.2777 226.611L66.3038 230.585L176.188 340.47Z" fill="#E0E0E0"/>
<path d="M318.87 245.11H301.26V352.39H318.87V245.11Z" fill="#F5F5F5"/>
<path d="M318.87 289.69H301.26V302.56L318.87 298.76V289.69Z" fill="#EBEBEB"/>
<path d="M318.86 352.4H324.73V245.12H318.86V352.4Z" fill="#EBEBEB"/>
<path d="M134.4 245.11H116.79V352.39H134.4V245.11Z" fill="#F5F5F5"/>
<path d="M134.39 289.69H116.79V302.56L134.39 298.76V289.69Z" fill="#EBEBEB"/>
<path d="M134.39 352.4H140.26V245.12H134.39V352.4Z" fill="#EBEBEB"/>
<path d="M328.11 260.84H103.36V293.86H328.11V260.84Z" fill="#F5F5F5"/>
<path d="M328.11 293.85H331.41V260.83H328.11V293.85Z" fill="#EBEBEB"/>
<path d="M242.73 227.17H198.79L167.72 258.24V302.18L198.79 333.25H242.73L273.8 302.18V258.24L242.73 227.17Z" fill="#FAFAFA"/>
<path d="M240.72 232.02H200.8L172.57 260.25V300.17L200.8 328.4H240.72L268.95 300.17V260.25L240.72 232.02Z" fill="#E0E0E0"/>
<path d="M182.19 284.82L187.81 284.32C187.856 285.359 188.108 286.379 188.55 287.32C188.781 287.816 189.15 288.235 189.613 288.528C190.076 288.82 190.613 288.974 191.16 288.97C191.536 289 191.914 288.94 192.262 288.793C192.61 288.647 192.918 288.42 193.16 288.13C193.625 287.569 193.87 286.858 193.85 286.13C193.855 285.44 193.622 284.769 193.19 284.23C192.347 283.447 191.312 282.902 190.19 282.65C188.062 282.111 186.137 280.964 184.65 279.35C183.487 277.85 182.895 275.986 182.98 274.09C182.966 272.71 183.257 271.345 183.83 270.09C184.375 268.879 185.27 267.858 186.4 267.16C187.836 266.371 189.464 266.001 191.1 266.09C192.114 266.02 193.132 266.156 194.093 266.49C195.053 266.823 195.937 267.347 196.69 268.03C197.97 269.32 198.69 271.38 198.98 274.2L193.41 274.67C193.357 273.707 193.035 272.778 192.48 271.99C192.231 271.709 191.922 271.488 191.576 271.344C191.229 271.2 190.854 271.137 190.48 271.16C190.192 271.141 189.903 271.186 189.634 271.294C189.366 271.401 189.125 271.567 188.93 271.78C188.579 272.204 188.395 272.74 188.41 273.29C188.405 273.72 188.558 274.136 188.84 274.46C189.401 274.972 190.093 275.318 190.84 275.46C192.803 275.969 194.675 276.779 196.39 277.86C197.464 278.616 198.309 279.654 198.83 280.86C199.35 282.129 199.608 283.489 199.59 284.86C199.614 286.521 199.272 288.166 198.59 289.68C197.994 291.058 197.002 292.227 195.74 293.04C194.345 293.847 192.75 294.243 191.14 294.18C187.893 294.18 185.643 293.287 184.39 291.5C183.047 289.522 182.285 287.208 182.19 284.82Z" fill="white"/>
<path d="M201.17 266.6H219.17V273.33H213.17V293.82H207.26V273.33H201.26L201.17 266.6Z" fill="white"/>
<path d="M220.14 280.23C220.14 275.79 221.01 272.33 222.75 269.85C223.592 268.705 224.69 267.773 225.957 267.128C227.224 266.484 228.624 266.146 230.045 266.14C231.466 266.134 232.869 266.461 234.141 267.095C235.413 267.729 236.519 268.652 237.37 269.79C239.123 272.223 240 275.627 240 280C240.083 282.656 239.701 285.306 238.87 287.83C238.247 289.686 237.118 291.331 235.61 292.58C234.091 293.745 232.214 294.346 230.3 294.28C228.408 294.356 226.538 293.842 224.95 292.81C223.378 291.629 222.183 290.017 221.51 288.17C220.541 285.638 220.076 282.941 220.14 280.23ZM226.05 280.23C226.05 282.983 226.41 284.957 227.13 286.15C227.41 286.687 227.831 287.136 228.349 287.45C228.866 287.764 229.46 287.93 230.065 287.93C230.67 287.93 231.264 287.764 231.781 287.45C232.299 287.136 232.72 286.687 233 286.15C233.7 284.97 234 282.86 234 279.82C234.133 277.885 233.761 275.948 232.92 274.2C232.63 273.658 232.197 273.207 231.668 272.894C231.139 272.582 230.534 272.422 229.92 272.43C229.323 272.437 228.738 272.609 228.232 272.926C227.726 273.244 227.317 273.695 227.05 274.23C226.383 275.483 226.05 277.497 226.05 280.27V280.23Z" fill="white"/>
<path d="M243.11 266.6H252.93C253.849 266.539 254.769 266.706 255.608 267.086C256.448 267.467 257.18 268.048 257.74 268.78C258.911 270.62 259.467 272.784 259.33 274.96C259.465 277.239 258.854 279.499 257.59 281.4C256.961 282.19 256.148 282.814 255.223 283.219C254.297 283.623 253.287 283.795 252.28 283.72H249V293.82H243.07L243.11 266.6ZM249 278.21H250.45C250.888 278.258 251.331 278.207 251.747 278.059C252.163 277.912 252.539 277.673 252.85 277.36C253.329 276.745 253.573 275.979 253.54 275.2C253.588 274.429 253.4 273.661 253 273C252.73 272.674 252.382 272.422 251.989 272.266C251.596 272.11 251.169 272.057 250.75 272.11H249V278.21Z" fill="white"/>
<path d="M411.35 72.7501C410.306 72.7547 409.266 72.8789 408.25 73.1201C406.93 70.1201 404 68.2501 400.05 68.2501C397.026 68.3241 394.089 69.2799 391.6 71.0001C389.92 65.3601 384.89 61.5901 377.87 61.5901C367.87 61.5901 357.42 69.2301 353.64 78.9901C352.716 78.7734 351.769 78.666 350.82 78.6701H349.88C341.27 79.2501 341.88 92.2501 350.55 92.2501H412C413.064 92.2537 414.113 92.0065 415.064 91.5288C416.014 91.051 416.838 90.356 417.47 89.5001C418.531 88.0603 419.339 86.4507 419.86 84.7401C421.76 78.1201 418 72.7501 411.35 72.7501Z" fill="#F0F0F0"/>
<path d="M171.36 15.1301C170.02 6.25006 162.94 0.0600586 152.59 0.0600586C144.11 0.0600586 135.37 4.21006 128.86 10.6001C126.961 8.95358 124.512 8.08246 122 8.16006C114.82 8.16006 107.29 13.9801 105.17 21.1601C104.855 22.2198 104.677 23.3153 104.64 24.4201L104.49 24.5201C98.5499 28.5201 101.49 37.9101 108.73 37.9101H172C173.207 37.9198 174.397 37.6276 175.463 37.06C176.528 36.4924 177.435 35.6674 178.1 34.6601C179.088 33.1516 179.853 31.5079 180.37 29.7801C182.58 22.1401 178.61 15.8501 171.36 15.1301Z" fill="#F0F0F0"/>
<path d="M246.88 114.3C245.04 102.09 235.31 93.5801 221.08 93.5801C209.41 93.5801 197.4 99.2901 188.46 108.07C185.857 105.8 182.492 104.6 179.04 104.71C169.18 104.71 158.81 112.71 155.9 122.58C155.467 124.036 155.222 125.542 155.17 127.06L154.97 127.19C146.78 132.76 150.84 145.6 160.74 145.6H244C247.376 145.624 250.67 144.562 253.396 142.57C256.123 140.579 258.136 137.764 259.14 134.54V134.42C262.32 123.93 256.85 115.28 246.88 114.3Z" fill="#F5F5F5"/>
<path d="M250 397.56C357.082 397.56 443.89 392.492 443.89 386.24C443.89 379.988 357.082 374.92 250 374.92C142.917 374.92 56.1099 379.988 56.1099 386.24C56.1099 392.492 142.917 397.56 250 397.56Z" fill="#F5F5F5"/>
<path d="M311.82 143.19C311.38 143.98 311.04 144.55 310.65 145.19C310.26 145.83 309.87 146.43 309.48 147.05C308.69 148.27 307.85 149.45 307 150.63C305.286 152.996 303.446 155.269 301.49 157.44C299.499 159.667 297.357 161.756 295.08 163.69C292.714 165.741 290.144 167.544 287.41 169.07C286.55 169.572 285.65 170.003 284.72 170.36C283.748 170.731 282.744 171.012 281.72 171.2C279.895 171.516 278.037 171.603 276.19 171.46C272.994 171.181 269.854 170.454 266.86 169.3C264.097 168.247 261.422 166.976 258.86 165.5C256.342 164.063 253.935 162.438 251.66 160.64C251.016 160.117 250.579 159.383 250.426 158.568C250.273 157.753 250.415 156.91 250.825 156.19C251.236 155.469 251.889 154.918 252.669 154.634C253.448 154.35 254.302 154.352 255.08 154.64L255.26 154.71C259.969 156.593 264.83 158.068 269.79 159.12C271.976 159.576 274.209 159.76 276.44 159.67C277.311 159.633 278.173 159.474 279 159.2C279.309 159.099 279.607 158.969 279.89 158.81C280.17 158.65 280.22 158.6 280.79 158.21C284.618 155.397 288.051 152.084 291 148.36C292.57 146.44 294.1 144.45 295.55 142.36C296.29 141.36 296.99 140.29 297.7 139.25L298.7 137.69L299.64 136.22L299.8 135.97C300.79 134.456 302.328 133.385 304.091 132.979C305.854 132.574 307.705 132.867 309.256 133.797C310.808 134.727 311.939 136.221 312.414 137.966C312.888 139.712 312.668 141.573 311.8 143.16L311.82 143.19Z" fill="#FF8B7B"/>
<path d="M256.74 155.46L249.07 150.38L245.82 160.58C247.357 161.39 249.084 161.771 250.819 161.683C252.554 161.595 254.233 161.041 255.68 160.08L256.74 155.46Z" fill="#FF8B7B"/>
<path d="M242 151.91L241.4 155.16C241.291 155.736 241.348 156.331 241.564 156.877C241.78 157.422 242.146 157.895 242.62 158.24L245.79 160.58L249.04 150.38L245.96 149.48C245.54 149.356 245.099 149.322 244.664 149.38C244.23 149.438 243.813 149.586 243.44 149.815C243.067 150.044 242.746 150.349 242.498 150.71C242.25 151.071 242.08 151.48 242 151.91Z" fill="#FF8B7B"/>
<path d="M312.06 126.94C304.25 128.17 296.35 137.34 291.6 145.89C294.719 151.328 299.446 155.667 305.13 158.31C305.13 158.31 314.39 149.55 318.13 143.07C321.87 136.59 319.41 125.77 312.06 126.94Z" fill="#92E3A9"/>
<path opacity="0.2" d="M312.06 126.94C304.25 128.17 296.35 137.34 291.6 145.89C294.719 151.328 299.446 155.667 305.13 158.31C305.13 158.31 314.39 149.55 318.13 143.07C321.87 136.59 319.41 125.77 312.06 126.94Z" fill="black"/>
<path d="M291.9 143.93C291.177 144.749 290.61 145.695 290.23 146.72C292.18 149.72 296.81 157.72 305.45 159.42C306.29 158.951 306.932 158.195 307.26 157.29C307.26 157.29 297.32 152.39 291.9 143.93Z" fill="#263238"/>
<path d="M343.53 126.67C334.09 125.09 324.476 124.814 314.96 125.85C307.86 126.76 302.56 133.29 302.61 140.44C302.646 147.9 303.315 155.343 304.61 162.69C302 176.44 301.06 195.13 303.81 199.25L353 199.94C355.11 194.06 352.46 168.61 355.27 142.04C355.652 138.463 354.647 134.875 352.463 132.016C350.279 129.157 347.082 127.243 343.53 126.67Z" fill="#92E3A9"/>
<path opacity="0.2" d="M325 199.31C322.19 177.18 325 140.17 325 139.79L326 139.87C326 140.24 323.21 177.15 326 199.18L325 199.31Z" fill="black"/>
<path d="M319.65 126.54C321.34 125.91 320.71 124.97 320.71 124.97C320.71 124.97 313.03 124.97 307.71 126.4C306.9 127.26 307.77 128.4 307.77 128.4C307.77 128.4 314.62 128.42 319.65 126.54Z" fill="#263238"/>
<path opacity="0.2" d="M322.79 125C322.79 125 319.62 130.86 323.86 136.19C320.5 136.19 318.33 141.92 318.33 141.92C318.33 141.92 311.77 132.8 320.16 125.51C320.63 124.78 322.79 125 322.79 125Z" fill="black"/>
<path d="M319.4 127.84C318.58 131.42 325.79 138.17 325.79 138.17C325.79 138.17 338.54 132.01 339.35 128.48L319.4 127.84Z" fill="white"/>
<path opacity="0.2" d="M348.18 148.79C346.82 151.41 348.63 162.79 353.88 167.6C353.94 162.9 354.08 157.91 354.38 152.78L348.18 148.79Z" fill="black"/>
<path d="M336.69 107.25L323.53 115.89C325.09 119.71 325.82 123.69 321.32 125.53C320.742 125.762 320.247 126.162 319.898 126.678C319.55 127.194 319.363 127.802 319.363 128.425C319.363 129.048 319.55 129.656 319.898 130.172C320.247 130.688 320.742 131.088 321.32 131.32C322.646 131.802 324.033 132.095 325.44 132.19C329.67 132.6 333.934 131.911 337.82 130.19C338.229 129.986 338.589 129.694 338.874 129.337C339.16 128.979 339.364 128.564 339.472 128.119C339.581 127.675 339.591 127.212 339.503 126.763C339.414 126.314 339.229 125.89 338.96 125.52C335.51 120.64 335.93 112.16 336.69 107.25Z" fill="#FF8B7B"/>
<path opacity="0.2" d="M331.33 110.77L323.54 115.88C323.978 116.925 324.313 118.01 324.54 119.12C327.65 118.94 331.71 116.48 331.79 113.91C331.867 112.842 331.71 111.771 331.33 110.77Z" fill="black"/>
<path d="M322.08 90.7701C325.43 90.7001 326.34 95.5101 325.08 97.1401C327.62 97.6901 328.85 100.66 328.08 102.14C327.31 103.62 324.37 105.29 321.75 104.63C317.26 103.51 316.49 99.7801 317.75 98.0801C315.35 96.1001 316.57 90.0001 322.08 90.7701Z" fill="#263238"/>
<path opacity="0.2" d="M322.08 90.7701C325.43 90.7001 326.34 95.5101 325.08 97.1401C327.62 97.6901 328.85 100.66 328.08 102.14C327.31 103.62 324.37 105.29 321.75 104.63C317.26 103.51 316.49 99.7801 317.75 98.0801C315.35 96.1001 316.57 90.0001 322.08 90.7701Z" fill="white"/>
<path d="M341 98.7C340 106.59 339.81 111.26 335.54 115.04C329.11 120.71 319.54 116.35 318.18 108.29C316.94 101.04 318.79 89.35 326.76 86.77C328.526 86.2081 330.405 86.1014 332.223 86.4598C334.041 86.8182 335.739 87.6301 337.16 88.8201C338.58 90.0102 339.677 91.5398 340.348 93.267C341.02 94.9942 341.244 96.8631 341 98.7Z" fill="#FF8B7B"/>
<path d="M340.05 104.73C336.7 104.73 335.96 99.85 337.24 98.27C334.72 97.62 333.6 94.61 334.38 93.13C335.16 91.65 338.19 90.13 340.79 90.86C345.24 92.14 345.89 95.86 344.6 97.55C347 99.65 345.53 105.67 340.05 104.73Z" fill="#263238"/>
<path opacity="0.2" d="M340.05 104.73C336.7 104.73 335.96 99.85 337.24 98.27C334.72 97.62 333.6 94.61 334.38 93.13C335.16 91.65 338.19 90.13 340.79 90.86C345.24 92.14 345.89 95.86 344.6 97.55C347 99.65 345.53 105.67 340.05 104.73Z" fill="white"/>
<path opacity="0.2" d="M332 100C332.402 99.8907 332.822 99.8617 333.236 99.9149C333.649 99.9681 334.048 100.102 334.41 100.31C333.594 100.362 332.776 100.257 332 100Z" fill="black"/>
<path opacity="0.2" d="M332 100.54C332.381 100.519 332.762 100.581 333.116 100.723C333.47 100.864 333.789 101.082 334.05 101.36C333.317 101.234 332.618 100.954 332 100.54Z" fill="black"/>
<path opacity="0.2" d="M319.47 99.39C319.378 99.3356 319.276 99.3005 319.17 99.2867C319.064 99.2728 318.957 99.2807 318.854 99.3096C318.751 99.3386 318.655 99.3882 318.572 99.4552C318.489 99.5223 318.42 99.6056 318.37 99.7C318.763 99.7458 319.159 99.6344 319.47 99.39Z" fill="black"/>
<path opacity="0.2" d="M319.48 100C319.48 100 318.87 99.91 318.55 100.82C318.933 100.642 319.256 100.357 319.48 100Z" fill="black"/>
<path d="M343.38 106.74C342.462 108.391 340.955 109.633 339.16 110.22C336.88 110.88 335.97 108.6 336.79 106.22C337.54 104.09 339.61 101.17 341.79 101.56C343.97 101.95 344.58 104.63 343.38 106.74Z" fill="#FF8B7B"/>
<path d="M330.4 100C330.4 100.64 329.99 101.14 329.56 101.11C329.13 101.08 328.83 100.53 328.88 99.88C328.93 99.23 329.29 98.74 329.72 98.77C330.15 98.8 330.45 99.37 330.4 100Z" fill="#263238"/>
<path d="M327.2 111.75C326.38 111.91 325.63 111.59 325.53 111.05C325.43 110.51 326.03 109.95 326.85 109.79C327.67 109.63 328.42 109.95 328.52 110.49C328.62 111.03 328 111.6 327.2 111.75Z" fill="#263238"/>
<path d="M321.65 99.31C321.65 99.95 321.23 100.45 320.81 100.42C320.39 100.39 320.07 99.84 320.12 99.19C320.17 98.54 320.54 98.05 320.96 98.08C321.38 98.11 321.69 98.66 321.65 99.31Z" fill="#263238"/>
<path d="M323.64 105.75C318.96 106.07 318.06 108.35 318.88 109.35C319.7 110.35 321.7 109.35 321.7 109.35C321.7 109.35 325.49 110.16 326.6 108.95C328.39 109.71 331.12 108.29 330.35 107.21C329.58 106.13 327.65 105.47 323.64 105.75Z" fill="#263238"/>
<path opacity="0.2" d="M323.64 105.75C318.96 106.07 318.06 108.35 318.88 109.35C319.7 110.35 321.7 109.35 321.7 109.35C321.7 109.35 325.49 110.16 326.6 108.95C328.39 109.71 331.12 108.29 330.35 107.21C329.58 106.13 327.65 105.47 323.64 105.75Z" fill="white"/>
<path d="M323.78 100C322.881 101.915 321.72 103.695 320.33 105.29C320.75 105.637 321.24 105.89 321.766 106.029C322.293 106.169 322.843 106.193 323.38 106.1L323.78 100Z" fill="#FF5652"/>
<path d="M331.81 96.64C331.874 96.6322 331.935 96.6118 331.99 96.58C332.033 96.5527 332.069 96.5172 332.097 96.4757C332.126 96.4341 332.146 96.3873 332.156 96.338C332.166 96.2887 332.167 96.2378 332.157 96.1884C332.147 96.139 332.128 96.0919 332.1 96.05C331.781 95.5323 331.342 95.0993 330.819 94.7877C330.297 94.476 329.707 94.295 329.1 94.26C328.999 94.26 328.903 94.3 328.832 94.3713C328.76 94.4426 328.72 94.5392 328.72 94.64C328.72 94.7408 328.76 94.8374 328.832 94.9087C328.903 94.98 328.999 95.02 329.1 95.02C329.579 95.0547 330.041 95.2036 330.45 95.4542C330.859 95.7047 331.202 96.0496 331.45 96.46C331.487 96.5207 331.541 96.5698 331.604 96.6016C331.668 96.6334 331.739 96.6467 331.81 96.64Z" fill="#263238"/>
<path d="M318.78 95.8901C318.843 95.8889 318.905 95.8729 318.96 95.8434C319.016 95.8139 319.064 95.7716 319.1 95.7201C319.356 95.3195 319.703 94.9856 320.114 94.7456C320.524 94.5057 320.986 94.3667 321.46 94.3401C321.561 94.3401 321.658 94.3 321.729 94.2288C321.8 94.1575 321.84 94.0609 321.84 93.9601C321.84 93.8593 321.8 93.7626 321.729 93.6914C321.658 93.6201 321.561 93.5801 321.46 93.5801C320.859 93.6041 320.272 93.7731 319.749 94.0725C319.227 94.372 318.785 94.7931 318.46 95.3001C318.432 95.3412 318.413 95.3875 318.404 95.4361C318.394 95.4848 318.395 95.5349 318.405 95.5834C318.415 95.6319 318.435 95.6778 318.464 95.7185C318.492 95.7592 318.528 95.7937 318.57 95.8201C318.63 95.8669 318.704 95.8916 318.78 95.8901Z" fill="#263238"/>
<path d="M331.69 280.8C333.93 244.72 333.43 207.7 329.54 199.64L303.79 199.25C303.79 199.25 307 259.57 308 283.6C309.05 308.6 311.29 373.6 311.29 373.6L326.19 373.78C326.19 373.78 334.93 308.71 331.69 280.8Z" fill="#263238"/>
<path opacity="0.2" d="M332.8 225.65C324.01 235.25 328.12 261.83 331.95 276.47C333 258.16 333.28 239.93 332.8 225.65Z" fill="black"/>
<path d="M326 375.66L312.9 375.49C312.071 375.448 311.252 375.691 310.58 376.18C306.78 379.18 303.89 379.27 299.58 380.04C294.41 380.97 296.97 386.17 300.78 386.23C307.08 386.33 306.55 386.1 311.93 386.18L315.65 386.23L317.33 384.52L318.82 386.23H325.7C325.879 386.234 326.056 386.2 326.221 386.13C326.385 386.06 326.533 385.955 326.654 385.824C326.775 385.692 326.867 385.537 326.923 385.367C326.979 385.197 326.999 385.018 326.98 384.84L326 375.66Z" fill="#263238"/>
<path d="M327 377C326.77 377 309.81 376.46 309.81 376.46L309.12 370.37L327.93 370.79L327 377Z" fill="#92E3A9"/>
<path d="M361.93 280.8C359.17 244.72 358 208 353 199.94L321.95 199.54C321.95 199.54 334.3 259.54 338.64 283.6C343.15 308.6 355.29 373.6 355.29 373.6L370.22 373.78C370.22 373.78 369 308.71 361.93 280.8Z" fill="#263238"/>
<path d="M370.93 375.66L357.82 375.49C356.994 375.449 356.179 375.693 355.51 376.18C351.71 379.18 353.45 379.27 349.14 380.04C343.97 380.97 346.52 386.17 350.33 386.23C356.63 386.33 356.11 386.1 361.48 386.18L367.32 386.23L368.09 384.52L369.09 386.23H370.63C370.806 386.23 370.98 386.192 371.141 386.12C371.302 386.048 371.446 385.944 371.564 385.813C371.681 385.682 371.77 385.527 371.825 385.36C371.879 385.192 371.898 385.015 371.88 384.84L370.93 375.66Z" fill="#263238"/>
<path d="M371.92 377C371.68 377 354.65 376.46 354.65 376.46L353 370.33L371.87 370.75L371.92 377Z" fill="#92E3A9"/>
<path d="M323.31 124.29C323.31 124.29 319.62 130.86 323.86 136.19C320.5 136.19 318.3 139.83 318.3 139.83C318.3 139.83 313.83 130.83 320.44 124.83C320.9 124.15 323.31 124.29 323.31 124.29Z" fill="#92E3A9"/>
<path d="M354.33 202.68C336.76 203.41 316.61 203.63 304.01 202.68C303.941 202.677 303.873 202.659 303.813 202.626C303.752 202.593 303.7 202.546 303.66 202.49C302.834 201.09 302.453 199.472 302.57 197.85C302.58 197.731 302.635 197.62 302.725 197.54C302.814 197.46 302.93 197.417 303.05 197.42C319.68 197.87 336.21 197.85 353.59 197.42C353.685 197.418 353.779 197.445 353.859 197.497C353.939 197.548 354.002 197.623 354.04 197.71C354.621 199.15 354.874 200.701 354.78 202.25C354.772 202.365 354.722 202.473 354.639 202.553C354.555 202.632 354.445 202.678 354.33 202.68Z" fill="#263238"/>
<path opacity="0.2" d="M354.33 202.68C336.76 203.41 316.61 203.63 304.01 202.68C303.941 202.677 303.873 202.659 303.813 202.626C303.752 202.593 303.7 202.546 303.66 202.49C302.834 201.09 302.453 199.472 302.57 197.85C302.58 197.731 302.635 197.62 302.725 197.54C302.814 197.46 302.93 197.417 303.05 197.42C319.68 197.87 336.21 197.85 353.59 197.42C353.685 197.418 353.779 197.445 353.859 197.497C353.939 197.548 354.002 197.623 354.04 197.71C354.621 199.15 354.874 200.701 354.78 202.25C354.772 202.365 354.722 202.473 354.639 202.553C354.555 202.632 354.445 202.678 354.33 202.68Z" fill="black"/>
<path d="M320 197.14C319.792 199.351 319.971 201.581 320.53 203.73C324.34 204.32 332.16 203.88 332.16 203.88C332.273 201.664 332.193 199.442 331.92 197.24C325.92 197 320 197.14 320 197.14Z" fill="white"/>
<path d="M355.13 136.72L355.7 137.23L356.15 137.65L357 138.47C357.55 139.01 358.05 139.55 358.56 140.1C359.56 141.19 360.51 142.32 361.41 143.46C363.208 145.718 364.878 148.075 366.41 150.52C369.396 155.351 371.917 160.454 373.94 165.76C374.21 166.47 374.42 166.9 374.8 168.11C375.101 169.089 375.315 170.093 375.44 171.11C375.624 172.89 375.601 174.685 375.37 176.46C374.94 179.518 374.134 182.51 372.97 185.37C371.906 188.024 370.656 190.601 369.23 193.08C367.834 195.516 366.273 197.855 364.56 200.08C364.051 200.733 363.327 201.185 362.516 201.354C361.705 201.523 360.86 201.4 360.132 201.005C359.404 200.61 358.84 199.97 358.539 199.198C358.238 198.427 358.221 197.573 358.49 196.79L358.55 196.62C360.285 191.925 361.698 187.117 362.78 182.23C363.271 180.047 363.526 177.818 363.54 175.58C363.542 174.713 363.435 173.85 363.22 173.01C362.975 172.249 362.639 171.521 362.22 170.84C360.015 166.419 357.513 162.152 354.73 158.07C353.36 156.07 351.9 154.07 350.4 152.25C349.65 151.31 348.87 150.42 348.1 149.54L346.94 148.27L346.38 147.68L346.12 147.41L345.95 147.25C344.549 146.031 343.688 144.306 343.559 142.453C343.43 140.6 344.042 138.772 345.26 137.37C346.479 135.968 348.204 135.108 350.057 134.979C351.91 134.849 353.739 135.461 355.14 136.68L355.13 136.72Z" fill="#FF8B7B"/>
<path d="M346.51 128.06C354.3 129.41 362.06 138.69 366.69 147.31C363.497 152.698 358.715 156.967 353 159.53C353 159.53 343.86 150.63 340.21 144.11C336.56 137.59 339.18 126.79 346.51 128.06Z" fill="#92E3A9"/>
<path d="M366.42 145.34C367.129 146.174 367.681 147.13 368.05 148.16C366.05 151.16 361.31 159.09 352.64 160.64C351.81 160.156 351.181 159.389 350.87 158.48C350.87 158.48 360.88 153.72 366.42 145.34Z" fill="#263238"/>
<path d="M340.87 127.36C339.26 126.67 339.87 125.76 339.87 125.76C339.87 125.76 347.28 126.02 352.35 127.63C353.1 128.52 352.22 129.63 352.22 129.63C352.22 129.63 345.65 129.41 340.87 127.36Z" fill="#263238"/>
<path opacity="0.2" d="M338.93 125.56C338.93 125.56 337.25 131.42 329.57 136.2C332.93 136.2 335.18 142.33 335.18 142.33C335.18 142.33 342.18 134.11 340.56 126C340.09 125.28 338.93 125.56 338.93 125.56Z" fill="black"/>
<path d="M338.71 124.5C338.71 124.5 336.71 130.84 329.57 136.2C332.93 136.2 335.26 139.83 335.26 139.83C335.26 139.83 342.14 134.11 340.56 126C340.037 125.394 339.411 124.887 338.71 124.5Z" fill="#92E3A9"/>
<path d="M345.91 148.57C345.45 157.21 339.98 159.27 339.21 159.27C338.44 159.27 333.21 157.21 333.67 148.57L339.92 146.11L345.91 148.57Z" fill="white"/>
<path d="M359.37 196.1L353.21 201.4L361.38 206.71C361.38 206.71 366.38 201.23 363.9 198.11L359.37 196.1Z" fill="#FF8B7B"/>
<path d="M352.52 209.81L355.69 211.18C356.302 211.446 356.988 211.487 357.627 211.295C358.267 211.102 358.817 210.69 359.18 210.13L361.38 206.71L353.21 201.4L351.08 206.05C350.924 206.391 350.838 206.759 350.826 207.134C350.814 207.509 350.877 207.882 351.011 208.232C351.145 208.582 351.347 208.902 351.607 209.173C351.866 209.444 352.176 209.661 352.52 209.81Z" fill="#FF8B7B"/>
<path d="M317.7 89.13C312.21 89.88 314.05 91.62 326.29 93.18C338.53 94.74 341.6 93.51 341.6 93.51C341.6 93.51 327.54 89.1 317.7 89.13Z" fill="#263238"/>
<path d="M345.39 95.89C345.39 95.89 334.64 91.52 317.7 89.13C317.49 86.64 319.54 84 319.54 84C319.54 84 315.76 82.11 316.93 78.5C318.1 74.89 323.51 75.36 329.82 72.5C332.13 75.04 338.48 79.17 342.82 79.7C343.89 81.91 346.69 87.44 351.23 89.57C351.16 91.98 346.65 92.57 346.65 92.57C346.671 93.1793 346.57 93.7865 346.354 94.3565C346.137 94.9264 345.81 95.4477 345.39 95.89Z" fill="#92E3A9"/>
<path opacity="0.3" d="M346.64 92.57C342.71 89 328.75 82.48 319.54 84C319.54 84 317.49 86.65 317.7 89.13C334.64 91.52 345.39 95.89 345.39 95.89C345.808 95.4469 346.133 94.9253 346.348 94.3554C346.563 93.7854 346.662 93.1786 346.64 92.57Z" fill="black"/>
<path d="M331.44 79.8401C330.23 86.0001 326.03 87.1101 325.44 87.0501C324.85 86.9901 321.25 85.1701 322.44 79.0501L327.27 77.7101L331.44 79.8401Z" fill="white"/>
<path d="M251.75 180.78C251.14 180.78 250.55 180.556 250.093 180.15C249.636 179.745 249.344 179.186 249.27 178.58L242.13 120.39C242.049 119.727 242.235 119.059 242.647 118.533C243.059 118.007 243.662 117.666 244.325 117.585C244.988 117.504 245.656 117.69 246.182 118.102C246.708 118.513 247.049 119.117 247.13 119.78L254.23 178C254.272 178.326 254.249 178.657 254.163 178.974C254.076 179.291 253.928 179.588 253.726 179.847C253.525 180.106 253.273 180.323 252.988 180.485C252.702 180.647 252.387 180.751 252.06 180.79L251.75 180.78Z" fill="#263238"/>
<path d="M250.16 154.6C249.55 152.36 250.7 152.03 249.59 148.85C249 147.16 250.94 145.85 251.18 147.21C252.08 152.16 258.65 154.93 256.37 158.06C254.09 161.19 250.76 156.84 250.16 154.6Z" fill="#FF8B7B"/>
<path d="M294.729 70.7864C296.69 39.5278 272.94 12.5979 241.681 10.6367C210.423 8.67559 183.493 32.4259 181.531 63.6845C179.57 94.9431 203.321 121.873 234.579 123.834C265.838 125.795 292.768 102.045 294.729 70.7864Z" fill="#92E3A9"/>
<path d="M281.286 82.5206C289.734 58.6783 277.254 32.5021 253.412 24.0544C229.57 15.6067 203.393 28.0865 194.946 51.9288C186.498 75.7711 198.978 101.947 222.82 110.395C246.663 118.843 272.839 106.363 281.286 82.5206Z" fill="white"/>
<path d="M267.87 59.4901C264.11 54.4101 256.87 59.4901 254.7 64.8301C254.111 66.1548 253.723 67.5604 253.55 69.0001L251.16 52.6901L249.27 37.2301C249.071 35.9034 248.362 34.7068 247.294 33.8949C246.226 33.083 244.884 32.7199 243.552 32.8827C242.22 33.0456 241.005 33.7216 240.164 34.767C239.323 35.8123 238.924 37.1445 239.05 38.4801L238.58 34.6301C238.497 33.9597 238.283 33.3121 237.95 32.7244C237.617 32.1367 237.172 31.6203 236.639 31.2048C236.107 30.7893 235.498 30.4827 234.847 30.3026C234.196 30.1225 233.515 30.0723 232.845 30.1551C232.175 30.2378 231.527 30.4518 230.939 30.7847C230.352 31.1177 229.835 31.5632 229.42 32.0958C229.004 32.6283 228.698 33.2375 228.518 33.8885C228.337 34.5395 228.287 35.2197 228.37 35.8901L229.03 41.2501C228.94 40.5246 228.697 39.8265 228.317 39.2022C227.937 38.578 227.428 38.0418 226.825 37.6293C226.221 37.2169 225.537 36.9377 224.817 36.8102C224.097 36.6827 223.359 36.71 222.65 36.8901C221.437 37.2013 220.379 37.9431 219.672 38.9771C218.965 40.0111 218.659 41.2668 218.81 42.5101L219.63 49.2001C219.542 48.4739 219.3 47.7749 218.92 47.1498C218.54 46.5247 218.031 45.9878 217.428 45.5751C216.824 45.1624 216.139 44.8833 215.418 44.7566C214.698 44.6298 213.959 44.6583 213.25 44.8401C212.039 45.1493 210.981 45.8896 210.276 46.9222C209.571 47.9549 209.267 49.2091 209.42 50.4501L211.06 63.8201L212.23 73.4101L213.78 86.0001C214.88 95.0001 218.39 100.08 223.6 102.37C231.6 105.88 246.25 105.92 252.83 100.58C258.59 95.9101 262.29 84.6601 263.18 77.6901C264.07 70.7201 269.4 61.5401 267.87 59.4901Z" fill="#263238"/>
<path d="M276.513 27.7442L267.176 20.447L199.728 106.746L209.064 114.043L276.513 27.7442Z" fill="#92E3A9"/>
</g>
<defs>
<clipPath id="clip0_90_308">
<rect width="500" height="398" fill="white"/>
</clipPath>
</defs>
</svg>
