<svg width="420" height="381" viewBox="0 0 420 381" fill="none" xmlns="http://www.w3.org/2000/svg">
<g clip-path="url(#clip0_90_412)">
<path d="M17.4798 203.73C17.4798 203.73 19.7998 275.73 79.9098 323.73C140.02 371.73 223.32 375.16 290.75 379.73C358.18 384.3 409.98 346.11 417.75 288.41C425.52 230.71 374.03 213.77 346.07 148.08C318.11 82.39 320.64 60.8 261.49 20.4C202.34 -20 109.8 4.80998 61.2898 74C12.7798 143.19 17.4798 203.73 17.4798 203.73Z" fill="#92E3A9"/>
<path opacity="0.7" d="M17.4798 203.73C17.4798 203.73 19.7998 275.73 79.9098 323.73C140.02 371.73 223.32 375.16 290.75 379.73C358.18 384.3 409.98 346.11 417.75 288.41C425.52 230.71 374.03 213.77 346.07 148.08C318.11 82.39 320.64 60.8 261.49 20.4C202.34 -20 109.8 4.80998 61.2898 74C12.7798 143.19 17.4798 203.73 17.4798 203.73Z" fill="white"/>
<path d="M45.6101 109.69V83.92C45.6101 65.68 60.7701 50.84 79.4001 50.84C98.0301 50.84 113.19 65.68 113.19 83.92V109.69H126.66V83.92C126.66 58.41 105.46 37.65 79.4001 37.65C53.3401 37.65 32.1401 58.41 32.1401 83.92V109.69H45.6101Z" stroke="#263238" stroke-width="1.16634" stroke-linecap="round" stroke-linejoin="round"/>
<path d="M130.32 109.87H27.1401V195.22H130.32V109.87Z" stroke="#263238" stroke-width="1.16634" stroke-linecap="round" stroke-linejoin="round"/>
<path d="M89.4602 145.32C89.3731 142.398 88.1512 139.626 86.0537 137.59C83.9562 135.554 81.1482 134.415 78.2252 134.415C75.3022 134.415 72.4942 135.554 70.3968 137.59C68.2993 139.626 67.0774 142.398 66.9902 145.32C67.0023 147.317 67.5578 149.273 68.5972 150.979C69.6366 152.684 71.1207 154.074 72.8902 155L71.0002 174.38H85.4502L83.5602 155C85.3298 154.074 86.8138 152.684 87.8532 150.979C88.8927 149.273 89.4482 147.317 89.4602 145.32Z" stroke="#263238" stroke-width="1.16634" stroke-linecap="round" stroke-linejoin="round"/>
<path d="M194.64 197.99L168.95 196.3V195.88L165.79 196.09L162.64 195.88V196.3L136.95 197.99L118 353.79H136.95L165.16 229.57H166.43L194.64 353.79H213.59L194.64 197.99Z" fill="#263238" stroke="#263238" stroke-width="1.16634" stroke-linecap="round" stroke-linejoin="round"/>
<path d="M118 353.78L113.37 360.94L99.0498 367.26C98.2954 367.677 97.6648 368.286 97.2222 369.025C96.7796 369.765 96.5407 370.608 96.5298 371.47V376.94H137.37C137.61 373.998 137.61 371.042 137.37 368.1C136.95 363.89 136.95 353.78 136.95 353.78H118Z" fill="#4C4C4C" stroke="#263238" stroke-width="1.16634" stroke-linecap="round" stroke-linejoin="round"/>
<path d="M96.5298 372.31V376.94H137.37C137.37 376.94 137.56 374.94 137.56 372.31H96.5298Z" fill="#263238" stroke="#263238" stroke-width="1.16634" stroke-linecap="round" stroke-linejoin="round"/>
<path d="M213.51 353.78L218.14 360.94L232.46 367.26C233.214 367.677 233.845 368.286 234.288 369.025C234.73 369.765 234.969 370.608 234.98 371.47V376.94H194.14C193.899 373.998 193.899 371.042 194.14 368.1C194.56 363.89 194.56 353.78 194.56 353.78H213.51Z" fill="#4C4C4C" stroke="#263238" stroke-width="1.16634" stroke-linecap="round" stroke-linejoin="round"/>
<path d="M235 372.31V376.94H194.14C194.14 376.94 193.96 374.94 193.95 372.31H235Z" fill="#263238" stroke="#263238" stroke-width="1.16634" stroke-linecap="round" stroke-linejoin="round"/>
<path d="M126.07 125.51C126.07 125.51 96.0698 167.67 96.0698 170.76C96.0698 173.85 100.84 197.71 108.42 199.95C116 202.19 120.21 198.27 121.61 190.41C123.01 182.55 118.24 171.32 118.24 171.32L132.24 158.69L126.07 125.51Z" fill="#92E3A9" stroke="#263238" stroke-width="1.16634" stroke-linecap="round" stroke-linejoin="round"/>
<path d="M120.25 189.29C120.25 189.29 128.95 187.88 131.2 188.44C133.45 189 135.13 194.34 135.13 194.34C135.13 194.34 135.97 202.2 134.56 203.88C133.15 205.56 126.42 207.53 123.62 208.09C120.82 208.65 114.91 202.2 112.62 198.27C110.33 194.34 114.35 187.6 120.25 189.29Z" fill="#CCCCCC" stroke="#263238" stroke-width="1.16634" stroke-linecap="round" stroke-linejoin="round"/>
<path d="M132.38 123.6L126.07 125.51L136.01 191.86H195.09L204.08 125.89L196.05 122.83L166.41 116.33L132.38 123.6Z" fill="#92E3A9" stroke="#263238" stroke-width="1.16634" stroke-linecap="round" stroke-linejoin="round"/>
<path d="M198.34 145.78L197.01 155.34L186.68 157.82L176.16 153.62L176.93 145.01L198.34 145.78Z" fill="#263238" stroke="#263238" stroke-width="1.16634" stroke-linecap="round" stroke-linejoin="round"/>
<path d="M187.35 155.34C188.355 155.34 189.17 154.525 189.17 153.52C189.17 152.515 188.355 151.7 187.35 151.7C186.345 151.7 185.53 152.515 185.53 153.52C185.53 154.525 186.345 155.34 187.35 155.34Z" fill="#4C4C4C" stroke="#263238" stroke-width="1.16634" stroke-linecap="round" stroke-linejoin="round"/>
<path d="M160.1 128.57L165.65 135.07L158.57 180.19L166.03 192.05L174.83 179.62L167.37 135.26L173.68 129.14L166.99 120.54L160.1 128.57Z" fill="#263238" stroke="#263238" stroke-width="1.16634" stroke-linecap="round" stroke-linejoin="round"/>
<path d="M154.75 117.29L129.32 123.6L130.09 126.66L154.94 119.77L154.75 117.29Z" fill="#263238" stroke="#263238" stroke-width="1.16634" stroke-linecap="round" stroke-linejoin="round"/>
<path d="M175.59 116.52L201.02 122.83L200.26 125.89L175.4 119.01L175.59 116.52Z" fill="#263238" stroke="#263238" stroke-width="1.16634" stroke-linecap="round" stroke-linejoin="round"/>
<path d="M201 122.83C201 122.83 210.62 125 216.51 128.37C222.4 131.74 223.81 139.32 220.44 147.74C217.07 156.16 206.69 155.04 201.92 152.74C197.15 150.44 195.74 142.08 196.58 138.43" fill="#92E3A9"/>
<path d="M201 122.83C201 122.83 210.62 125 216.51 128.37C222.4 131.74 223.81 139.32 220.44 147.74C217.07 156.16 206.69 155.04 201.92 152.74C197.15 150.44 195.74 142.08 196.58 138.43" stroke="#263238" stroke-width="1.16634" stroke-linecap="round" stroke-linejoin="round"/>
<path d="M155.9 114.04L153.03 115.95L153.79 135.26L166.22 126.47L179.22 135.45L180.37 116.33L176.93 113.46L155.9 114.04Z" fill="#92E3A9" stroke="#263238" stroke-width="1.16634" stroke-linecap="round" stroke-linejoin="round"/>
<path d="M181 91.0701C181 91.0701 188.06 89.35 189.39 82.29C190.72 75.23 178 66.64 169.18 65.12C160.36 63.6 147.43 72.75 145.33 79.05C143.23 85.35 151.43 91.64 160.21 92.98C168.99 94.32 181 91.0701 181 91.0701Z" fill="#263238" stroke="#263238" stroke-width="1.16634" stroke-linecap="round" stroke-linejoin="round"/>
<path d="M154.68 92.2201C154.68 92.2201 150.86 86.3001 149.91 91.4501C148.96 96.6001 152.96 98.8901 154.68 98.7001C156.4 98.5101 154.68 92.2201 154.68 92.2201Z" fill="#CCCCCC" stroke="#263238" stroke-width="1.16634" stroke-linecap="round" stroke-linejoin="round"/>
<path d="M179.49 92.2201C179.49 92.2201 183.31 86.3001 184.26 91.4501C185.21 96.6001 181.26 98.8901 179.49 98.7001C177.72 98.5101 179.49 92.2201 179.49 92.2201Z" fill="#CCCCCC" stroke="#263238" stroke-width="1.16634" stroke-linecap="round" stroke-linejoin="round"/>
<path d="M155.52 103.9V116.52L166.22 126.47L178.27 116.14V104.29L155.52 103.9Z" fill="#CCCCCC" stroke="#263238" stroke-width="1.16634" stroke-linecap="round" stroke-linejoin="round"/>
<path d="M153.92 88.4001C153.92 88.4001 153.34 100.23 154.3 104.05C155.26 107.87 161.55 115.88 166.51 117.6C171.47 119.32 178.34 109.01 179.87 105.6C181.4 102.19 180.82 87.6601 180.82 87.6601C180.82 87.6601 178.73 82.6601 174.53 81.1801C170.33 79.7001 157.35 77.0001 153.92 88.4001Z" fill="#CCCCCC" stroke="#263238" stroke-width="1.16634" stroke-linecap="round" stroke-linejoin="round"/>
<path d="M161.85 94.68C161.85 95.58 161.44 96.31 160.93 96.31C160.42 96.31 160.01 95.58 160.01 94.68C160.01 93.78 160.42 93.05 160.93 93.05C161.44 93.05 161.85 93.78 161.85 94.68Z" fill="#263238"/>
<path d="M173.56 94.68C173.56 95.58 173.15 96.31 172.64 96.31C172.13 96.31 171.72 95.58 171.72 94.68C171.72 93.78 172.13 93.05 172.64 93.05C173.15 93.05 173.56 93.78 173.56 94.68Z" fill="#263238"/>
<path d="M163.84 99.2401C163.652 99.1952 163.456 99.1935 163.267 99.2351C163.078 99.2767 162.901 99.3605 162.75 99.4804C162.598 99.6002 162.475 99.7528 162.391 99.9268C162.307 100.101 162.263 100.292 162.263 100.485C162.263 100.678 162.307 100.869 162.391 101.043C162.475 101.217 162.598 101.37 162.75 101.49C162.901 101.61 163.078 101.693 163.267 101.735C163.456 101.777 163.652 101.775 163.84 101.73C164.242 101.739 164.634 101.608 164.95 101.36C165.245 101.708 165.612 101.988 166.024 102.183C166.437 102.378 166.886 102.482 167.342 102.49C167.798 102.497 168.25 102.408 168.669 102.227C169.088 102.046 169.463 101.778 169.77 101.44C170.067 101.633 170.415 101.734 170.77 101.73C170.958 101.775 171.154 101.777 171.343 101.735C171.532 101.693 171.709 101.61 171.86 101.49C172.012 101.37 172.135 101.217 172.219 101.043C172.303 100.869 172.347 100.678 172.347 100.485C172.347 100.292 172.303 100.101 172.219 99.9268C172.135 99.7528 172.012 99.6002 171.86 99.4804C171.709 99.3605 171.532 99.2767 171.343 99.2351C171.154 99.1935 170.958 99.1952 170.77 99.2401" fill="#CCCCCC"/>
<path d="M163.84 99.2401C163.652 99.1952 163.456 99.1935 163.267 99.2351C163.078 99.2767 162.901 99.3605 162.75 99.4804C162.598 99.6002 162.475 99.7528 162.391 99.9268C162.307 100.101 162.263 100.292 162.263 100.485C162.263 100.678 162.307 100.869 162.391 101.043C162.475 101.217 162.598 101.37 162.75 101.49C162.901 101.61 163.078 101.693 163.267 101.735C163.456 101.777 163.652 101.775 163.84 101.73C164.242 101.739 164.634 101.608 164.95 101.36C165.245 101.708 165.612 101.988 166.024 102.183C166.437 102.378 166.886 102.482 167.342 102.49C167.798 102.497 168.25 102.408 168.669 102.227C169.088 102.046 169.463 101.778 169.77 101.44C170.067 101.633 170.415 101.734 170.77 101.73C170.958 101.775 171.154 101.777 171.343 101.735C171.532 101.693 171.709 101.61 171.86 101.49C172.012 101.37 172.135 101.217 172.219 101.043C172.303 100.869 172.347 100.678 172.347 100.485C172.347 100.292 172.303 100.101 172.219 99.9268C172.135 99.7528 172.012 99.6002 171.86 99.4804C171.709 99.3605 171.532 99.2767 171.343 99.2351C171.154 99.1935 170.958 99.1952 170.77 99.2401" stroke="#263238" stroke-width="1.16634" stroke-linecap="round" stroke-linejoin="round"/>
<path d="M165.36 107.07H169.35" stroke="#263238" stroke-width="1.16634" stroke-linecap="round" stroke-linejoin="round"/>
<path d="M153.48 91.27C153.48 91.27 153.62 95.11 154.9 94.11C156.18 93.11 156.6 86.59 155.47 85.74C154.34 84.89 153.48 89.29 153.48 91.27Z" fill="#263238" stroke="#263238" stroke-width="1.16634" stroke-linecap="round" stroke-linejoin="round"/>
<path d="M178.11 91.27C178.11 91.27 178.26 95.11 179.53 94.11C180.8 93.11 181.24 86.59 180.1 85.74C178.96 84.89 178.11 89.29 178.11 91.27Z" fill="#263238" stroke="#263238" stroke-width="1.16634" stroke-linecap="round" stroke-linejoin="round"/>
<path d="M153.48 88.15C153.48 88.15 153.91 88.5 153.9 88.67C155.75 89.67 160 91.51 166.9 91.88C171.793 92.049 176.639 90.862 180.9 88.45C180.9 87.94 180.9 87.64 180.9 87.63C180.73 83.16 177.41 80.18 173.3 79.04C169.26 77.9276 164.969 78.1415 161.06 79.65C159.077 80.3977 157.328 81.657 155.99 83.3C155.48 83.86 152.78 87.59 153.48 88.15Z" fill="#4C4C4C" stroke="#263238" stroke-width="1.16634" stroke-linecap="round" stroke-linejoin="round"/>
<path d="M153.92 88.4C158.185 89.3433 162.563 89.6633 166.92 89.35C175.13 88.97 180.84 88.4 180.84 88.4C177.067 91.9368 172.197 94.0754 167.04 94.46C164.521 94.6236 162.002 94.1549 159.71 93.0965C157.419 92.0382 155.428 90.4237 153.92 88.4Z" fill="#4C4C4C" stroke="#263238" stroke-width="1.16634" stroke-linecap="round" stroke-linejoin="round"/>
<path d="M132.96 145.78L134.29 155.34L144.62 157.82L155.13 153.62L154.37 145.01L132.96 145.78Z" fill="#263238" stroke="#263238" stroke-width="1.16634" stroke-linecap="round" stroke-linejoin="round"/>
<path d="M143.95 155.34C144.955 155.34 145.77 154.525 145.77 153.52C145.77 152.515 144.955 151.7 143.95 151.7C142.945 151.7 142.13 152.515 142.13 153.52C142.13 154.525 142.945 155.34 143.95 155.34Z" fill="#4C4C4C" stroke="#263238" stroke-width="1.16634" stroke-linecap="round" stroke-linejoin="round"/>
<path d="M195.76 191.25H135.13V200.79H195.76V191.25Z" fill="#4C4C4C" stroke="#263238" stroke-width="1.16634" stroke-linecap="round" stroke-linejoin="round"/>
<path d="M146.78 191.81H133.59C132.115 191.81 130.92 193.005 130.92 194.48V200.93C130.92 202.405 132.115 203.6 133.59 203.6H146.78C148.255 203.6 149.45 202.405 149.45 200.93V194.48C149.45 193.005 148.255 191.81 146.78 191.81Z" fill="#4C4C4C" stroke="#263238" stroke-width="1.16634" stroke-linecap="round" stroke-linejoin="round"/>
<path d="M195.06 191.81H181.87C180.395 191.81 179.2 193.005 179.2 194.48V200.93C179.2 202.405 180.395 203.6 181.87 203.6H195.06C196.534 203.6 197.73 202.405 197.73 200.93V194.48C197.73 193.005 196.534 191.81 195.06 191.81Z" fill="#4C4C4C" stroke="#263238" stroke-width="1.16634" stroke-linecap="round" stroke-linejoin="round"/>
<path d="M173.02 191.81H159.83V200.23H173.02V191.81Z" fill="white" stroke="#263238" stroke-width="1.16634" stroke-linecap="round" stroke-linejoin="round"/>
<path d="M118.28 171.32C118.28 171.32 109.86 170.76 106.77 165.42" stroke="#263238" stroke-width="1.16634" stroke-linecap="round" stroke-linejoin="round"/>
<path d="M211.9 146.62C219.577 146.62 225.8 140.083 225.8 132.02C225.8 123.957 219.577 117.42 211.9 117.42C204.223 117.42 198 123.957 198 132.02C198 140.083 204.223 146.62 211.9 146.62Z" fill="#92E3A9" stroke="#263238" stroke-width="1.16634" stroke-linecap="round" stroke-linejoin="round"/>
<path d="M211.9 134.38C217.909 134.38 222.78 130.015 222.78 124.63C222.78 119.245 217.909 114.88 211.9 114.88C205.891 114.88 201.02 119.245 201.02 124.63C201.02 130.015 205.891 134.38 211.9 134.38Z" fill="#92E3A9" stroke="#263238" stroke-width="1.16634" stroke-linecap="round" stroke-linejoin="round"/>
<path d="M211.9 127.21C217.909 127.21 222.78 122.845 222.78 117.46C222.78 112.075 217.909 107.71 211.9 107.71C205.891 107.71 201.02 112.075 201.02 117.46C201.02 122.845 205.891 127.21 211.9 127.21Z" fill="#CCCCCC" stroke="#263238" stroke-width="1.16634" stroke-linecap="round" stroke-linejoin="round"/>
<path d="M194.42 96.44C194.42 96.44 194.61 110.82 195.34 115.06C196.07 119.3 199.03 124.83 203.09 124.83C205.794 124.763 208.471 124.267 211.02 123.36C211.02 123.36 215.81 125.94 220.42 125.2C225.03 124.46 224.29 118.01 224.29 115.2C224.29 112.39 223.74 91.6 223.74 91.6C223.74 91.6 224.11 89.6 222.26 89.21C221.353 89.0057 220.429 88.8819 219.5 88.84V84.41C219.16 83.9027 218.687 83.4978 218.134 83.2388C217.581 82.9797 216.967 82.8765 216.36 82.94C213.97 82.94 213.78 83.49 213.78 83.49V79.43C213.78 79.43 211.78 76.2 209.17 77.77C208.644 78.072 208.201 78.4994 207.88 79.014C207.559 79.5287 207.37 80.1148 207.33 80.72L207.14 84.6C207.14 84.6 202.72 82.94 202.35 85.52C201.98 88.1 201.24 104 201.24 104C200.978 101.5 200.486 99.0296 199.77 96.62C198.85 94.22 194.42 94.22 194.42 96.44Z" fill="#CCCCCC" stroke="#263238" stroke-width="1.16634" stroke-linecap="round" stroke-linejoin="round"/>
<path d="M207.14 84.64L207.51 101.6" stroke="#263238" stroke-width="1.16634" stroke-linecap="round" stroke-linejoin="round"/>
<path d="M213.78 83.53L213.97 101.78" stroke="#263238" stroke-width="1.16634" stroke-linecap="round" stroke-linejoin="round"/>
<path d="M219.5 88.88L219.13 101.6" stroke="#263238" stroke-width="1.16634" stroke-linecap="round" stroke-linejoin="round"/>
<path d="M204.75 101.42L221.53 102.15" stroke="#263238" stroke-width="1.16634" stroke-linecap="round" stroke-linejoin="round"/>
<path d="M201.24 104C201.245 104.696 201.411 105.381 201.725 106.002C202.039 106.623 202.492 107.163 203.05 107.58C204.87 108.72 208.97 111.68 209.42 116.46" stroke="#263238" stroke-width="1.16634" stroke-linecap="round" stroke-linejoin="round"/>
<path d="M48.8699 376.5H34.6099L53.6199 243.99H67.8799L48.8699 376.5Z" fill="#263238" stroke="#263238" stroke-width="1.16634" stroke-miterlimit="10"/>
<path d="M77.3899 376.5H91.6399L72.6299 243.99H58.3799L77.3899 376.5Z" fill="white" stroke="#263238" stroke-width="1.16634" stroke-miterlimit="10"/>
<path d="M251.18 376.5H236.93L255.93 243.99H270.19L251.18 376.5Z" fill="#263238" stroke="#263238" stroke-width="1.16634" stroke-miterlimit="10"/>
<path d="M279.7 376.5H293.95L274.94 243.99H260.69L279.7 376.5Z" fill="white" stroke="#263238" stroke-width="1.16634" stroke-miterlimit="10"/>
<path d="M289.66 223.21H17.73V249.57H289.66V223.21Z" fill="#92E3A9" stroke="#263238" stroke-width="1.16634" stroke-miterlimit="10"/>
<path d="M296.29 223.21H24.3599V249.57H296.29V223.21Z" fill="#92E3A9" stroke="#263238" stroke-width="1.16634" stroke-miterlimit="10"/>
<path d="M28.8101 249.57H51.8901L63.8201 223.21H40.7401L28.8101 249.57Z" fill="#263238"/>
<path d="M120.17 223.21H97.0901L85.1602 249.57H108.24L120.17 223.21Z" fill="#263238"/>
<path d="M289.21 223.21H266.13L254.21 249.57H277.29L289.21 223.21Z" fill="#263238"/>
<path d="M232.87 223.21H209.78L197.86 249.57H220.94L232.87 223.21Z" fill="#263238"/>
<path d="M176.52 223.21H153.44L141.51 249.57H164.59L176.52 223.21Z" fill="#263238"/>
<path d="M294.8 234.9H249.8" stroke="#263238" stroke-width="1.16634" stroke-miterlimit="10"/>
<path d="M294.01 239.31H286.91" stroke="#263238" stroke-width="1.16634" stroke-miterlimit="10"/>
<path d="M23.21 238.21H68.21" stroke="#263238" stroke-width="1.16634" stroke-miterlimit="10"/>
<path d="M24 233.25H80.84" stroke="#263238" stroke-width="1.16634" stroke-miterlimit="10"/>
<path d="M370.51 370.72H293.37V376.51H370.51V370.72Z" fill="#263238" stroke="#263238" stroke-width="1.16634" stroke-linecap="round" stroke-linejoin="round"/>
<path d="M357.49 370.56H306.39L326.42 261.6H337.46L357.49 370.56Z" fill="#92E3A9" stroke="#263238" stroke-width="1.16634" stroke-linecap="round" stroke-linejoin="round"/>
<path d="M318.98 302.1H344.91L342.42 288.6H321.46L318.98 302.1Z" fill="white" stroke="#263238" stroke-width="1.16634" stroke-linecap="round" stroke-linejoin="round"/>
<path d="M349.81 352.37L351.09 359.82" stroke="#263238" stroke-width="1.16634" stroke-linecap="round" stroke-linejoin="round"/>
<path d="M335.22 267.62L348.2 343" stroke="#263238" stroke-width="1.16634" stroke-linecap="round" stroke-linejoin="round"/>
<path d="M412.01 376.5H418.92" stroke="#263238" stroke-width="1.16634" stroke-linecap="round" stroke-linejoin="round"/>
<path d="M1.37012 376.5H402.36" stroke="#263238" stroke-width="1.16634" stroke-linecap="round" stroke-linejoin="round"/>
</g>
<defs>
<clipPath id="clip0_90_412">
<rect width="420" height="381" fill="white"/>
</clipPath>
</defs>
</svg>
