<svg width="481" height="477" viewBox="0 0 481 477" fill="none" xmlns="http://www.w3.org/2000/svg">
<g clip-path="url(#clip0_90_489)">
<path d="M240.56 476.48C373.28 476.48 480.87 420.802 480.87 352.12C480.87 283.438 373.28 227.76 240.56 227.76C107.84 227.76 0.25 283.438 0.25 352.12C0.25 420.802 107.84 476.48 240.56 476.48Z" fill="#F5F5F5"/>
<path d="M96.08 32.13L86.9 37.43C86.9 37.02 86.98 36.62 86.98 36.22V33.56C86.98 28.83 83.65 26.91 79.56 29.28C77.7935 30.3563 76.2847 31.8071 75.14 33.53C74.46 27.53 69.8 25.36 64.14 28.64C58 32.17 53 40.78 53 47.86V51.86C52.9824 53.4459 53.3243 55.0151 54 56.45L46.37 60.85C45.1642 61.63 44.1603 62.6846 43.4407 63.9274C42.7211 65.1702 42.3062 66.5659 42.23 68C42.23 70.62 44.07 71.68 46.34 70.37L96.08 41.66C97.2765 40.8774 98.272 39.8242 98.986 38.5855C99.7 37.3469 100.112 35.9576 100.19 34.53C100.19 31.89 98.35 30.82 96.08 32.13Z" fill="#EBEBEB"/>
<path d="M140.24 52L133.31 56C133.35 55.6949 133.37 55.3876 133.37 55.08V53.08C133.37 49.51 130.87 48.08 127.77 49.85C126.441 50.6664 125.305 51.7616 124.44 53.06C123.93 48.57 120.44 46.9 116.13 49.37C111.5 52.04 107.75 58.53 107.75 63.88V66.88C107.723 68.0785 107.966 69.2678 108.46 70.36L102.71 73.68C101.805 74.2687 101.051 75.0628 100.511 75.9976C99.9706 76.9325 99.6585 77.9817 99.6001 79.06C99.6001 81.06 100.99 81.84 102.71 80.85L140.24 59.18C141.145 58.5913 141.899 57.7972 142.439 56.8623C142.98 55.9275 143.292 54.8782 143.35 53.8C143.35 51.83 142 51 140.24 52Z" fill="#EBEBEB"/>
<path d="M388.11 419.13C415.332 419.13 437.4 406.388 437.4 390.67C437.4 374.952 415.332 362.21 388.11 362.21C360.888 362.21 338.82 374.952 338.82 390.67C338.82 406.388 360.888 419.13 388.11 419.13Z" fill="#E0E0E0"/>
<path d="M69.49 418.39L25.75 393.13C23.28 391.71 23.28 389.4 25.75 387.98L270.51 246.83C271.894 246.13 273.424 245.765 274.975 245.765C276.526 245.765 278.056 246.13 279.44 246.83L323.19 272.09C325.65 273.51 325.65 275.82 323.19 277.24L78.42 418.39C77.0358 419.09 75.5062 419.455 73.955 419.455C72.4037 419.455 70.8742 419.09 69.49 418.39Z" fill="#E0E0E0"/>
<path d="M304.39 328.39L299 325.25C286.65 318.12 267.15 317.77 255.54 324.47L235.18 336.2C234.835 336.399 234.583 336.727 234.48 337.111C234.377 337.495 234.431 337.905 234.63 338.25C234.829 338.595 235.156 338.846 235.541 338.949C235.925 339.053 236.335 338.999 236.68 338.8L257 327.07C267.78 320.84 285.94 321.19 297.46 327.84L302.9 330.99C308.2 334.05 311.12 337.99 311.12 342.19C311.12 346.39 308.2 350.33 302.9 353.39L228.41 396.39C216.88 403.05 198.13 403.04 186.6 396.39L164.9 383.88C152.55 376.75 132.45 376.75 120.1 383.88L114.66 387C108.13 390.77 104.53 395.79 104.53 401.12C104.53 406.04 107.65 410.55 113.32 413.82L132.74 425.04L124.74 429.75C121.09 431.9 121.11 435.39 124.74 437.51L139.39 446C139.52 446.044 139.634 446.128 139.714 446.24C139.795 446.353 139.838 446.487 139.838 446.625C139.838 446.763 139.795 446.897 139.714 447.009C139.634 447.121 139.52 447.206 139.39 447.25L138.17 447.94C137.57 448.28 137.57 448.84 138.17 449.19L140.06 450.28C140.395 450.453 140.767 450.543 141.145 450.543C141.522 450.543 141.894 450.453 142.23 450.28L148.85 446.48C149.187 446.313 149.558 446.225 149.935 446.225C150.311 446.225 150.683 446.313 151.02 446.48L163.02 453.48C163.355 453.648 163.725 453.735 164.1 453.735C164.475 453.735 164.845 453.648 165.18 453.48L167.08 452.38C167.68 452.04 167.68 451.48 167.08 451.13L155.08 444.13C154.48 443.78 154.48 443.22 155.08 442.88L159.7 440.21C160.034 440.037 160.404 439.947 160.78 439.947C161.156 439.947 161.526 440.037 161.86 440.21L173.92 447.16C174.254 447.333 174.624 447.423 175 447.423C175.376 447.423 175.746 447.333 176.08 447.16L178 446C178.13 445.956 178.244 445.871 178.324 445.759C178.405 445.647 178.448 445.513 178.448 445.375C178.448 445.237 178.405 445.103 178.324 444.99C178.244 444.878 178.13 444.794 178 444.75L166 437.75C165.869 437.706 165.756 437.621 165.675 437.509C165.595 437.397 165.552 437.263 165.552 437.125C165.552 436.987 165.595 436.853 165.675 436.74C165.756 436.628 165.869 436.544 166 436.5L172 433.06C172.13 433.016 172.244 432.931 172.324 432.819C172.405 432.707 172.448 432.573 172.448 432.435C172.448 432.297 172.405 432.163 172.324 432.05C172.244 431.938 172.13 431.854 172 431.81L170.1 430.72C169.764 430.547 169.392 430.457 169.015 430.457C168.637 430.457 168.265 430.547 167.93 430.72L166.04 431.81C165.703 431.977 165.331 432.064 164.955 432.064C164.578 432.064 164.207 431.977 163.87 431.81L145.34 421.11C144.419 420.639 143.399 420.394 142.365 420.394C141.33 420.394 140.311 420.639 139.39 421.11L135.7 423.28C135.574 423.116 135.418 422.977 135.24 422.87L114.93 411.15C110.23 408.43 107.64 404.85 107.64 401.04C107.64 396.88 110.79 392.68 116.27 389.52L121.71 386.37C133.24 379.72 151.99 379.72 163.51 386.37L185.09 399C197.45 406.13 217.54 406.13 229.9 399L304.39 356C310.66 352.38 314.11 347.48 314.11 342.2C314.11 336.92 310.66 332 304.39 328.39Z" fill="#E0E0E0"/>
<path d="M406.43 389.36C406.04 370.07 413.61 352.64 420.09 344.06C426.57 335.48 437.44 327.06 445 329.46C452 331.66 451.53 340.83 443.23 347.13C434.93 353.43 422.42 361.39 419 372L410.62 391.48L406.43 389.36Z" fill="#92E3A9"/>
<path opacity="0.15" d="M406.43 389.36C406.04 370.07 413.61 352.64 420.09 344.06C426.57 335.48 437.44 327.06 445 329.46C452 331.66 451.53 340.83 443.23 347.13C434.93 353.43 422.42 361.39 419 372L410.62 391.48L406.43 389.36Z" fill="black"/>
<path d="M408.73 387.52C408.832 387.506 408.927 387.46 409.001 387.388C409.075 387.316 409.124 387.222 409.14 387.12C410.94 376.44 414.52 364.12 420.6 354.4C427.14 343.96 436.6 337.55 442.14 335.34C442.255 335.294 442.347 335.203 442.396 335.089C442.444 334.975 442.446 334.846 442.4 334.73C442.377 334.672 442.342 334.619 442.298 334.574C442.255 334.529 442.202 334.494 442.144 334.47C442.087 334.445 442.025 334.433 441.962 334.433C441.899 334.433 441.837 334.446 441.78 334.47C436.15 336.73 426.41 343.38 419.71 354.1C413.6 363.86 410.02 376.23 408.21 386.97C408.2 387.031 408.202 387.094 408.216 387.154C408.23 387.214 408.256 387.271 408.293 387.321C408.329 387.371 408.375 387.414 408.427 387.446C408.48 387.479 408.539 387.5 408.6 387.51L408.73 387.52Z" fill="white"/>
<path d="M413.4 393.55C414.34 389.89 418.62 383.77 425.66 378.62C433.45 372.93 443.43 370.14 445.66 365.81C448.31 360.61 443.86 355.89 435.73 357.12C427.6 358.35 412.37 370.07 409.24 391.12L413.4 393.55Z" fill="#92E3A9"/>
<path d="M411.72 389.78C411.811 389.771 411.897 389.736 411.968 389.679C412.039 389.623 412.092 389.546 412.12 389.46C418.37 370.37 432.61 363.34 439.27 362.29C439.331 362.28 439.39 362.258 439.442 362.226C439.495 362.193 439.541 362.151 439.577 362.101C439.613 362.051 439.639 361.994 439.653 361.934C439.668 361.873 439.67 361.811 439.66 361.75C439.65 361.689 439.629 361.63 439.596 361.578C439.564 361.525 439.521 361.479 439.471 361.443C439.421 361.407 439.364 361.381 439.304 361.367C439.244 361.352 439.181 361.35 439.12 361.36C431.76 362.52 417.6 369.68 411.22 389.16C411.182 389.279 411.192 389.409 411.248 389.521C411.304 389.633 411.402 389.719 411.52 389.76C411.585 389.781 411.653 389.788 411.72 389.78Z" fill="white"/>
<path d="M134.38 421.11C134.117 421.109 133.858 421.04 133.63 420.91L113.32 409.18C107.65 405.91 104.53 401.4 104.53 396.48C104.53 391.14 108.13 386.13 114.66 382.36L120.1 379.21C132.45 372.08 152.55 372.08 164.9 379.21L186.59 391.74C198.12 398.39 216.87 398.39 228.4 391.74L302.89 348.74C308.19 345.68 311.11 341.74 311.11 337.53C311.11 333.32 308.19 329.39 302.89 326.33L297.45 323.19C285.92 316.54 267.77 316.19 256.99 322.42L236.68 334.14C236.335 334.339 235.925 334.393 235.541 334.289C235.156 334.186 234.829 333.935 234.63 333.59C234.431 333.245 234.377 332.835 234.48 332.451C234.583 332.066 234.835 331.739 235.18 331.54L255.49 319.82C267.1 313.11 286.6 313.46 298.95 320.59L304.39 323.74C310.66 327.35 314.11 332.25 314.11 337.53C314.11 342.81 310.66 347.72 304.39 351.33L229.9 394.33C217.54 401.47 197.45 401.47 185.09 394.33L163.4 381.81C151.88 375.16 133.13 375.16 121.6 381.81L116.16 385C110.68 388.17 107.53 392.37 107.53 396.53C107.53 400.33 110.12 403.92 114.82 406.63L135.13 418.36C135.416 418.525 135.64 418.78 135.767 419.085C135.894 419.39 135.916 419.729 135.83 420.048C135.745 420.367 135.556 420.649 135.294 420.85C135.032 421.051 134.71 421.16 134.38 421.16V421.11Z" fill="#37474F"/>
<path d="M121.76 424.36V426.09C121.843 427.592 122.278 429.054 123.03 430.356C123.782 431.659 124.83 432.767 126.09 433.59L142.09 442.81L158.33 433.43V419.36L142.55 412.08C141.127 411.515 139.601 411.258 138.072 411.327C136.543 411.396 135.046 411.789 133.68 412.48L126.09 416.86C124.83 417.682 123.781 418.79 123.029 420.093C122.277 421.396 121.842 422.858 121.76 424.36Z" fill="#37474F"/>
<path d="M142.55 412.08C141.127 411.515 139.601 411.258 138.072 411.327C136.543 411.396 135.046 411.789 133.68 412.48L126.09 416.86C123.7 418.24 123.8 420.3 126.3 421.46L142.07 428.74L158.33 419.36L142.55 412.08Z" fill="#455A64"/>
<path opacity="0.1" d="M140.54 425.35C139.91 425.761 139.387 426.315 139.011 426.967C138.636 427.618 138.42 428.349 138.38 429.1V440.68L142.08 442.81L158.32 433.43V419.36L154.2 417.46L140.54 425.35Z" fill="black"/>
<path d="M159.71 416.94C159.465 416.829 159.196 416.785 158.93 416.812C158.663 416.838 158.408 416.934 158.19 417.09L142.19 426.32C141.558 426.73 141.033 427.283 140.655 427.935C140.278 428.587 140.061 429.318 140.02 430.07V443.83C139.991 444.099 140.035 444.371 140.148 444.618C140.261 444.864 140.437 445.075 140.66 445.23L142.66 446.4C142.905 446.515 143.176 446.562 143.445 446.536C143.715 446.509 143.972 446.411 144.19 446.25L160.19 437.03C160.818 436.618 161.341 436.063 161.716 435.412C162.091 434.761 162.308 434.03 162.35 433.28V419.51C162.376 419.242 162.332 418.971 162.222 418.726C162.111 418.48 161.938 418.268 161.72 418.11L159.71 416.94Z" fill="#37474F"/>
<path d="M144.24 427.49L160.24 418.26C161.43 417.57 162.4 418.13 162.4 419.51V433.28C162.359 434.03 162.142 434.761 161.766 435.412C161.391 436.063 160.868 436.617 160.24 437.03L144.24 446.25C143.04 446.94 142.07 446.38 142.07 445V431.24C142.111 430.488 142.328 429.756 142.706 429.105C143.083 428.453 143.608 427.9 144.24 427.49Z" fill="#455A64"/>
<path d="M160.79 437.89L147.57 430.26L146.14 431.09V440.47L159.35 448.1C159.658 448.321 160.02 448.456 160.398 448.491C160.775 448.526 161.156 448.46 161.5 448.3L162.94 447.47C163.256 447.249 163.505 446.946 163.66 446.593C163.815 446.24 163.871 445.852 163.82 445.47V443.09C163.756 442.047 163.449 441.033 162.922 440.13C162.396 439.227 161.666 438.46 160.79 437.89ZM158.36 440.4C158.945 440.787 159.431 441.306 159.779 441.916C160.126 442.526 160.325 443.209 160.36 443.91C160.359 444.099 160.335 444.287 160.29 444.47C160.109 444.42 159.934 444.349 159.77 444.26C159.185 443.869 158.7 443.348 158.352 442.737C158.005 442.126 157.806 441.442 157.77 440.74C157.771 440.548 157.794 440.356 157.84 440.17C158.022 440.223 158.197 440.3 158.36 440.4Z" fill="#92E3A9"/>
<path opacity="0.85" d="M160.79 437.89L147.57 430.26L146.14 431.09L159.35 438.72C160.227 439.298 160.955 440.074 161.477 440.986C161.998 441.899 162.297 442.921 162.35 443.97V446.35C162.394 446.739 162.329 447.132 162.161 447.486C161.993 447.839 161.729 448.139 161.4 448.35H161.47L162.91 447.51C163.227 447.29 163.477 446.987 163.632 446.634C163.787 446.281 163.842 445.892 163.79 445.51V443.13C163.733 442.083 163.432 441.064 162.911 440.154C162.39 439.244 161.664 438.469 160.79 437.89Z" fill="white"/>
<path d="M163.82 443.14V445.52C163.872 445.902 163.817 446.291 163.662 446.644C163.507 446.997 163.257 447.3 162.94 447.52L161.5 448.36H161.44C161.768 448.148 162.03 447.848 162.196 447.494C162.362 447.141 162.426 446.748 162.38 446.36V444C162.344 442.94 162.038 441.908 161.49 441L162.93 440.17C163.474 441.068 163.78 442.09 163.82 443.14Z" fill="#92E3A9"/>
<path opacity="0.6" d="M163.82 443.14V445.52C163.872 445.902 163.817 446.291 163.662 446.644C163.507 446.997 163.257 447.3 162.94 447.52L161.5 448.36H161.44C161.768 448.148 162.03 447.848 162.196 447.494C162.362 447.141 162.426 446.748 162.38 446.36V444C162.344 442.94 162.038 441.908 161.49 441L162.93 440.17C163.474 441.068 163.78 442.09 163.82 443.14Z" fill="white"/>
<path opacity="0.05" d="M163.82 443.14V445.52C163.872 445.902 163.817 446.291 163.662 446.644C163.507 446.997 163.257 447.3 162.94 447.52L161.5 448.36H161.44C161.768 448.148 162.03 447.848 162.196 447.494C162.362 447.141 162.426 446.748 162.38 446.36V444C162.344 442.94 162.038 441.908 161.49 441L162.93 440.17C163.474 441.068 163.78 442.09 163.82 443.14Z" fill="black"/>
<path opacity="0.6" d="M157.77 440.74C157.77 440.548 157.794 440.356 157.84 440.17C156.97 439.93 156.33 440.48 156.33 441.57C156.364 442.272 156.563 442.957 156.91 443.568C157.258 444.179 157.744 444.701 158.33 445.09C159.27 445.64 160.07 445.35 160.33 444.47C160.146 444.429 159.97 444.358 159.81 444.26C159.216 443.875 158.723 443.356 158.368 442.744C158.014 442.132 157.808 441.446 157.77 440.74Z" fill="white"/>
<path opacity="0.1" d="M157.77 440.74C157.77 440.548 157.794 440.356 157.84 440.17C156.97 439.93 156.33 440.48 156.33 441.57C156.364 442.272 156.563 442.957 156.91 443.568C157.258 444.179 157.744 444.701 158.33 445.09C159.27 445.64 160.07 445.35 160.33 444.47C160.146 444.429 159.97 444.358 159.81 444.26C159.216 443.875 158.723 443.356 158.368 442.744C158.014 442.132 157.808 441.446 157.77 440.74Z" fill="black"/>
<path opacity="0.7" d="M159.35 438.72L146.14 431.09V440.47L159.35 448.1C161.03 449.1 162.35 448.28 162.35 446.35V444C162.304 442.945 162.008 441.916 161.486 440.998C160.965 440.08 160.232 439.299 159.35 438.72ZM158.35 445.09C157.765 444.7 157.28 444.178 156.932 443.567C156.585 442.956 156.386 442.272 156.35 441.57C156.35 440.27 157.26 439.75 158.35 440.4C158.935 440.787 159.421 441.306 159.769 441.916C160.116 442.526 160.315 443.209 160.35 443.91C160.39 445.21 159.48 445.73 158.36 445.09H158.35Z" fill="white"/>
<path d="M171.54 431.68L158.33 424.05L156.89 424.88V434.26L170.1 441.89C170.406 442.114 170.768 442.252 171.146 442.289C171.524 442.326 171.905 442.261 172.25 442.1L173.69 441.26C173.998 441.044 174.243 440.749 174.398 440.406C174.553 440.063 174.612 439.684 174.57 439.31V436.93C174.514 435.878 174.21 434.854 173.683 433.942C173.157 433.03 172.422 432.255 171.54 431.68ZM169.11 434.19C169.696 434.578 170.183 435.099 170.531 435.71C170.879 436.322 171.077 437.007 171.11 437.71C171.109 437.895 171.086 438.08 171.04 438.26C170.856 438.219 170.68 438.148 170.52 438.05C169.934 437.661 169.448 437.139 169.1 436.528C168.753 435.917 168.554 435.232 168.52 434.53C168.52 434.341 168.544 434.153 168.59 433.97C168.772 434.019 168.947 434.093 169.11 434.19Z" fill="#92E3A9"/>
<path opacity="0.85" d="M171.54 431.68L158.32 424.05L156.89 424.88L170.1 432.51C170.977 433.088 171.705 433.864 172.227 434.777C172.748 435.689 173.047 436.711 173.1 437.76V440.14C173.144 440.529 173.079 440.922 172.911 441.276C172.743 441.63 172.479 441.929 172.15 442.14H172.22L173.66 441.3C173.968 441.084 174.213 440.789 174.368 440.446C174.523 440.103 174.582 439.724 174.54 439.35V436.97C174.491 435.914 174.194 434.885 173.672 433.966C173.151 433.047 172.42 432.264 171.54 431.68Z" fill="white"/>
<path d="M174.57 436.93V439.31C174.613 439.684 174.553 440.063 174.398 440.406C174.243 440.749 173.999 441.044 173.69 441.26L172.25 442.1H172.19C172.518 441.888 172.78 441.588 172.946 441.234C173.112 440.881 173.176 440.488 173.13 440.1V437.72C173.094 436.66 172.788 435.628 172.24 434.72L173.68 433.89C174.236 434.809 174.542 435.856 174.57 436.93Z" fill="#92E3A9"/>
<path opacity="0.6" d="M174.57 436.93V439.31C174.613 439.684 174.553 440.063 174.398 440.406C174.243 440.749 173.999 441.044 173.69 441.26L172.25 442.1H172.19C172.518 441.888 172.78 441.588 172.946 441.234C173.112 440.881 173.176 440.488 173.13 440.1V437.72C173.094 436.66 172.788 435.628 172.24 434.72L173.68 433.89C174.236 434.809 174.542 435.856 174.57 436.93Z" fill="white"/>
<path opacity="0.05" d="M174.57 436.93V439.31C174.613 439.684 174.553 440.063 174.398 440.406C174.243 440.749 173.999 441.044 173.69 441.26L172.25 442.1H172.19C172.518 441.888 172.78 441.588 172.946 441.234C173.112 440.881 173.176 440.488 173.13 440.1V437.72C173.094 436.66 172.788 435.628 172.24 434.72L173.68 433.89C174.236 434.809 174.542 435.856 174.57 436.93Z" fill="black"/>
<path opacity="0.6" d="M168.52 434.53C168.52 434.341 168.543 434.153 168.59 433.97C167.73 433.73 167.08 434.27 167.08 435.36C167.114 436.062 167.313 436.747 167.66 437.358C168.008 437.969 168.494 438.491 169.08 438.88C170.02 439.43 170.82 439.14 171.08 438.26C170.896 438.219 170.72 438.148 170.56 438.05C169.966 437.665 169.473 437.146 169.118 436.534C168.764 435.922 168.558 435.236 168.52 434.53Z" fill="white"/>
<path opacity="0.1" d="M168.52 434.53C168.52 434.341 168.543 434.153 168.59 433.97C167.73 433.73 167.08 434.27 167.08 435.36C167.114 436.062 167.313 436.747 167.66 437.358C168.008 437.969 168.494 438.491 169.08 438.88C170.02 439.43 170.82 439.14 171.08 438.26C170.896 438.219 170.72 438.148 170.56 438.05C169.966 437.665 169.473 437.146 169.118 436.534C168.764 435.922 168.558 435.236 168.52 434.53Z" fill="black"/>
<path opacity="0.7" d="M170.11 432.51L156.89 424.88V434.26L170.1 441.89C171.78 442.89 173.1 442.08 173.1 440.14V437.76C173.046 436.712 172.747 435.692 172.228 434.78C171.709 433.868 170.983 433.091 170.11 432.51ZM169.11 438.88C168.524 438.491 168.038 437.969 167.69 437.358C167.343 436.747 167.144 436.062 167.11 435.36C167.11 434.07 168.02 433.54 169.11 434.19C169.696 434.578 170.183 435.099 170.531 435.71C170.879 436.322 171.077 437.007 171.11 437.71C171.14 439 170.23 439.53 169.11 438.88Z" fill="white"/>
<path d="M217.05 379.14L254.65 357.39C258.53 355.16 260.47 352.22 260.47 349.29C260.47 346.36 260.47 344.06 260.47 344.06L221.47 322.06C220.379 321.349 219.471 320.391 218.82 319.263C218.168 318.135 217.791 316.87 217.72 315.57V269.21L152.04 307.21V353.58C152.109 354.878 152.483 356.142 153.133 357.268C153.783 358.394 154.69 359.351 155.78 360.06L189 379.14C196.73 383.61 209.3 383.61 217.05 379.14Z" fill="#92E3A9"/>
<g opacity="0.6">
<path d="M217.05 379.14L254.65 357.39C258.53 355.16 260.47 352.22 260.47 349.29C260.47 346.36 260.47 344.06 260.47 344.06L221.47 322.06C220.379 321.349 219.471 320.391 218.82 319.263C218.168 318.135 217.791 316.87 217.72 315.57V269.21L152.04 307.21V353.58C152.109 354.878 152.483 356.142 153.133 357.268C153.783 358.394 154.69 359.351 155.78 360.06L189 379.14C196.73 383.61 209.3 383.61 217.05 379.14Z" fill="black"/>
</g>
<path opacity="0.3" d="M167.81 361.74V367L155.81 360.06C154.723 359.348 153.818 358.391 153.168 357.265C152.519 356.14 152.142 354.877 152.07 353.58V307.17L164.55 300C164.8 303.17 165.09 306.46 165.35 309.66L156.57 314.74V350.96C156.634 352.26 157.006 353.525 157.657 354.652C158.307 355.779 159.217 356.735 160.31 357.44L167.81 361.74Z" fill="black"/>
<path d="M156.57 350.92C156.638 352.218 157.013 353.482 157.663 354.608C158.313 355.734 159.22 356.691 160.31 357.4L189 373.91C196.75 378.38 209.32 378.39 217.08 373.91L254.7 352.17C262.45 347.7 262.45 340.44 254.7 335.96L226 319.45C224.91 318.738 224.004 317.78 223.354 316.652C222.704 315.524 222.329 314.26 222.26 312.96V276.73L156.58 314.73L156.57 350.92Z" fill="#92E3A9"/>
<path opacity="0.3" d="M156.57 350.92C156.638 352.218 157.013 353.482 157.663 354.608C158.313 355.734 159.22 356.691 160.31 357.4L189 373.91C196.75 378.38 209.32 378.39 217.08 373.91L254.7 352.17C262.45 347.7 262.45 340.44 254.7 335.96L226 319.45C224.91 318.738 224.004 317.78 223.354 316.652C222.704 315.524 222.329 314.26 222.26 312.96V276.73L156.58 314.73L156.57 350.92Z" fill="black"/>
<path opacity="0.5" d="M233.62 323.85L226 319.45C224.91 318.738 224.004 317.78 223.354 316.652C222.704 315.524 222.33 314.26 222.26 312.96V276.73L156.58 314.73V350.96C156.649 352.258 157.023 353.522 157.673 354.648C158.323 355.774 159.23 356.731 160.32 357.44L167.82 361.77L233.62 323.85Z" fill="black"/>
<path d="M260.48 344.06V349.29C260.48 352.23 258.48 355.15 254.66 357.4L217.05 379.13C212.929 381.335 208.324 382.479 203.65 382.46V377.25C208.324 377.269 212.929 376.125 217.05 373.92L254.66 352.17C258.53 349.94 260.48 347 260.48 344.06Z" fill="#92E3A9"/>
<path opacity="0.5" d="M260.48 344.06V349.29C260.48 352.23 258.48 355.15 254.66 357.4L217.05 379.13C212.929 381.335 208.324 382.479 203.65 382.46V377.25C208.324 377.269 212.929 376.125 217.05 373.92L254.66 352.17C258.53 349.94 260.48 347 260.48 344.06Z" fill="black"/>
<path d="M51.0997 396C52.5179 396.689 54.0788 397.032 55.6551 397.003C57.2314 396.973 58.7783 396.571 60.1697 395.83L314.17 249.17C316.75 247.68 318.84 244.05 318.84 245.07V13.7199C318.84 6.71994 316.84 3.17995 314.45 1.77995C313.033 1.09296 311.474 0.750295 309.899 0.779836C308.325 0.809378 306.78 1.21029 305.39 1.94995L51.3997 148.61C50.0368 149.496 48.9025 150.692 48.0892 152.099C47.2759 153.507 46.8067 155.087 46.7197 156.71V388C46.7632 389.585 47.183 391.137 47.9446 392.528C48.7061 393.919 49.7876 395.109 51.0997 396Z" fill="#92E3A9"/>
<path d="M60.1697 395.78L314.17 249.12C316.75 247.63 318.85 244 318.85 245.01V13.7099C318.85 6.7099 316.75 5.51991 314.17 7.00991L60.1697 153.67C58.8068 154.556 57.6725 155.752 56.8592 157.159C56.046 158.567 55.5767 160.147 55.4897 161.77V393.07C55.4897 396.06 57.5897 397.27 60.1697 395.78Z" fill="#92E3A9"/>
<path opacity="0.5" d="M60.1697 395.78L314.17 249.12C316.75 247.63 318.85 244 318.85 245.01V13.7099C318.85 6.7099 316.75 5.51991 314.17 7.00991L60.1697 153.67C58.8068 154.556 57.6725 155.752 56.8592 157.159C56.046 158.567 55.5767 160.147 55.4897 161.77V393.07C55.4897 396.06 57.5897 397.27 60.1697 395.78Z" fill="black"/>
<path d="M59.48 401.12C58.1518 401.692 56.7162 401.972 55.2704 401.941C53.8245 401.91 52.4023 401.569 51.1 400.94C49.7941 400.056 48.7156 398.876 47.9527 397.497C47.1897 396.117 46.7639 394.576 46.71 393V378.28L55.49 383.36V398.07C55.49 400.79 57.22 402 59.48 401.12Z" fill="#92E3A9"/>
<path opacity="0.5" d="M59.48 401.12C58.1518 401.692 56.7162 401.972 55.2704 401.941C53.8245 401.91 52.4023 401.569 51.1 400.94C49.7941 400.056 48.7156 398.876 47.9527 397.497C47.1897 396.117 46.7639 394.576 46.71 393V378.28L55.49 383.36V398.07C55.49 400.79 57.22 402 59.48 401.12Z" fill="black"/>
<path d="M55.4897 383.36V398.06C55.4897 401.06 57.5897 402.26 60.1697 400.76L314.17 254.11C315.532 253.221 316.666 252.024 317.479 250.615C318.292 249.205 318.762 247.625 318.85 246V231.26L55.4897 383.36Z" fill="#92E3A9"/>
<path opacity="0.3" d="M55.4897 383.32V398.06C55.4897 401.06 57.5897 402.26 60.1697 400.76L314.17 254.11C315.532 253.221 316.666 252.024 317.479 250.615C318.292 249.205 318.762 247.625 318.85 246V231.26L55.4897 383.32Z" fill="black"/>
<path d="M64.27 364.88V164.69C64.3239 163.715 64.6063 162.766 65.0944 161.92C65.5825 161.074 66.2627 160.355 67.08 159.82L307.28 21.1399C308.83 20.2499 310.09 20.9699 310.09 22.7599V223C310.036 223.974 309.754 224.921 309.266 225.766C308.777 226.61 308.097 227.327 307.28 227.86L67.08 366.51C65.53 367.4 64.27 366.67 64.27 364.88Z" fill="#92E3A9"/>
<path d="M64.27 364.88V164.69C64.3239 163.715 64.6063 162.766 65.0944 161.92C65.5825 161.074 66.2627 160.355 67.08 159.82L307.28 21.1399C308.83 20.2499 310.09 20.9699 310.09 22.7599V223C310.036 223.974 309.754 224.921 309.266 225.766C308.777 226.61 308.097 227.327 307.28 227.86L67.08 366.51C65.53 367.4 64.27 366.67 64.27 364.88Z" fill="#263238"/>
<path opacity="0.7" d="M56.87 157.14C56.0385 158.547 55.5646 160.137 55.49 161.77V383.36L46.71 378.28V156.71C46.7703 155.079 47.2416 153.49 48.08 152.09L56.87 157.14Z" fill="black"/>
<path opacity="0.3" d="M318.83 8.93997C318.5 6.52997 316.55 5.65997 314.19 7.00997L60.1901 153.67C58.8069 154.527 57.6672 155.726 56.8801 157.15L48.1001 152.08C48.8929 150.66 50.0314 149.463 51.4101 148.6L305.42 1.99997C306.811 1.25868 308.358 0.856862 309.935 0.827318C311.511 0.797774 313.072 1.14134 314.49 1.82997C315.677 2.63832 316.679 3.69064 317.427 4.91671C318.176 6.14278 318.654 7.51438 318.83 8.93997Z" fill="black"/>
<path d="M88.4 377.08C87.8434 377.409 87.2154 377.597 86.57 377.63C85.6496 377.75 84.7144 377.586 83.89 377.16C83.2358 376.714 82.697 376.118 82.318 375.423C81.9389 374.727 81.7306 373.952 81.71 373.16V191.56L86.1 194.09V375.73C86.1 376.79 86.63 377.4 87.39 377.4C87.7465 377.371 88.0918 377.262 88.4 377.08Z" fill="#F0F0F0"/>
<path d="M329.83 235C329.781 235.803 329.545 236.582 329.14 237.277C328.736 237.972 328.174 238.562 327.5 239L88.3996 377.08C87.1196 377.82 86.0796 377.22 86.0796 375.73V179L92.4896 175.3C93.7696 174.56 95.8596 163.3 97.1496 162.51L152.75 130.41C154.04 129.67 157.07 138.02 158.35 137.27L329.83 38.27V235Z" fill="#FAFAFA"/>
<path d="M328.75 40.1V235C328.705 235.618 328.521 236.219 328.211 236.756C327.901 237.293 327.473 237.752 326.96 238.1L87.8596 376.15C87.7116 376.244 87.5439 376.302 87.3696 376.32C87.1496 376.32 87.1496 375.76 87.1496 375.73V179.61L93.0296 176.21C93.9596 175.67 94.5396 173.86 95.8496 169.21C96.3171 167.217 96.9596 165.27 97.7696 163.39L152.87 131.58C153.523 132.464 154.108 133.397 154.62 134.37C156.12 137.01 156.96 138.37 158.18 138.37C158.43 138.37 158.676 138.301 158.89 138.17L328.75 40.1ZM329.83 38.24L158.35 137.24C158.298 137.271 158.24 137.289 158.18 137.29C156.88 137.29 154.18 130.29 152.92 130.29C152.864 130.275 152.805 130.275 152.75 130.29L97.1496 162.39C95.8596 163.14 93.7696 174.39 92.4896 175.18L86.0796 179V375.73C86.0796 376.79 86.5996 377.4 87.3696 377.4C87.7255 377.384 88.0707 377.274 88.3696 377.08L327.5 239C328.174 238.562 328.736 237.972 329.14 237.277C329.545 236.582 329.781 235.802 329.83 235V38.24Z" fill="#E0E0E0"/>
<path d="M83.8897 186.15C83.2337 185.705 82.6929 185.11 82.3121 184.414C81.9313 183.719 81.7214 182.943 81.6997 182.15V164C81.7456 163.2 81.9774 162.422 82.3767 161.728C82.7759 161.034 83.3317 160.442 83.9997 160L323.1 22.0001C323.772 21.5737 324.549 21.3398 325.346 21.3236C326.142 21.3075 326.927 21.5099 327.617 21.9087C328.306 22.3076 328.873 22.8877 329.256 23.586C329.64 24.2844 329.824 25.0743 329.79 25.8701V44.0001C329.743 44.803 329.507 45.5835 329.103 46.2785C328.698 46.9734 328.135 47.5632 327.46 48.0001L88.3997 186.07C87.7068 186.436 86.9376 186.634 86.1542 186.648C85.3708 186.661 84.5951 186.491 83.8897 186.15Z" fill="#92E3A9"/>
<path opacity="0.4" d="M329.8 25.41C329.64 24.2 328.66 23.76 327.5 24.41L88.3999 162.49C87.7175 162.933 87.1516 163.533 86.7499 164.24L82.3799 161.71C82.7715 161.016 83.3278 160.429 83.9999 160L323.1 22C323.744 21.5895 324.485 21.3561 325.248 21.3234C326.011 21.2908 326.769 21.46 327.445 21.814C328.122 22.1681 328.693 22.6944 329.101 23.3398C329.509 23.9853 329.74 24.727 329.77 25.4901L329.8 25.41Z" fill="white"/>
<path opacity="0.1" d="M86.7498 164.24C86.334 164.933 86.1033 165.722 86.0798 166.53V194.14L81.6898 191.61V164C81.6848 163.907 81.6848 163.813 81.6898 163.72C81.7077 163.525 81.7377 163.331 81.7798 163.14C81.9049 162.635 82.1002 162.151 82.3598 161.7L86.7498 164.24Z" fill="black"/>
<path d="M329.82 25.7801V38.2401L158.34 137.24C157.06 137.99 156.02 137.38 156.02 135.9V131.18C156.02 129.7 155.02 129.09 153.68 129.84L97.1396 162.48C96.466 162.919 95.9044 163.509 95.4998 164.204C95.0952 164.898 94.8588 165.678 94.8096 166.48V171.19C94.7588 171.992 94.5217 172.771 94.1173 173.465C93.7128 174.16 93.1521 174.75 92.4796 175.19L86.0796 179V166.53C86.1293 165.729 86.3648 164.951 86.7675 164.256C87.1701 163.562 87.7289 162.971 88.3996 162.53L327.5 24.5301C328.78 23.6901 329.82 24.3001 329.82 25.7801Z" fill="#92E3A9"/>
<path d="M318.9 33.5901C320.52 32.6601 321.83 33.4201 321.83 35.2901C321.775 36.3074 321.48 37.2974 320.971 38.1799C320.462 39.0624 319.753 39.8127 318.9 40.3701C317.28 41.3001 315.96 40.5401 315.96 38.6701C316.017 37.6521 316.313 36.6618 316.824 35.7794C317.335 34.8969 318.046 34.1469 318.9 33.5901Z" fill="white"/>
<path d="M308.34 39.68C309.96 38.75 311.27 39.5 311.27 41.37C311.216 42.3877 310.922 43.3783 310.413 44.2611C309.904 45.1438 309.194 45.8939 308.34 46.45C306.72 47.39 305.41 46.63 305.41 44.76C305.465 43.7427 305.759 42.7527 306.268 41.8702C306.777 40.9877 307.487 40.2374 308.34 39.68Z" fill="white"/>
<path d="M297.78 45.7701C299.4 44.8301 300.71 45.5901 300.71 47.4601C300.654 48.4774 300.36 49.4674 299.851 50.3499C299.342 51.2325 298.632 51.9828 297.78 52.5401C296.16 53.4701 294.85 52.7201 294.85 50.8501C294.903 49.8324 295.197 48.8419 295.706 47.9591C296.215 47.0763 296.926 46.3263 297.78 45.7701Z" fill="white"/>
<path d="M329.83 38.24V53.39L86.0796 194.14V179L90.8696 176.23C92.1496 175.49 92.5796 174.36 93.1896 172.23L94.8196 166.59C95.3296 164.59 95.8196 163.3 97.1496 162.59L152.75 130.49C154.04 129.75 155.05 129.67 156.03 131.29L158.03 134.91C158.76 136.17 159.13 136.91 160.41 136.17L329.83 38.24Z" fill="#E6E6E6"/>
<path d="M86.0799 178.98V194.14L81.6899 191.61V176.47L86.0799 178.98Z" fill="#E0E0E0"/>
<path opacity="0.5" d="M96.7695 180.08L93.1095 182.19L94.4995 179.51C94.5556 179.409 94.585 179.296 94.585 179.18C94.585 179.065 94.5556 178.951 94.4995 178.85C94.3895 178.72 94.2095 178.85 94.0795 179.05L92.0795 182.86C92.0795 182.86 92.0795 182.95 92.0295 183C92.0246 183.063 92.0246 183.127 92.0295 183.19C92.0228 183.247 92.0228 183.304 92.0295 183.36C92.0439 183.388 92.0607 183.415 92.0795 183.44L94.0795 184.96C94.1079 184.983 94.1432 184.995 94.1795 184.995C94.2159 184.995 94.2512 184.983 94.2795 184.96C94.3819 184.894 94.4593 184.795 94.4995 184.68C94.6095 184.43 94.5895 184.15 94.4995 184.06L93.1095 182.98L96.7695 180.87C96.8624 180.796 96.9369 180.702 96.9872 180.594C97.0375 180.487 97.0623 180.369 97.0595 180.25C97.0595 180.11 96.9295 180 96.7695 180.08Z" fill="#455A64"/>
<path opacity="0.5" d="M99.8198 178.31L103.48 176.2L102.08 175.13C102.02 175.036 101.989 174.926 101.989 174.815C101.989 174.703 102.02 174.594 102.08 174.5C102.18 174.25 102.37 174.13 102.49 174.22L104.49 175.75C104.517 175.77 104.538 175.798 104.55 175.83C104.56 175.886 104.56 175.944 104.55 176C104.56 176.066 104.56 176.134 104.55 176.2L104.49 176.35L102.49 180.17C102.451 180.262 102.385 180.339 102.3 180.39C102.27 180.418 102.231 180.434 102.19 180.434C102.149 180.434 102.11 180.418 102.08 180.39C102.023 180.291 101.993 180.179 101.993 180.065C101.993 179.951 102.023 179.839 102.08 179.74L103.48 177.06L99.8198 179.17C99.6598 179.26 99.5298 179.17 99.5298 178.89C99.5343 178.778 99.5625 178.669 99.6125 178.569C99.6625 178.469 99.7332 178.381 99.8198 178.31Z" fill="#455A64"/>
<path opacity="0.5" d="M111.82 167.78C111.82 167.56 111.61 167.58 111.51 167.78L111.01 169.01C110.15 168.92 109.12 169.75 108.42 171.23C107.51 173.15 107.51 175.42 108.42 176.29C108.639 176.495 108.923 176.617 109.222 176.635C109.521 176.653 109.817 176.567 110.06 176.39C110.792 175.897 111.365 175.202 111.71 174.39C111.765 174.293 111.794 174.182 111.794 174.07C111.794 173.958 111.765 173.848 111.71 173.75C111.59 173.64 111.41 173.75 111.29 173.99C110.61 175.42 109.51 176.06 108.84 175.41C108.17 174.76 108.16 173.06 108.84 171.63C109.32 170.63 110.01 170.01 110.61 169.97L110.24 170.9C110.14 171.14 110.24 171.36 110.38 171.26L111.87 170.26C111.931 170.215 111.979 170.154 112.009 170.083C112.039 170.013 112.05 169.936 112.04 169.86L111.82 167.78Z" fill="#455A64"/>
<path opacity="0.5" d="M151.14 137.31L152.48 134.49C152.555 134.356 152.595 134.204 152.595 134.05C152.595 133.896 152.555 133.744 152.48 133.61C152.32 133.46 152.06 133.61 151.91 133.94L150.57 136.76L149.24 135.48C149.08 135.33 148.83 135.48 148.67 135.81C148.589 135.943 148.547 136.095 148.547 136.25C148.547 136.405 148.589 136.557 148.67 136.69L150 138L148.67 140.82C148.589 140.953 148.547 141.105 148.547 141.26C148.547 141.415 148.589 141.567 148.67 141.7C148.708 141.734 148.758 141.754 148.81 141.754C148.861 141.754 148.911 141.734 148.95 141.7C149.08 141.616 149.181 141.494 149.24 141.35L150.57 138.53L151.91 139.81C151.948 139.844 151.998 139.864 152.05 139.864C152.101 139.864 152.151 139.844 152.19 139.81C152.32 139.726 152.421 139.604 152.48 139.46C152.555 139.326 152.595 139.174 152.595 139.02C152.595 138.866 152.555 138.714 152.48 138.58L151.14 137.31Z" fill="#455A64"/>
<path d="M116.68 171.25V166.53C116.728 165.728 116.964 164.948 117.369 164.253C117.774 163.558 118.336 162.968 119.01 162.53L314.38 49.74C315.67 48.99 316.71 49.6 316.71 51.08V55.8C316.661 56.6025 316.425 57.3825 316.02 58.0772C315.616 58.7719 315.054 59.362 314.38 59.8L119 172.59C117.72 173.34 116.68 172.73 116.68 171.25Z" fill="#FAFAFA"/>
<path d="M311.21 60.2C311.14 60.2114 311.069 60.2114 311 60.2C310.869 60.1395 310.763 60.0361 310.699 59.9069C310.636 59.7777 310.618 59.6306 310.65 59.49L310.88 57.5801L309.98 56.9301C309.902 56.8685 309.839 56.7893 309.797 56.6989C309.756 56.6085 309.736 56.5095 309.74 56.4101C309.736 56.2548 309.768 56.1008 309.834 55.9602C309.9 55.8196 309.998 55.6963 310.12 55.6L311.49 54.5401C311.517 54.5077 311.537 54.4703 311.55 54.4301L312.16 52.4301C312.197 52.2654 312.283 52.1157 312.406 51.9999C312.529 51.8842 312.683 51.8076 312.85 51.78C312.962 51.7673 313.076 51.7916 313.173 51.8494C313.271 51.9071 313.347 51.9952 313.39 52.1L313.9 53.1901L315.06 52.7501C315.163 52.704 315.278 52.6928 315.388 52.718C315.498 52.7433 315.597 52.8037 315.67 52.8901C315.765 53.0284 315.816 53.1922 315.816 53.3601C315.816 53.5279 315.765 53.6917 315.67 53.8301L314.67 55.6901C314.665 55.7266 314.665 55.7635 314.67 55.8001L314.91 57.4801C314.928 57.6337 314.911 57.7896 314.859 57.9354C314.807 58.0811 314.721 58.2128 314.61 58.3201C314.544 58.3971 314.461 58.4566 314.366 58.4933C314.272 58.5299 314.17 58.5426 314.07 58.53L313 58.3601L311.79 59.9001C311.725 59.9941 311.639 60.0707 311.537 60.123C311.436 60.1754 311.324 60.2018 311.21 60.2ZM310.55 56.3001L311.45 56.95C311.543 57.026 311.614 57.1253 311.656 57.2377C311.698 57.3501 311.71 57.4717 311.69 57.59L311.53 58.8701L312.34 57.8701C312.409 57.7715 312.502 57.6923 312.611 57.6398C312.719 57.5874 312.839 57.5633 312.96 57.5701L314.08 57.7101C314.087 57.667 314.087 57.6231 314.08 57.5801L313.84 55.9001C313.821 55.6927 313.863 55.4843 313.96 55.3001L314.83 53.67L314 54.0001C313.868 54.0543 313.721 54.0555 313.588 54.0032C313.456 53.951 313.349 53.8495 313.29 53.7201L312.89 52.8601L312.34 54.6501C312.283 54.8515 312.164 55.0298 312 55.1601L310.63 56.1601C310.59 56.1982 310.563 56.2468 310.55 56.3001Z" fill="#E0E0E0"/>
<g opacity="0.5">
<path d="M319.46 49.16C319.281 49.1652 319.105 49.11 318.961 49.0032C318.816 48.8965 318.712 48.7443 318.665 48.5713C318.618 48.3982 318.63 48.2143 318.7 48.049C318.77 47.8837 318.893 47.7467 319.05 47.66L325.61 43.87C325.702 43.8095 325.806 43.7685 325.914 43.7494C326.023 43.7303 326.134 43.7336 326.241 43.759C326.349 43.7844 326.449 43.8315 326.538 43.8972C326.626 43.963 326.7 44.0461 326.756 44.1415C326.811 44.2369 326.846 44.3426 326.859 44.452C326.872 44.5615 326.862 44.6724 326.831 44.778C326.799 44.8837 326.747 44.9818 326.676 45.0664C326.606 45.151 326.518 45.2203 326.42 45.27L319.86 49.05C319.74 49.1246 319.601 49.1628 319.46 49.16Z" fill="#455A64"/>
<path d="M319.46 53C319.318 53.0012 319.179 52.9649 319.056 52.8946C318.933 52.8243 318.831 52.7226 318.76 52.6C318.654 52.4138 318.624 52.1933 318.678 51.9858C318.733 51.7783 318.866 51.6003 319.05 51.49L325.61 47.71C325.702 47.6559 325.803 47.6206 325.909 47.606C326.015 47.5913 326.122 47.5976 326.225 47.6246C326.328 47.6515 326.425 47.6985 326.51 47.763C326.595 47.8274 326.666 47.9079 326.72 48C326.773 48.0917 326.808 48.1931 326.822 48.2983C326.835 48.4035 326.828 48.5104 326.8 48.6128C326.772 48.7151 326.724 48.8109 326.659 48.8946C326.594 48.9782 326.512 49.048 326.42 49.1L319.86 52.89C319.74 52.9645 319.601 53.0027 319.46 53Z" fill="#455A64"/>
<path d="M319.46 56.74C319.282 56.7406 319.108 56.6823 318.966 56.5742C318.825 56.4661 318.722 56.3143 318.676 56.1423C318.629 55.9702 318.64 55.7876 318.708 55.6227C318.776 55.4577 318.896 55.3197 319.05 55.23L325.61 51.44C325.797 51.3345 326.019 51.3068 326.226 51.3629C326.434 51.419 326.611 51.5544 326.72 51.74C326.773 51.8317 326.808 51.9332 326.822 52.0384C326.835 52.1436 326.828 52.2505 326.8 52.3528C326.772 52.4552 326.724 52.551 326.659 52.6346C326.594 52.7183 326.512 52.7881 326.42 52.84L319.86 56.63C319.738 56.7 319.6 56.7378 319.46 56.74Z" fill="#455A64"/>
</g>
<g opacity="0.5">
<path d="M93.2696 198.38C93.0903 198.385 92.9144 198.33 92.7702 198.223C92.626 198.117 92.5219 197.964 92.4746 197.791C92.4273 197.618 92.4395 197.434 92.5094 197.269C92.5792 197.104 92.7025 196.967 92.8596 196.88L99.4196 193.09C99.6043 192.997 99.8177 192.978 100.016 193.037C100.214 193.096 100.383 193.228 100.486 193.407C100.59 193.586 100.621 193.798 100.573 194C100.526 194.201 100.403 194.377 100.23 194.49L93.6696 198.27C93.5491 198.343 93.4106 198.381 93.2696 198.38Z" fill="#455A64"/>
<path d="M93.2697 202.17C93.128 202.171 92.9886 202.135 92.8656 202.065C92.7426 201.994 92.6405 201.893 92.5697 201.77C92.5157 201.678 92.4804 201.577 92.4657 201.471C92.451 201.365 92.4574 201.258 92.4843 201.155C92.5113 201.052 92.5583 200.955 92.6227 200.87C92.6871 200.785 92.7676 200.714 92.8597 200.66L99.4197 196.88C99.5108 196.826 99.6117 196.791 99.7165 196.777C99.8213 196.762 99.9279 196.769 100.03 196.795C100.133 196.822 100.228 196.869 100.312 196.934C100.397 196.998 100.467 197.078 100.52 197.17C100.574 197.262 100.609 197.364 100.624 197.469C100.638 197.575 100.632 197.682 100.605 197.785C100.578 197.888 100.531 197.985 100.467 198.07C100.402 198.155 100.322 198.226 100.23 198.28L93.6697 202.06C93.5491 202.133 93.4106 202.171 93.2697 202.17Z" fill="#455A64"/>
<path d="M93.2695 206C93.0912 206.001 92.9178 205.942 92.776 205.834C92.6342 205.726 92.532 205.574 92.4853 205.402C92.4386 205.23 92.45 205.048 92.5176 204.883C92.5853 204.718 92.7054 204.58 92.8595 204.49L99.4195 200.71C99.5102 200.655 99.6112 200.619 99.7163 200.603C99.8213 200.588 99.9284 200.594 100.031 200.621C100.134 200.648 100.23 200.696 100.314 200.761C100.398 200.826 100.468 200.907 100.519 201C100.573 201.091 100.608 201.192 100.623 201.297C100.637 201.402 100.631 201.508 100.604 201.611C100.577 201.713 100.53 201.809 100.466 201.893C100.402 201.977 100.321 202.047 100.229 202.1L93.6695 205.89C93.5471 205.959 93.4098 205.997 93.2695 206Z" fill="#455A64"/>
</g>
<path d="M151.45 165V170.81C151.45 172 152.29 172.48 153.32 171.89L231.25 126.83V116.69L153.33 161.75C152.782 162.105 152.327 162.585 152 163.15C151.673 163.714 151.485 164.348 151.45 165Z" fill="#E6E6E6"/>
<path d="M241.07 111C242.07 110.4 242.94 110.89 242.94 112.08V117.89C242.903 118.539 242.715 119.17 242.39 119.733C242.065 120.295 241.613 120.774 241.07 121.13L231.25 126.8V116.69L241.07 111Z" fill="#92E3A9"/>
<path d="M240.34 119L239.25 118.65C239.361 118.188 239.418 117.715 239.42 117.24C239.471 116.797 239.405 116.348 239.23 115.937C239.054 115.527 238.775 115.17 238.42 114.9C238.172 114.768 237.894 114.706 237.614 114.72C237.334 114.734 237.063 114.824 236.83 114.98C236.133 115.515 235.571 116.206 235.191 116.999C234.81 117.791 234.621 118.661 234.64 119.54C234.589 119.983 234.654 120.432 234.83 120.842C235.005 121.253 235.284 121.61 235.64 121.88C235.85 121.999 236.088 122.061 236.33 122.06C236.648 122.057 236.959 121.967 237.23 121.8C238.066 121.227 238.688 120.394 239 119.43L240.1 119.77C240.139 119.78 240.18 119.78 240.22 119.77C240.322 119.78 240.424 119.751 240.505 119.688C240.587 119.625 240.641 119.534 240.656 119.432C240.671 119.331 240.647 119.227 240.588 119.143C240.529 119.059 240.44 119 240.34 118.98V119ZM236.83 121.1C236.717 121.182 236.584 121.232 236.444 121.244C236.305 121.257 236.165 121.231 236.04 121.17C235.819 120.965 235.651 120.71 235.548 120.426C235.445 120.143 235.412 119.839 235.45 119.54C235.439 118.804 235.593 118.076 235.901 117.408C236.209 116.74 236.663 116.149 237.23 115.68C237.381 115.589 237.553 115.537 237.73 115.53C237.832 115.527 237.933 115.555 238.02 115.61C238.24 115.815 238.409 116.07 238.511 116.354C238.614 116.637 238.648 116.941 238.61 117.24C238.619 117.974 238.464 118.7 238.156 119.367C237.848 120.033 237.395 120.622 236.83 121.09V121.1Z" fill="#FAFAFA"/>
<path d="M119.059 181.53L107.809 188C107.266 188.351 106.813 188.826 106.488 189.385C106.163 189.945 105.975 190.574 105.939 191.22V197.01C105.939 198.2 106.779 198.68 107.809 198.09L119.059 191.58C119.602 191.226 120.053 190.749 120.377 190.188C120.7 189.627 120.886 188.997 120.919 188.35V182.6C120.919 181.42 120.089 180.93 119.059 181.53Z" fill="#92E3A9"/>
<path d="M314.71 68.56C313.435 69.3927 312.375 70.5136 311.614 71.8322C310.853 73.1508 310.413 74.6299 310.33 76.15C310.33 78.95 312.33 80.08 314.71 78.69C315.987 77.8569 317.05 76.7347 317.812 75.4143C318.575 74.094 319.016 72.6125 319.1 71.09C319.1 68.29 317.13 67.16 314.71 68.56Z" fill="#92E3A9"/>
<path d="M314.2 73C314.063 73.0024 313.928 72.9678 313.81 72.9C313.67 72.8014 313.559 72.6687 313.485 72.5147C313.412 72.3606 313.379 72.1903 313.39 72.02C313.408 71.6192 313.522 71.2286 313.722 70.8807C313.922 70.5328 314.203 70.2377 314.54 70.02C314.677 69.9119 314.843 69.8475 315.016 69.8349C315.19 69.8223 315.364 69.8623 315.515 69.9496C315.666 70.0369 315.787 70.1675 315.863 70.3245C315.938 70.4815 315.965 70.6576 315.94 70.83C315.918 71.2314 315.802 71.622 315.6 71.9697C315.399 72.3173 315.118 72.6122 314.78 72.83C314.604 72.934 314.404 72.9925 314.2 73Z" fill="white"/>
<path d="M316.44 73.31C316.196 73.1884 315.924 73.1354 315.653 73.1565C315.382 73.1777 315.121 73.2722 314.9 73.43L314.26 73.8C313.679 74.1682 313.195 74.6697 312.847 75.2628C312.499 75.8559 312.298 76.5234 312.26 77.21V77.67C312.651 77.8393 313.08 77.9043 313.504 77.8588C313.928 77.8132 314.333 77.6586 314.68 77.41C315.689 76.7825 316.522 75.9083 317.1 74.87V74.76C317.127 74.4816 317.08 74.2009 316.964 73.9464C316.849 73.6918 316.668 73.4723 316.44 73.31Z" fill="white"/>
<path d="M299.199 82.12V80.57C299.199 78.81 298.129 78 296.809 78.76C296.079 79.2825 295.481 79.969 295.064 80.7645C294.648 81.5599 294.423 82.4421 294.409 83.34V84.73C294.378 85.685 294.099 86.6153 293.599 87.43C293.476 87.6431 293.407 87.8837 293.399 88.13C293.399 88.58 293.669 88.78 293.999 88.59L299.609 85.36C299.792 85.226 299.941 85.0515 300.045 84.8503C300.149 84.6491 300.206 84.4265 300.209 84.2C300.216 84.1133 300.203 84.0261 300.172 83.9449C300.141 83.8636 300.092 83.7902 300.029 83.73C299.747 83.5738 299.518 83.3375 299.37 83.0509C299.222 82.7643 299.163 82.4404 299.199 82.12Z" fill="#92E3A9"/>
<path d="M297.999 86.8C297.992 87.2309 297.884 87.6542 297.685 88.0361C297.485 88.418 297.199 88.7481 296.849 89C296.209 89.36 295.689 89 295.689 88.13L297.999 86.8Z" fill="#92E3A9"/>
<path d="M278.52 89.48C278.826 89.2986 279.166 89.1828 279.52 89.14C279.797 89.1075 280.077 89.1635 280.32 89.3C280.555 89.4439 280.74 89.6569 280.85 89.91C280.979 90.258 281.03 90.63 281 91C281.003 91.3365 280.966 91.6722 280.89 92C280.818 92.2931 280.724 92.5805 280.61 92.86C280.5 93.1232 280.377 93.3802 280.24 93.63L279.84 94.35C279.72 94.58 279.6 94.82 279.5 95.05C279.404 95.2713 279.333 95.5028 279.29 95.74C279.28 95.8533 279.253 95.9646 279.21 96.07C279.176 96.1502 279.121 96.2194 279.05 96.27L277.92 96.92C277.85 96.92 277.79 96.92 277.75 96.92C277.721 96.8894 277.699 96.8531 277.685 96.8135C277.672 96.7738 277.666 96.7318 277.67 96.69C277.668 96.3819 277.712 96.0753 277.8 95.78C277.88 95.4901 277.981 95.2062 278.1 94.93C278.23 94.66 278.36 94.39 278.51 94.14C278.66 93.89 278.78 93.64 278.91 93.42C279.04 93.2 279.13 92.97 279.22 92.76C279.295 92.5721 279.336 92.3723 279.34 92.17C279.34 91.89 279.27 91.71 279.14 91.64C279.01 91.57 278.79 91.64 278.51 91.76C278.27 91.886 278.067 92.0721 277.92 92.3C277.809 92.4796 277.719 92.6707 277.65 92.87L277.51 93.37C277.478 93.5055 277.396 93.6237 277.28 93.7L276.15 94.35C276.129 94.3646 276.105 94.3725 276.08 94.3725C276.055 94.3725 276.03 94.3646 276.01 94.35C275.987 94.3223 275.97 94.2903 275.96 94.256C275.949 94.2217 275.946 94.1856 275.95 94.15C275.964 93.7609 276.024 93.3748 276.13 93C276.257 92.5557 276.424 92.1239 276.63 91.71C276.848 91.2735 277.116 90.8641 277.43 90.49C277.729 90.0903 278.098 89.7481 278.52 89.48ZM279.32 98.72C279.319 98.8272 279.296 98.933 279.25 99.03C279.212 99.1161 279.149 99.1891 279.07 99.24L277.91 99.91C277.899 99.9212 277.885 99.93 277.871 99.9361C277.856 99.9421 277.841 99.9453 277.825 99.9453C277.809 99.9453 277.793 99.9421 277.779 99.9361C277.764 99.93 277.751 99.9212 277.74 99.91C277.711 99.8794 277.689 99.8431 277.675 99.8035C277.662 99.7638 277.656 99.7218 277.66 99.68V98.25C277.662 98.1419 277.69 98.0359 277.74 97.94C277.771 97.8502 277.831 97.773 277.91 97.72L279.07 97.05C279.095 97.0288 279.127 97.0172 279.16 97.0172C279.193 97.0172 279.225 97.0288 279.25 97.05C279.276 97.0796 279.296 97.1145 279.308 97.1524C279.321 97.1904 279.324 97.2304 279.32 97.27V98.72Z" fill="#92E3A9"/>
<path d="M411.33 35.7099L361.12 64.7099C360.742 64.9541 360.427 65.2844 360.201 65.6737C359.975 66.0631 359.844 66.5004 359.82 66.9499V131.15C359.843 131.598 359.974 132.035 360.2 132.422C360.426 132.81 360.741 133.139 361.12 133.38L365.76 135.98C366.162 136.182 366.605 136.288 367.055 136.288C367.505 136.288 367.948 136.182 368.35 135.98L418.57 106.98C418.944 106.732 419.255 106.401 419.479 106.012C419.703 105.623 419.833 105.188 419.86 104.74V40.5199C419.836 40.0729 419.706 39.6381 419.48 39.2518C419.254 38.8655 418.938 38.5391 418.56 38.2999L413.93 35.6999C413.526 35.4992 413.08 35.3955 412.629 35.3972C412.177 35.399 411.733 35.5061 411.33 35.7099Z" fill="#92E3A9"/>
<path d="M367.06 135.22V71C367.084 70.5515 367.213 70.1151 367.437 69.7259C367.661 69.3367 367.974 69.0058 368.35 68.76L418.57 39.76C419.28 39.35 419.86 39.68 419.86 40.5V104.71C419.833 105.158 419.703 105.593 419.479 105.982C419.255 106.371 418.944 106.702 418.57 106.95L368.35 135.95C367.63 136.38 367.06 136 367.06 135.22Z" fill="#92E3A9"/>
<path opacity="0.2" d="M368.35 136C367.944 136.195 367.5 136.296 367.05 136.296C366.6 136.296 366.155 136.195 365.75 136L361.12 133.4C360.743 133.159 360.429 132.832 360.203 132.446C359.977 132.06 359.846 131.626 359.82 131.18V66.9999C359.839 66.5317 359.98 66.0765 360.23 65.6799L367.44 69.7899C367.204 70.1726 367.073 70.6106 367.06 71.0599V135.26C367.06 136 367.59 136.41 368.35 136Z" fill="black"/>
<path opacity="0.4" d="M419.84 40.29C419.74 39.64 419.21 39.41 418.57 39.78L368.35 68.78C367.966 69.0293 367.652 69.3738 367.44 69.78L360.23 65.67C360.443 65.2923 360.75 64.9756 361.12 64.75L411.34 35.75C411.742 35.5477 412.185 35.4424 412.635 35.4424C413.085 35.4424 413.528 35.5477 413.93 35.75L418.56 38.34C418.898 38.5568 419.187 38.8425 419.408 39.1785C419.628 39.5145 419.776 39.8932 419.84 40.29Z" fill="white"/>
<path d="M359.82 86.2999L349.42 96.8799C349.299 97.0004 349.206 97.1465 349.149 97.3076C349.091 97.4687 349.071 97.6406 349.09 97.8106C349.108 97.9805 349.164 98.1442 349.254 98.2895C349.344 98.4348 349.466 98.558 349.61 98.6499C349.83 98.7899 356.81 102.8 356.81 102.8L367.06 90.4699L359.82 86.2999Z" fill="#92E3A9"/>
<path opacity="0.1" d="M359.82 86.2999L349.42 96.8799C349.299 97.0004 349.206 97.1465 349.149 97.3076C349.091 97.4687 349.071 97.6406 349.09 97.8106C349.108 97.9805 349.164 98.1442 349.254 98.2895C349.344 98.4348 349.466 98.558 349.61 98.6499C349.83 98.7899 356.81 102.8 356.81 102.8L367.06 90.4699L359.82 86.2999Z" fill="black"/>
<path d="M367.06 90.47L356.65 101.05C356.481 101.223 356.371 101.444 356.335 101.683C356.299 101.922 356.339 102.166 356.45 102.381C356.561 102.595 356.736 102.77 356.952 102.879C357.167 102.988 357.411 103.027 357.65 102.99L367.08 101.63C368.07 101.63 368.07 90.47 367.06 90.47Z" fill="#92E3A9"/>
<path d="M385 88C384.742 87.999 384.495 87.8987 384.31 87.72L376.85 80.54C376.744 80.4524 376.657 80.3439 376.595 80.2212C376.532 80.0986 376.496 79.9644 376.488 79.827C376.48 79.6897 376.5 79.5522 376.548 79.4231C376.595 79.294 376.669 79.1761 376.764 79.0768C376.86 78.9774 376.974 78.8988 377.101 78.8458C377.228 78.7928 377.365 78.7666 377.502 78.7688C377.64 78.771 377.775 78.8015 377.901 78.8585C378.026 78.9155 378.138 78.9977 378.23 79.1L385.7 86.28C385.794 86.3729 385.868 86.4836 385.919 86.6054C385.97 86.7273 385.996 86.858 385.996 86.99C385.996 87.122 385.97 87.2527 385.919 87.3746C385.868 87.4964 385.794 87.607 385.7 87.7C385.515 87.8884 385.264 87.9962 385 88Z" fill="#455A64"/>
<path d="M377.54 92.3399C377.392 92.3389 377.246 92.3083 377.11 92.2499C376.872 92.1354 376.689 91.9312 376.601 91.6819C376.513 91.4327 376.527 91.1587 376.64 90.9199L384.1 75.1199C384.213 74.8799 384.416 74.6946 384.666 74.6045C384.915 74.5145 385.19 74.5273 385.43 74.6399C385.67 74.7527 385.855 74.9561 385.945 75.2055C386.035 75.455 386.023 75.7299 385.91 75.9699L378.45 91.7699C378.368 91.9416 378.239 92.0865 378.078 92.1874C377.917 92.2884 377.73 92.3413 377.54 92.3399Z" fill="#455A64"/>
<path d="M409.38 73.9999C409.119 74.0015 408.868 73.901 408.68 73.7199L401.22 66.5399C401.034 66.3525 400.929 66.0991 400.929 65.8349C400.929 65.5707 401.034 65.3173 401.22 65.1299C401.313 65.0362 401.424 64.9618 401.545 64.911C401.667 64.8602 401.798 64.8341 401.93 64.8341C402.062 64.8341 402.193 64.8602 402.315 64.911C402.436 64.9618 402.547 65.0362 402.64 65.1299L410.1 72.3099C410.243 72.448 410.342 72.6257 410.384 72.8203C410.426 73.0149 410.408 73.2175 410.334 73.4022C410.26 73.5869 410.133 73.7453 409.968 73.8572C409.803 73.969 409.609 74.0291 409.41 74.0299L409.38 73.9999Z" fill="#455A64"/>
<path d="M401.91 78.2699C401.765 78.2707 401.622 78.24 401.49 78.1799C401.37 78.1242 401.262 78.0451 401.173 77.9473C401.083 77.8495 401.014 77.7349 400.97 77.6103C400.925 77.4856 400.906 77.3533 400.912 77.2211C400.919 77.0889 400.952 76.9593 401.01 76.8399L408.47 61.0499C408.524 60.9286 408.602 60.8193 408.699 60.7284C408.796 60.6375 408.91 60.5669 409.034 60.5206C409.159 60.4743 409.292 60.4533 409.424 60.4589C409.557 60.4644 409.688 60.4964 409.808 60.5529C409.928 60.6093 410.036 60.6892 410.125 60.7879C410.214 60.8865 410.283 61.0019 410.326 61.1274C410.37 61.2528 410.389 61.3857 410.381 61.5184C410.373 61.651 410.339 61.7807 410.28 61.8999L402.82 77.6999C402.738 77.8717 402.609 78.0165 402.448 78.1174C402.287 78.2184 402.1 78.2713 401.91 78.2699Z" fill="#455A64"/>
<path d="M377.21 110.24C377.034 110.241 376.86 110.195 376.708 110.107C376.555 110.019 376.428 109.893 376.34 109.74C376.209 109.51 376.175 109.239 376.245 108.984C376.314 108.729 376.481 108.512 376.71 108.38L409.21 89.61C409.441 89.4774 409.715 89.4419 409.971 89.5113C410.228 89.5807 410.447 89.7493 410.58 89.98C410.712 90.2108 410.748 90.4847 410.679 90.7416C410.609 90.9986 410.441 91.2174 410.21 91.35L377.71 110.11C377.557 110.196 377.385 110.241 377.21 110.24Z" fill="#455A64"/>
<path d="M399.86 110.77C399.313 110.772 398.775 110.631 398.3 110.36C397.698 109.944 397.216 109.376 396.904 108.714C396.591 108.052 396.459 107.319 396.52 106.59V97.5199C396.52 97.2547 396.625 97.0003 396.813 96.8128C397 96.6253 397.255 96.5199 397.52 96.5199C397.785 96.5199 398.04 96.6253 398.227 96.8128C398.415 97.0003 398.52 97.2547 398.52 97.5199V106.59C398.478 106.962 398.526 107.338 398.662 107.687C398.798 108.035 399.017 108.345 399.3 108.59C399.593 108.705 399.911 108.742 400.223 108.699C400.535 108.655 400.83 108.531 401.08 108.34C402.132 107.606 403 106.64 403.617 105.516C404.235 104.392 404.585 103.141 404.64 101.86V92.7899C404.64 92.5247 404.745 92.2703 404.933 92.0828C405.12 91.8953 405.375 91.7899 405.64 91.7899C405.905 91.7899 406.16 91.8953 406.347 92.0828C406.535 92.2703 406.64 92.5247 406.64 92.7899V101.86C406.588 103.493 406.148 105.089 405.354 106.517C404.561 107.945 403.439 109.163 402.08 110.07C401.415 110.495 400.649 110.736 399.86 110.77Z" fill="#455A64"/>
<path d="M401.58 104.93C401.315 104.93 401.061 104.825 400.873 104.637C400.685 104.449 400.58 104.195 400.58 103.93V95.1699C400.58 94.9047 400.685 94.6504 400.873 94.4628C401.061 94.2753 401.315 94.1699 401.58 94.1699C401.845 94.1699 402.1 94.2753 402.287 94.4628C402.475 94.6504 402.58 94.9047 402.58 95.1699V103.93C402.58 104.195 402.475 104.449 402.287 104.637C402.1 104.825 401.845 104.93 401.58 104.93Z" fill="#455A64"/>
<path d="M371.29 366.6C371.29 365.07 370.89 356.6 370.41 348.8C369.91 340.59 369.92 333.08 369.92 333.08L383.8 343.44C380.8 361.88 380.49 365.95 380.44 368.97L380.1 369.25C380.166 369.501 380.193 369.761 380.18 370.02C380.18 373.6 376.18 375.54 373.01 377.94C370.345 380.051 367.501 381.925 364.51 383.54C362.22 384.7 357.57 384.82 356.99 383.35C361.41 380.58 366.69 377.07 369.73 373.71C371.18 372.11 371.19 369.74 371.29 366.6Z" fill="#FFA8A7"/>
<path d="M351.58 387.9C351.432 388.399 351.427 388.929 351.564 389.431C351.702 389.933 351.978 390.387 352.36 390.74C355.211 392.603 358.686 393.258 362.02 392.56C366.77 391.72 369.29 390.25 371.13 388.56C372.97 386.87 375.54 384.48 377.68 383.9C379.389 383.494 380.998 382.745 382.41 381.7C383.02 381.05 382.8 378.3 382.8 378.3L351.58 387.9Z" fill="#263238"/>
<path d="M380.48 367.69C380.649 367.723 380.803 367.806 380.923 367.93C381.043 368.053 381.122 368.21 381.15 368.38C381.33 369.14 381.6 371.38 381.97 372.57C382.57 374.744 382.836 376.996 382.76 379.25C382.56 380.68 379.34 381.81 377.28 382.71C374.871 383.905 372.657 385.456 370.71 387.31C367.88 389.634 364.445 391.102 360.81 391.54C357.13 391.68 352.92 390.69 351.89 389.03C350.61 386.97 351.48 385.7 356.82 382.91C357.82 382.38 361.36 380.06 362.56 379.22C365.81 376.96 368.99 373.87 370.36 370.06C370.457 369.596 370.715 369.181 371.09 368.89C371.415 368.73 371.783 368.677 372.14 368.74C373.059 368.822 373.96 369.048 374.81 369.41C375.56 369.72 376.62 370.08 376.65 371.02C376.651 371.36 376.597 371.698 376.49 372.02C376.43 372.22 376.39 372.48 376.56 372.58C376.73 372.68 376.93 372.58 377.07 372.41C377.582 371.839 378.047 371.227 378.46 370.58C378.698 370.244 378.973 369.935 379.28 369.66C379.56 369.41 379.94 369.28 380.19 369.01C380.455 368.625 380.559 368.151 380.48 367.69Z" fill="#92E3A9"/>
<path opacity="0.3" d="M380.48 367.69C380.649 367.723 380.803 367.806 380.923 367.93C381.043 368.053 381.122 368.21 381.15 368.38C381.33 369.14 381.6 371.38 381.97 372.57C382.57 374.744 382.836 376.996 382.76 379.25C382.56 380.68 379.34 381.81 377.28 382.71C374.871 383.905 372.657 385.456 370.71 387.31C367.88 389.634 364.445 391.102 360.81 391.54C357.13 391.68 352.92 390.69 351.89 389.03C350.61 386.97 351.48 385.7 356.82 382.91C357.82 382.38 361.36 380.06 362.56 379.22C365.81 376.96 368.99 373.87 370.36 370.06C370.457 369.596 370.715 369.181 371.09 368.89C371.415 368.73 371.783 368.677 372.14 368.74C373.059 368.822 373.96 369.048 374.81 369.41C375.56 369.72 376.62 370.08 376.65 371.02C376.651 371.36 376.597 371.698 376.49 372.02C376.43 372.22 376.39 372.48 376.56 372.58C376.73 372.68 376.93 372.58 377.07 372.41C377.582 371.839 378.047 371.227 378.46 370.58C378.698 370.244 378.973 369.935 379.28 369.66C379.56 369.41 379.94 369.28 380.19 369.01C380.455 368.625 380.559 368.151 380.48 367.69Z" fill="black"/>
<path opacity="0.2" d="M364.08 383.25C360.75 384.77 362.23 385.33 363.18 385.43C364.13 385.53 369.7 381.91 373.06 378.98C376.42 376.05 378.7 372.68 380 371.56C380.49 371.14 381 370.63 381.47 370.16C381.34 369.42 381.24 368.74 381.15 368.38C381.122 368.21 381.043 368.053 380.923 367.93C380.803 367.806 380.649 367.723 380.48 367.69C380.549 368.138 380.445 368.595 380.19 368.97C379.94 369.24 379.56 369.37 379.28 369.62C378.973 369.895 378.698 370.204 378.46 370.54C378.047 371.187 377.582 371.799 377.07 372.37C374.28 376.28 367.41 381.73 364.08 383.25Z" fill="black"/>
<path d="M363.4 384.91C363.477 384.909 363.552 384.881 363.61 384.83C363.671 384.765 363.705 384.679 363.705 384.59C363.705 384.501 363.671 384.415 363.61 384.35C362.768 383.56 361.766 382.958 360.673 382.586C359.58 382.213 358.42 382.078 357.27 382.19C357.187 382.21 357.115 382.26 357.067 382.33C357.02 382.401 357 382.487 357.013 382.571C357.026 382.655 357.069 382.731 357.135 382.785C357.201 382.838 357.285 382.865 357.37 382.86C358.409 382.769 359.455 382.894 360.443 383.228C361.431 383.562 362.339 384.097 363.11 384.8C363.144 384.843 363.189 384.876 363.24 384.895C363.291 384.915 363.346 384.92 363.4 384.91Z" fill="#EBEBEB"/>
<path d="M366.28 383C366.357 382.998 366.431 382.97 366.49 382.92C366.554 382.856 366.589 382.77 366.589 382.68C366.589 382.59 366.554 382.504 366.49 382.44C365.649 381.648 364.648 381.046 363.554 380.673C362.461 380.3 361.3 380.166 360.15 380.28C360.061 380.295 359.982 380.344 359.93 380.417C359.877 380.49 359.856 380.581 359.87 380.67C359.887 380.757 359.937 380.835 360.01 380.887C360.082 380.939 360.172 380.962 360.26 380.95C361.298 380.858 362.343 380.983 363.329 381.317C364.316 381.651 365.222 382.186 365.99 382.89C366.025 382.931 366.07 382.963 366.121 382.982C366.172 383.002 366.226 383.008 366.28 383Z" fill="#EBEBEB"/>
<path d="M369.16 381.08C369.237 381.078 369.311 381.05 369.37 381C369.433 380.936 369.469 380.85 369.469 380.76C369.469 380.67 369.433 380.584 369.37 380.52C368.529 379.731 367.529 379.13 366.437 378.758C365.346 378.385 364.188 378.25 363.04 378.36C362.951 378.375 362.872 378.424 362.819 378.497C362.767 378.57 362.745 378.661 362.76 378.75C362.766 378.793 362.781 378.835 362.803 378.873C362.826 378.911 362.855 378.944 362.891 378.97C362.926 378.996 362.966 379.015 363.009 379.025C363.052 379.035 363.096 379.037 363.14 379.03C364.177 378.938 365.223 379.062 366.209 379.397C367.196 379.731 368.102 380.266 368.87 380.97C368.905 381.011 368.95 381.043 369.001 381.062C369.051 381.082 369.106 381.088 369.16 381.08Z" fill="#EBEBEB"/>
<path d="M371.81 379C371.887 379 371.962 378.971 372.02 378.92C372.081 378.855 372.115 378.769 372.115 378.68C372.115 378.591 372.081 378.505 372.02 378.44C371.178 377.65 370.176 377.048 369.083 376.676C367.99 376.303 366.83 376.168 365.68 376.28C365.636 376.286 365.593 376.301 365.554 376.324C365.516 376.347 365.482 376.378 365.456 376.415C365.43 376.451 365.411 376.493 365.402 376.536C365.392 376.58 365.392 376.626 365.4 376.67C365.415 376.757 365.463 376.834 365.534 376.887C365.604 376.939 365.693 376.962 365.78 376.95C366.819 376.859 367.866 376.984 368.854 377.318C369.842 377.652 370.75 378.187 371.52 378.89C371.554 378.933 371.599 378.966 371.65 378.985C371.701 379.005 371.756 379.01 371.81 379Z" fill="#EBEBEB"/>
<path d="M374.41 376.88C374.484 376.877 374.554 376.849 374.61 376.8C374.641 376.769 374.666 376.733 374.682 376.692C374.699 376.652 374.708 376.609 374.708 376.565C374.708 376.521 374.699 376.478 374.682 376.438C374.666 376.397 374.641 376.361 374.61 376.33C373.698 375.465 372.6 374.82 371.401 374.444C370.202 374.068 368.932 373.971 367.69 374.16C367.646 374.167 367.605 374.183 367.568 374.206C367.53 374.229 367.498 374.26 367.472 374.296C367.447 374.331 367.429 374.372 367.419 374.415C367.409 374.457 367.407 374.502 367.415 374.545C367.422 374.588 367.438 374.63 367.461 374.667C367.484 374.704 367.514 374.737 367.55 374.762C367.586 374.788 367.626 374.806 367.669 374.816C367.712 374.826 367.756 374.827 367.8 374.82C368.929 374.655 370.081 374.744 371.171 375.081C372.261 375.419 373.262 375.996 374.1 376.77C374.137 376.815 374.185 376.849 374.239 376.868C374.294 376.887 374.353 376.891 374.41 376.88Z" fill="#EBEBEB"/>
<path d="M399.29 346.54L414.47 346.21C414.28 356.34 412.71 367.6 412.47 377.11C412.42 378.9 412.56 391.01 411.9 394.7C410.9 400.24 404.34 399.51 403.98 396.2C403.62 392.89 404.33 378.74 404.31 377.29C404.31 371.19 401.45 360.9 399.91 349.96C399.85 349.43 399.36 347.06 399.29 346.54Z" fill="#FFA8A7"/>
<path d="M401.53 398.52C401.41 401.77 401.7 403.96 402.67 405.97C403.156 406.912 403.941 407.666 404.902 408.113C405.864 408.56 406.946 408.675 407.98 408.44C410.23 408.1 413.18 406.88 414.08 404.15C414.888 401.669 415.144 399.041 414.83 396.45L401.53 398.52Z" fill="#263238"/>
<path d="M412.52 375.94C413.42 376.1 413.26 380.47 413.36 384.87C413.47 389.58 414.68 391.64 414.8 395.51C414.95 399.93 414.53 401.86 412.75 404.35C410.97 406.84 405.3 408.91 403 404.87C401.12 401.58 401.36 398.15 402 393.81C402.612 390.144 403.036 386.449 403.27 382.74C403.42 379.45 403.5 376.26 404.32 375.98C404.32 376.46 404.32 377.08 404.32 377.55C404.32 378.02 404.25 379.7 404.76 379.76C404.836 379.354 404.876 378.943 404.88 378.53C404.876 378.166 405 377.812 405.23 377.53C405.533 377.302 405.901 377.179 406.28 377.18C407.183 377.071 408.091 377.01 409 377C409.451 376.998 409.902 377.022 410.35 377.07C410.74 377.097 411.123 377.191 411.48 377.35C411.587 377.393 411.682 377.46 411.76 377.545C411.838 377.629 411.896 377.73 411.93 377.84C411.96 378.005 411.96 378.175 411.93 378.34C411.89 378.642 411.89 378.948 411.93 379.25C411.93 379.38 412.02 379.54 412.15 379.53C412.28 379.52 412.31 379.38 412.32 379.28C412.38 378.75 412.32 378.36 412.38 377.74C412.38 377.46 412.38 377.07 412.38 376.79C412.38 376.51 412.51 376.23 412.52 375.94Z" fill="#92E3A9"/>
<path opacity="0.3" d="M412.52 375.94C413.42 376.1 413.26 380.47 413.36 384.87C413.47 389.58 414.68 391.64 414.8 395.51C414.95 399.93 414.53 401.86 412.75 404.35C410.97 406.84 405.3 408.91 403 404.87C401.12 401.58 401.36 398.15 402 393.81C402.612 390.144 403.036 386.449 403.27 382.74C403.42 379.45 403.5 376.26 404.32 375.98C404.32 376.46 404.32 377.08 404.32 377.55C404.32 378.02 404.25 379.7 404.76 379.76C404.836 379.354 404.876 378.943 404.88 378.53C404.876 378.166 405 377.812 405.23 377.53C405.533 377.302 405.901 377.179 406.28 377.18C407.183 377.071 408.091 377.01 409 377C409.451 376.998 409.902 377.022 410.35 377.07C410.74 377.097 411.123 377.191 411.48 377.35C411.587 377.393 411.682 377.46 411.76 377.545C411.838 377.629 411.896 377.73 411.93 377.84C411.96 378.005 411.96 378.175 411.93 378.34C411.89 378.642 411.89 378.948 411.93 379.25C411.93 379.38 412.02 379.54 412.15 379.53C412.28 379.52 412.31 379.38 412.32 379.28C412.38 378.75 412.32 378.36 412.38 377.74C412.38 377.46 412.38 377.07 412.38 376.79C412.38 376.51 412.51 376.23 412.52 375.94Z" fill="black"/>
<path opacity="0.2" d="M411.65 397.35C411.51 398.93 413.12 398.55 413.41 396.35C413.7 394.15 412.98 388.72 413.36 384.89C413.26 380.49 413.42 376.12 412.52 375.96C412.52 376.02 412.52 376.07 412.52 376.13L412.43 378.35C412.43 378.67 412.43 378.96 412.38 379.3C412.1 382.52 411.95 388.78 411.94 391.75C411.94 393.62 411.843 395.49 411.65 397.35Z" fill="black"/>
<path opacity="0.2" d="M405.32 397.38C405.116 395.513 405.009 393.638 405 391.76C405 388.81 404.78 382.62 404.47 379.38C404.354 378.777 404.307 378.163 404.33 377.55C404.33 377.11 404.33 376.55 404.33 376.08C404.326 376.047 404.326 376.013 404.33 375.98C403.74 376.2 403.53 377.98 403.41 380.13C403.41 381.41 403.41 382.99 403.55 384.91C403.97 388.73 403.29 394.18 403.55 396.4C403.81 398.62 405.47 399 405.32 397.38Z" fill="black"/>
<path d="M404.73 397.49H404.86C407.12 396.684 409.588 396.666 411.86 397.44C411.943 397.467 412.034 397.461 412.114 397.424C412.193 397.387 412.256 397.321 412.29 397.24C412.319 397.156 412.314 397.065 412.277 396.984C412.24 396.904 412.173 396.842 412.09 396.81C409.657 395.947 407.002 395.947 404.57 396.81C404.488 396.845 404.424 396.911 404.39 396.993C404.356 397.076 404.356 397.168 404.39 397.25C404.412 397.322 404.457 397.385 404.519 397.428C404.58 397.472 404.654 397.493 404.73 397.49Z" fill="#EBEBEB"/>
<path d="M404.31 394C404.346 394.01 404.384 394.01 404.42 394C406.978 393.193 409.721 393.176 412.29 393.95C412.332 393.966 412.376 393.973 412.421 393.97C412.466 393.968 412.51 393.957 412.55 393.937C412.59 393.918 412.626 393.89 412.655 393.856C412.684 393.822 412.706 393.783 412.72 393.74C412.748 393.655 412.743 393.562 412.703 393.482C412.664 393.401 412.594 393.34 412.51 393.31C409.797 392.469 406.89 392.49 404.19 393.37C404.107 393.402 404.04 393.464 404.002 393.544C403.965 393.625 403.961 393.716 403.99 393.8C404.016 393.862 404.061 393.915 404.118 393.95C404.176 393.986 404.242 394.003 404.31 394Z" fill="#EBEBEB"/>
<path d="M412.39 390.65C412.454 390.649 412.516 390.63 412.57 390.595C412.623 390.559 412.665 390.509 412.69 390.45C412.728 390.369 412.732 390.276 412.702 390.192C412.672 390.108 412.61 390.039 412.53 390C409.86 388.968 406.9 388.968 404.23 390C404.149 390.033 404.085 390.097 404.051 390.178C404.017 390.258 404.017 390.349 404.05 390.43C404.083 390.511 404.147 390.576 404.227 390.611C404.307 390.647 404.398 390.65 404.48 390.62C404.48 390.62 408.6 388.98 412.25 390.62C412.294 390.64 412.342 390.651 412.39 390.65Z" fill="#EBEBEB"/>
<path d="M412.45 387.56C412.525 387.558 412.597 387.531 412.655 387.483C412.713 387.436 412.754 387.371 412.771 387.298C412.788 387.225 412.781 387.148 412.75 387.08C412.719 387.011 412.666 386.955 412.6 386.92C411.272 386.32 409.833 386.004 408.376 385.994C406.919 385.983 405.476 386.278 404.14 386.86C404.059 386.899 403.997 386.968 403.967 387.052C403.937 387.136 403.942 387.229 403.98 387.31C404.02 387.389 404.09 387.448 404.174 387.476C404.258 387.504 404.35 387.499 404.43 387.46C405.678 386.933 407.022 386.667 408.377 386.679C409.732 386.691 411.071 386.981 412.31 387.53C412.354 387.55 412.401 387.561 412.45 387.56Z" fill="#EBEBEB"/>
<path d="M412.51 384.08C412.572 384.08 412.632 384.063 412.685 384.032C412.738 384 412.781 383.954 412.81 383.9C412.83 383.861 412.843 383.818 412.846 383.774C412.85 383.73 412.844 383.685 412.83 383.643C412.816 383.601 412.794 383.562 412.765 383.529C412.736 383.496 412.7 383.469 412.66 383.45C408.66 381.45 404.31 383.39 404.13 383.45C404.049 383.489 403.988 383.558 403.958 383.642C403.928 383.726 403.932 383.819 403.97 383.9C403.987 383.94 404.013 383.977 404.044 384.007C404.076 384.038 404.113 384.062 404.154 384.077C404.195 384.093 404.239 384.101 404.283 384.1C404.327 384.098 404.37 384.088 404.41 384.07C404.41 384.07 408.63 382.2 412.36 384.07C412.408 384.087 412.46 384.091 412.51 384.08Z" fill="#EBEBEB"/>
<path d="M408.1 248C413.51 262.8 413.61 272 412.75 287.56C411.96 301.81 410.67 314.36 410.67 314.36C410.89 316.89 414.43 321.81 414.92 332.99C415.096 340.853 414.762 348.72 413.92 356.54C413.92 356.54 406.92 359.12 401 356.59C401 356.59 394.83 329.87 393.13 316.8C391.65 305.39 389.48 291.92 389.48 291.92L385.61 316.8C386.16 320.563 386.361 324.37 386.21 328.17C385.71 334.25 382.75 350.58 382.75 350.58C382.75 350.58 375.4 353.23 370.4 348.83C370.4 348.83 368.88 324.35 368.15 315.09C367.15 302.68 367.38 268.66 370.29 251.23L408.1 248Z" fill="#455A64"/>
<path d="M389.49 291.89L386.84 271.28C386.84 271.28 377 270 372.56 265.84C373.84 267.828 375.542 269.51 377.545 270.766C379.548 272.023 381.803 272.823 384.15 273.11L387.77 292.35L385.62 316.77L389.49 291.89Z" fill="#263238"/>
<path d="M392.1 216.12L392.3 216.03C404.95 210.03 410.03 196.03 409.41 182.73C409.298 178.501 408.421 174.326 406.82 170.41C405.191 166.479 402.4 163.14 398.82 160.84C396.037 159.198 392.897 158.254 389.67 158.09C386.74 157.9 382.95 157.95 380.19 159.09C379.771 159.297 379.312 159.413 378.845 159.428C378.377 159.444 377.912 159.359 377.48 159.18C376.497 158.956 375.483 158.895 374.48 159C371.748 159.372 369.275 160.81 367.6 163C365.27 165.87 364.99 170.16 365.79 173.64C366.17 175.25 368.41 177.64 368.32 179.13C368.18 181.36 366.56 183.13 364.78 185.05C363 186.97 361.03 188.41 360.17 191.24C359.43 193.67 359.3 198.82 364.74 200.8C356.82 211.27 364.63 216.95 368.95 218.45C371.834 219.468 374.906 219.84 377.95 219.54C382.78 219 387.68 218.18 392.1 216.12Z" fill="#37474F"/>
<path d="M364.75 233.9C369.41 229.11 377.82 218.26 377.82 218.26L382.58 201.78C382.7 201.78 380.16 201.83 379.39 201.78C374.25 202.12 372.73 202.56 369.53 206.06C366.99 208.84 357.3 222.06 353.93 226.53L345 215.15C342.86 211.91 343.2 208.28 342.09 205.64C340.98 203 339.18 201.82 337.74 199.43C336.3 197.04 335.96 195.43 334.74 196.7C333.52 197.97 334.92 201.22 335.1 201.97C335.28 202.72 337.1 204.97 334.1 203.8C331.1 202.63 326.43 197.13 325.23 196C324.03 194.87 323.4 196.62 323.67 198C323.94 199.38 322.67 202.49 323.12 204.77C323.415 207.053 324.548 209.146 326.3 210.64C328.48 212.83 333.79 215.51 335.87 218.38C337.95 221.25 342.38 230.17 345.1 235.55C348.54 242.38 351.48 244.63 355.35 242.33C359.22 240.03 363 235.67 364.75 233.9Z" fill="#FFA8A7"/>
<path d="M353.93 226.54C355.627 228.141 356.766 230.244 357.18 232.54C357.18 232.54 358.18 229.24 354.7 225.54L353.93 226.54Z" fill="#F28F8F"/>
<path d="M370.8 230.85C364.48 225.65 366.56 218.85 368.87 214.3C373.49 205.17 378.29 201.58 380.29 201.62L392.88 201.73C398.88 202.55 403.55 202.14 405 202.49C408.7 203.36 408.78 206.41 408.92 210.35C409.08 214.67 409.54 214.21 408.41 221.35C408.41 221.35 406.7 226.88 406.03 229.35C405.36 231.82 404.1 235.66 405.12 239.66C405.51 241.2 406.55 242.66 408.12 246.97C409.514 250.473 410.588 254.094 411.33 257.79C411.33 257.79 402.7 265.79 384.77 263.21C371.59 261.33 369 257 369 257L371.47 241.61C371.14 236.2 371.05 234.25 370.8 230.85Z" fill="#92E3A9"/>
<path opacity="0.1" d="M379 229.49C379 229.49 384.17 233.65 390.19 231.63C391.881 231.13 393.414 230.202 394.641 228.935C395.867 227.668 396.745 226.106 397.19 224.4C397.19 224.4 397.7 231.25 390.12 233.4C388.092 234.028 385.916 233.987 383.914 233.283C381.911 232.578 380.188 231.249 379 229.49Z" fill="black"/>
<path d="M424.15 189.06C421.47 185.72 414.15 177.37 412.8 175.7C411.971 174.646 410.882 173.826 409.64 173.32C408.536 172.917 407.533 172.279 406.7 171.45C406.18 170.94 405.05 168.77 404.59 168.2C403.238 166.458 401.614 164.945 399.78 163.72C397.66 162.23 395.65 161.54 393.47 160.13C392.19 159.3 390.63 158.47 392.03 157.07C392.465 156.627 393.022 156.324 393.63 156.2C396.63 155.64 399.81 156.58 403.53 157.55C405.125 157.955 406.698 158.446 408.24 159.02C409.13 159.313 409.97 159.742 410.73 160.29C411.64 161.152 412.392 162.168 412.95 163.29C414.69 166.13 418.67 168.03 421.15 170.2C424.05 172.75 426.91 174.88 430.22 177.69C433.516 180.36 436.532 183.359 439.22 186.64C441.22 189.34 440.65 190.96 439.83 192.16C435.7 198.25 426.5 205.16 423.23 207.86C419.74 210.74 417.29 212.54 414.17 215.33C411.978 217.405 409.907 219.605 407.97 221.92C407.776 222.172 407.5 222.349 407.19 222.42C406.88 222.492 406.554 222.453 406.27 222.31C402.66 220.31 400.27 210.31 403.05 204.1C403.76 202.51 404.5 202.45 404.5 202.45C410.2 198.45 424.15 189.1 424.15 189.1" fill="#FFA8A7"/>
<path d="M424.15 189.06C425.831 191.2 428.09 192.814 430.66 193.71C430.66 193.71 427.21 194.53 422.58 190.22L424.15 189.06Z" fill="#F28F8F"/>
<path d="M372.73 182.55C372.79 192.48 375.96 194.99 377.56 195.72C379.16 196.45 382.29 196.08 385.32 195.63L385.22 201.63C385.22 201.63 381.66 205.22 381.88 207.95C382.1 210.68 387.31 211.09 391.27 208.49C393.448 207.043 395.428 205.319 397.16 203.36C397.489 202.979 397.673 202.494 397.68 201.99L397.92 187.99C397.92 187.99 399.55 189.78 402.52 187.82C403.16 187.429 403.712 186.909 404.141 186.292C404.569 185.676 404.864 184.977 405.007 184.24C405.15 183.504 405.138 182.745 404.971 182.013C404.805 181.281 404.488 180.592 404.04 179.99C403.621 179.586 403.119 179.278 402.57 179.088C402.02 178.897 401.435 178.829 400.856 178.888C400.277 178.948 399.718 179.132 399.218 179.429C398.718 179.727 398.288 180.13 397.96 180.61C397.05 182.31 397.13 183.5 395.96 183.3C394.79 183.1 394.68 181.77 394.6 180.81C394.52 179.85 394.55 179.55 394.48 178.3C391.54 177.67 388.48 173.58 388.17 170.6C386.184 171.579 383.994 172.072 381.78 172.04C378.5 171.81 376.78 171.16 375.19 168.78C374.796 169.32 374.486 169.917 374.27 170.55C373.818 171.813 373.483 173.115 373.27 174.44C372.878 177.125 372.697 179.837 372.73 182.55Z" fill="#FFA8A7"/>
<path d="M385.32 195.63C388.52 195.27 395.12 193.5 396.19 190.92C395.756 192.225 394.932 193.366 393.83 194.19C391.83 195.84 385.29 197.62 385.29 197.62L385.32 195.63Z" fill="#F28F8F"/>
<path d="M382.1 190.28C382.094 190.539 382.165 190.795 382.305 191.014C382.444 191.232 382.645 191.405 382.883 191.509C383.121 191.614 383.384 191.645 383.639 191.599C383.895 191.554 384.131 191.434 384.318 191.254C384.505 191.074 384.634 190.842 384.69 190.589C384.745 190.335 384.724 190.071 384.628 189.83C384.533 189.588 384.369 189.38 384.155 189.233C383.942 189.085 383.689 189.004 383.43 189C383.084 188.995 382.75 189.126 382.501 189.366C382.252 189.606 382.108 189.934 382.1 190.28Z" fill="#B16668"/>
<path d="M383.77 180.51C383.763 180.778 383.835 181.043 383.976 181.27C384.118 181.498 384.324 181.679 384.567 181.791C384.811 181.903 385.082 181.941 385.347 181.901C385.612 181.86 385.86 181.742 386.059 181.562C386.258 181.382 386.399 181.148 386.466 180.888C386.533 180.628 386.522 180.355 386.435 180.101C386.348 179.847 386.188 179.625 385.976 179.461C385.763 179.298 385.508 179.2 385.24 179.18C385.056 179.171 384.872 179.198 384.699 179.259C384.525 179.321 384.366 179.417 384.229 179.54C384.093 179.664 383.982 179.813 383.903 179.979C383.824 180.146 383.779 180.326 383.77 180.51Z" fill="#263238"/>
<path d="M374.5 179.92C374.485 180.086 374.503 180.254 374.553 180.413C374.604 180.573 374.685 180.72 374.793 180.848C374.901 180.975 375.033 181.08 375.182 181.156C375.331 181.232 375.493 181.277 375.66 181.29C375.829 181.308 376 181.291 376.161 181.238C376.323 181.185 376.472 181.099 376.597 180.985C376.723 180.87 376.823 180.73 376.891 180.574C376.958 180.418 376.992 180.25 376.99 180.08C377.011 179.911 376.998 179.739 376.95 179.575C376.903 179.411 376.822 179.258 376.714 179.126C376.605 178.995 376.471 178.887 376.319 178.809C376.167 178.731 376 178.686 375.83 178.675C375.66 178.664 375.489 178.688 375.328 178.745C375.167 178.803 375.02 178.893 374.895 179.01C374.771 179.126 374.671 179.267 374.603 179.424C374.535 179.58 374.5 179.749 374.5 179.92Z" fill="#263238"/>
<path d="M380.91 178.63L379.92 186.92L375.67 185.16L380.91 178.63Z" fill="#F28F8F"/>
<path d="M388.74 176.93L386.27 174.58C385.959 174.921 385.793 175.369 385.806 175.829C385.819 176.29 386.011 176.728 386.34 177.05C386.503 177.203 386.696 177.322 386.907 177.4C387.117 177.477 387.341 177.511 387.565 177.5C387.789 177.488 388.009 177.432 388.21 177.334C388.412 177.236 388.592 177.099 388.74 176.93Z" fill="#263238"/>
<path d="M376.38 173.82L373.64 175.89C373.767 176.076 373.93 176.233 374.119 176.354C374.308 176.475 374.52 176.556 374.742 176.592C374.963 176.629 375.19 176.62 375.408 176.566C375.626 176.513 375.831 176.415 376.01 176.28C376.375 175.995 376.616 175.581 376.685 175.124C376.754 174.666 376.645 174.2 376.38 173.82Z" fill="#263238"/>
</g>
<defs>
<clipPath id="clip0_90_489">
<rect width="481" height="477" fill="white"/>
</clipPath>
</defs>
</svg>
