<svg width="428" height="461" viewBox="0 0 428 461" fill="none" xmlns="http://www.w3.org/2000/svg">
<g clip-path="url(#clip0_90_649)">
<path d="M381.4 72.03H407.88V60.84H381.4V72.03Z" stroke="#EBEBEB" stroke-width="0.75" stroke-miterlimit="10"/>
<path d="M396.18 57.92H422.66V46.73H396.18V57.92Z" stroke="#EBEBEB" stroke-width="0.75" stroke-miterlimit="10"/>
<path d="M214 182.16H240.48V170.97H214V182.16Z" stroke="#EBEBEB" stroke-width="0.75" stroke-miterlimit="10"/>
<path d="M228.77 168.05H255.25V156.86H228.77V168.05Z" stroke="#EBEBEB" stroke-width="0.75" stroke-miterlimit="10"/>
<path d="M243.48 182.16H269.96V170.97H243.48V182.16Z" stroke="#EBEBEB" stroke-width="0.75" stroke-miterlimit="10"/>
<path d="M5.33982 57.92H31.8198V46.73H5.33982V57.92Z" stroke="#EBEBEB" stroke-width="0.75" stroke-miterlimit="10"/>
<path d="M20.1196 321.04H46.5996V309.85H20.1196V321.04Z" stroke="#EBEBEB" stroke-width="0.75" stroke-miterlimit="10"/>
<path d="M5.33982 306.93H31.8198V295.74H5.33982V306.93Z" stroke="#EBEBEB" stroke-width="0.75" stroke-miterlimit="10"/>
<path d="M381.4 321.04H407.88V309.85H381.4V321.04Z" stroke="#EBEBEB" stroke-width="0.75" stroke-miterlimit="10"/>
<path d="M172.82 421.54V295.88L199.55 259.39V191.06" stroke="#EBEBEB" stroke-miterlimit="10"/>
<path d="M197.18 188.73C197.18 189.201 197.32 189.662 197.582 190.053C197.843 190.445 198.216 190.75 198.651 190.93C199.087 191.11 199.566 191.156 200.028 191.064C200.49 190.971 200.914 190.743 201.246 190.409C201.579 190.076 201.804 189.651 201.895 189.188C201.986 188.726 201.937 188.247 201.756 187.812C201.574 187.378 201.267 187.007 200.875 186.746C200.482 186.486 200.021 186.348 199.55 186.35C199.238 186.35 198.929 186.412 198.64 186.531C198.352 186.651 198.091 186.827 197.87 187.048C197.65 187.269 197.476 187.531 197.357 187.82C197.239 188.109 197.178 188.418 197.18 188.73Z" stroke="#EBEBEB" stroke-miterlimit="10"/>
<path d="M179.71 421.54V300.29L206.44 263.8V216.06" stroke="#EBEBEB" stroke-miterlimit="10"/>
<path d="M204.06 213.72C204.058 214.191 204.196 214.652 204.456 215.045C204.717 215.438 205.088 215.744 205.522 215.926C205.957 216.108 206.436 216.156 206.898 216.066C207.361 215.975 207.786 215.749 208.119 215.417C208.453 215.084 208.681 214.66 208.774 214.198C208.866 213.736 208.82 213.257 208.64 212.822C208.46 212.386 208.155 212.014 207.763 211.752C207.372 211.49 206.911 211.35 206.44 211.35C205.811 211.35 205.207 211.599 204.761 212.044C204.315 212.488 204.063 213.091 204.06 213.72Z" stroke="#EBEBEB" stroke-miterlimit="10"/>
<path d="M166.19 421.54V255.13" stroke="#EBEBEB" stroke-miterlimit="10"/>
<path d="M163.81 252.75C163.808 253.221 163.946 253.682 164.206 254.075C164.467 254.468 164.838 254.774 165.272 254.956C165.707 255.137 166.186 255.186 166.648 255.095C167.111 255.005 167.536 254.779 167.869 254.446C168.203 254.114 168.431 253.69 168.524 253.228C168.616 252.766 168.57 252.287 168.39 251.851C168.21 251.416 167.905 251.044 167.513 250.782C167.122 250.52 166.661 250.38 166.19 250.38C165.561 250.38 164.957 250.629 164.511 251.073C164.065 251.518 163.813 252.12 163.81 252.75Z" stroke="#EBEBEB" stroke-miterlimit="10"/>
<path d="M159.8 421.54V336.96L141.66 302.74V241.37" stroke="#EBEBEB" stroke-miterlimit="10"/>
<path d="M139.28 239C139.28 239.471 139.419 239.931 139.681 240.322C139.942 240.714 140.314 241.019 140.749 241.199C141.184 241.379 141.662 241.426 142.124 241.334C142.586 241.242 143.01 241.016 143.343 240.683C143.676 240.35 143.902 239.926 143.994 239.464C144.086 239.003 144.039 238.524 143.859 238.089C143.678 237.654 143.373 237.283 142.982 237.021C142.591 236.759 142.131 236.62 141.66 236.62C141.347 236.619 141.037 236.679 140.747 236.798C140.458 236.918 140.195 237.093 139.974 237.314C139.753 237.535 139.577 237.798 139.458 238.088C139.339 238.377 139.278 238.687 139.28 239Z" stroke="#EBEBEB" stroke-miterlimit="10"/>
<path d="M153.45 421.54V340.62L132.06 302.78V262.37" stroke="#EBEBEB" stroke-miterlimit="10"/>
<path d="M129.68 260C129.678 260.471 129.816 260.932 130.076 261.325C130.336 261.718 130.707 262.024 131.142 262.206C131.577 262.388 132.056 262.436 132.518 262.345C132.98 262.255 133.405 262.029 133.739 261.696C134.073 261.364 134.301 260.94 134.393 260.478C134.486 260.016 134.439 259.537 134.259 259.101C134.08 258.666 133.775 258.294 133.383 258.032C132.991 257.77 132.531 257.63 132.06 257.63C131.431 257.632 130.829 257.883 130.383 258.326C129.938 258.77 129.685 259.371 129.68 260Z" stroke="#EBEBEB" stroke-miterlimit="10"/>
<path d="M74.7197 37.56V0" stroke="#C7C7C7" stroke-miterlimit="10"/>
<path d="M97.93 59.92L96.06 64.03H53.38L51.52 59.92L69.69 47.35H79.76L97.93 59.92Z" fill="#EBEBEB"/>
<path d="M81.0197 35.23L79.7597 47.35H69.6897L68.4297 35.23H81.0197Z" fill="#DBDBDB"/>
<path d="M97.93 59.9301L96.06 64.0301H53.38L51.52 59.9301H97.93Z" fill="#DBDBDB"/>
<path d="M167.58 37.56V0" stroke="#C7C7C7" stroke-miterlimit="10"/>
<path d="M190.78 59.92L188.91 64.03H146.23L144.37 59.92L162.54 47.35H172.61L190.78 59.92Z" fill="#EBEBEB"/>
<path d="M173.87 35.23L172.61 47.35H162.54L161.28 35.23H173.87Z" fill="#DBDBDB"/>
<path d="M190.78 59.9301L188.91 64.0301H146.23L144.37 59.9301H190.78Z" fill="#DBDBDB"/>
<path d="M260.43 37.56V0" stroke="#C7C7C7" stroke-miterlimit="10"/>
<path d="M283.63 59.92L281.77 64.03H239.08L237.22 59.92L255.39 47.35H265.46L283.63 59.92Z" fill="#EBEBEB"/>
<path d="M266.72 35.23L265.46 47.35H255.39L254.13 35.23H266.72Z" fill="#DBDBDB"/>
<path d="M283.63 59.9301L281.76 64.0301H239.08L237.22 59.9301H283.63Z" fill="#DBDBDB"/>
<path d="M353.28 37.56V0" stroke="#C7C7C7" stroke-miterlimit="10"/>
<path d="M376.49 59.92L374.62 64.03H331.93L330.07 59.92L348.25 47.35H358.31L376.49 59.92Z" fill="#EBEBEB"/>
<path d="M359.57 35.23L358.31 47.35H348.25L346.98 35.23H359.57Z" fill="#DBDBDB"/>
<path d="M376.48 59.9301L374.62 64.0301H331.93L330.07 59.9301H376.48Z" fill="#DBDBDB"/>
<path d="M147.79 460.4C206.559 460.4 254.2 452.793 254.2 443.41C254.2 434.027 206.559 426.42 147.79 426.42C89.0213 426.42 41.3799 434.027 41.3799 443.41C41.3799 452.793 89.0213 460.4 147.79 460.4Z" fill="#EBEBEB"/>
<path d="M296.39 176.42H231.37V421.59H296.39V176.42Z" fill="#37474F"/>
<path d="M416.05 176.42H296.39V421.59H416.05V176.42Z" fill="#455A64"/>
<path d="M408.58 389.79H305.37V413.63H408.58V389.79Z" fill="#37474F"/>
<path d="M368.46 393.73H309.71V395.74H368.46V393.73Z" fill="#455A64"/>
<path d="M368.46 397.22H309.71V399.23H368.46V397.22Z" fill="#455A64"/>
<path d="M368.46 400.71H309.71V402.72H368.46V400.71Z" fill="#455A64"/>
<path d="M368.46 404.19H309.71V406.2H368.46V404.19Z" fill="#455A64"/>
<path d="M368.46 407.68H309.71V409.69H368.46V407.68Z" fill="#455A64"/>
<path d="M379.17 395.73C379.17 396.126 379.053 396.512 378.833 396.841C378.613 397.17 378.301 397.427 377.935 397.578C377.57 397.729 377.168 397.769 376.78 397.692C376.392 397.615 376.035 397.424 375.756 397.144C375.476 396.865 375.286 396.508 375.208 396.12C375.131 395.732 375.171 395.33 375.322 394.965C375.474 394.599 375.73 394.287 376.059 394.067C376.388 393.847 376.774 393.73 377.17 393.73C377.7 393.73 378.209 393.941 378.584 394.316C378.959 394.691 379.17 395.2 379.17 395.73Z" fill="#92E3A9"/>
<path d="M385.75 395.73C385.75 396.126 385.633 396.512 385.413 396.841C385.193 397.17 384.881 397.427 384.515 397.578C384.15 397.729 383.748 397.769 383.36 397.692C382.972 397.615 382.615 397.424 382.336 397.144C382.056 396.865 381.866 396.508 381.788 396.12C381.711 395.732 381.751 395.33 381.902 394.965C382.054 394.599 382.31 394.287 382.639 394.067C382.968 393.847 383.354 393.73 383.75 393.73C384.28 393.73 384.789 393.941 385.164 394.316C385.539 394.691 385.75 395.2 385.75 395.73Z" fill="#92E3A9"/>
<path d="M392.33 395.73C392.33 396.126 392.213 396.512 391.993 396.841C391.773 397.17 391.461 397.427 391.095 397.578C390.73 397.729 390.328 397.769 389.94 397.692C389.552 397.615 389.196 397.424 388.916 397.144C388.636 396.865 388.446 396.508 388.369 396.12C388.291 395.732 388.331 395.33 388.482 394.965C388.634 394.599 388.89 394.287 389.219 394.067C389.548 393.847 389.934 393.73 390.33 393.73C390.86 393.73 391.369 393.941 391.744 394.316C392.119 394.691 392.33 395.2 392.33 395.73Z" fill="#92E3A9"/>
<path d="M398.9 395.73C398.9 396.126 398.783 396.512 398.563 396.841C398.343 397.17 398.031 397.427 397.665 397.578C397.3 397.729 396.898 397.769 396.51 397.692C396.122 397.615 395.765 397.424 395.486 397.144C395.206 396.865 395.015 396.508 394.938 396.12C394.861 395.732 394.901 395.33 395.052 394.965C395.204 394.599 395.46 394.287 395.789 394.067C396.118 393.847 396.504 393.73 396.9 393.73C397.43 393.73 397.939 393.941 398.314 394.316C398.689 394.691 398.9 395.2 398.9 395.73Z" fill="#92E3A9"/>
<path d="M405.48 395.73C405.48 396.126 405.363 396.512 405.143 396.841C404.923 397.17 404.611 397.427 404.245 397.578C403.88 397.729 403.478 397.769 403.09 397.692C402.702 397.615 402.345 397.424 402.066 397.144C401.786 396.865 401.596 396.508 401.518 396.12C401.441 395.732 401.481 395.33 401.632 394.965C401.784 394.599 402.04 394.287 402.369 394.067C402.698 393.847 403.084 393.73 403.48 393.73C404.01 393.73 404.519 393.941 404.894 394.316C405.269 394.691 405.48 395.2 405.48 395.73Z" fill="#92E3A9"/>
<path d="M379.17 401.71C379.17 402.106 379.053 402.492 378.833 402.821C378.613 403.15 378.301 403.407 377.935 403.558C377.57 403.709 377.168 403.749 376.78 403.672C376.392 403.595 376.035 403.404 375.756 403.124C375.476 402.845 375.286 402.488 375.208 402.1C375.131 401.712 375.171 401.31 375.322 400.945C375.474 400.579 375.73 400.267 376.059 400.047C376.388 399.828 376.774 399.71 377.17 399.71C377.7 399.71 378.209 399.921 378.584 400.296C378.959 400.671 379.17 401.18 379.17 401.71Z" fill="#92E3A9"/>
<path d="M385.75 401.71C385.75 402.106 385.633 402.492 385.413 402.821C385.193 403.15 384.881 403.407 384.515 403.558C384.15 403.709 383.748 403.749 383.36 403.672C382.972 403.595 382.615 403.404 382.336 403.124C382.056 402.845 381.866 402.488 381.788 402.1C381.711 401.712 381.751 401.31 381.902 400.945C382.054 400.579 382.31 400.267 382.639 400.047C382.968 399.828 383.354 399.71 383.75 399.71C384.28 399.71 384.789 399.921 385.164 400.296C385.539 400.671 385.75 401.18 385.75 401.71Z" fill="#92E3A9"/>
<path d="M392.33 401.71C392.33 402.106 392.213 402.492 391.993 402.821C391.773 403.15 391.461 403.407 391.095 403.558C390.73 403.709 390.328 403.749 389.94 403.672C389.552 403.595 389.196 403.404 388.916 403.124C388.636 402.845 388.446 402.488 388.369 402.1C388.291 401.712 388.331 401.31 388.482 400.945C388.634 400.579 388.89 400.267 389.219 400.047C389.548 399.828 389.934 399.71 390.33 399.71C390.86 399.71 391.369 399.921 391.744 400.296C392.119 400.671 392.33 401.18 392.33 401.71Z" fill="#92E3A9"/>
<path d="M398.9 401.71C398.9 402.106 398.783 402.492 398.563 402.821C398.343 403.15 398.031 403.407 397.665 403.558C397.3 403.709 396.898 403.749 396.51 403.672C396.122 403.595 395.765 403.404 395.486 403.124C395.206 402.845 395.015 402.488 394.938 402.1C394.861 401.712 394.901 401.31 395.052 400.945C395.204 400.579 395.46 400.267 395.789 400.047C396.118 399.828 396.504 399.71 396.9 399.71C397.43 399.71 397.939 399.921 398.314 400.296C398.689 400.671 398.9 401.18 398.9 401.71Z" fill="#92E3A9"/>
<path d="M405.48 401.71C405.48 402.106 405.363 402.492 405.143 402.821C404.923 403.15 404.611 403.407 404.245 403.558C403.88 403.709 403.478 403.749 403.09 403.672C402.702 403.595 402.345 403.404 402.066 403.124C401.786 402.845 401.596 402.488 401.518 402.1C401.441 401.712 401.481 401.31 401.632 400.945C401.784 400.579 402.04 400.267 402.369 400.047C402.698 399.828 403.084 399.71 403.48 399.71C404.01 399.71 404.519 399.921 404.894 400.296C405.269 400.671 405.48 401.18 405.48 401.71Z" fill="#92E3A9"/>
<path d="M377.18 409.7C378.285 409.7 379.18 408.805 379.18 407.7C379.18 406.596 378.285 405.7 377.18 405.7C376.076 405.7 375.18 406.596 375.18 407.7C375.18 408.805 376.076 409.7 377.18 409.7Z" fill="#92E3A9"/>
<path d="M385.75 407.7C385.75 408.096 385.633 408.482 385.413 408.811C385.193 409.14 384.881 409.397 384.515 409.548C384.15 409.699 383.748 409.739 383.36 409.662C382.972 409.585 382.615 409.394 382.336 409.114C382.056 408.835 381.866 408.478 381.788 408.09C381.711 407.702 381.751 407.3 381.902 406.935C382.054 406.569 382.31 406.257 382.639 406.037C382.968 405.817 383.354 405.7 383.75 405.7C384.28 405.7 384.789 405.911 385.164 406.286C385.539 406.661 385.75 407.17 385.75 407.7Z" fill="#92E3A9"/>
<path d="M390.33 409.7C391.435 409.7 392.33 408.805 392.33 407.7C392.33 406.596 391.435 405.7 390.33 405.7C389.226 405.7 388.33 406.596 388.33 407.7C388.33 408.805 389.226 409.7 390.33 409.7Z" fill="#92E3A9"/>
<path d="M398.9 407.7C398.9 408.096 398.783 408.482 398.563 408.811C398.343 409.14 398.031 409.397 397.665 409.548C397.3 409.699 396.898 409.739 396.51 409.662C396.122 409.585 395.765 409.394 395.486 409.114C395.206 408.835 395.015 408.478 394.938 408.09C394.861 407.702 394.901 407.3 395.052 406.935C395.204 406.569 395.46 406.257 395.789 406.037C396.118 405.817 396.504 405.7 396.9 405.7C397.43 405.7 397.939 405.911 398.314 406.286C398.689 406.661 398.9 407.17 398.9 407.7Z" fill="#92E3A9"/>
<path d="M405.48 407.7C405.48 408.096 405.363 408.482 405.143 408.811C404.923 409.14 404.611 409.397 404.245 409.548C403.88 409.699 403.478 409.739 403.09 409.662C402.702 409.585 402.345 409.394 402.066 409.114C401.786 408.835 401.596 408.478 401.518 408.09C401.441 407.702 401.481 407.3 401.632 406.935C401.784 406.569 402.04 406.257 402.369 406.037C402.698 405.817 403.084 405.7 403.48 405.7C404.01 405.7 404.519 405.911 404.894 406.286C405.269 406.661 405.48 407.17 405.48 407.7Z" fill="#92E3A9"/>
<path d="M372.55 393.73H371.4V409.69H372.55V393.73Z" fill="#263238"/>
<path d="M408.58 361.07H305.37V384.91H408.58V361.07Z" fill="#37474F"/>
<path d="M368.46 365H309.71V367.01H368.46V365Z" fill="#455A64"/>
<path d="M368.46 368.49H309.71V370.5H368.46V368.49Z" fill="#455A64"/>
<path d="M368.46 371.98H309.71V373.99H368.46V371.98Z" fill="#455A64"/>
<path d="M368.46 375.47H309.71V377.48H368.46V375.47Z" fill="#455A64"/>
<path d="M368.46 378.95H309.71V380.96H368.46V378.95Z" fill="#455A64"/>
<path d="M379.17 367C379.17 367.396 379.053 367.782 378.833 368.111C378.613 368.44 378.301 368.696 377.935 368.848C377.57 368.999 377.168 369.039 376.78 368.962C376.392 368.884 376.035 368.694 375.756 368.414C375.476 368.135 375.286 367.778 375.208 367.39C375.131 367.002 375.171 366.6 375.322 366.235C375.474 365.869 375.73 365.557 376.059 365.337C376.388 365.117 376.774 365 377.17 365C377.7 365 378.209 365.211 378.584 365.586C378.959 365.961 379.17 366.47 379.17 367Z" fill="#92E3A9"/>
<path d="M385.75 367C385.75 367.396 385.633 367.782 385.413 368.111C385.193 368.44 384.881 368.696 384.515 368.848C384.15 368.999 383.748 369.039 383.36 368.962C382.972 368.884 382.615 368.694 382.336 368.414C382.056 368.135 381.866 367.778 381.788 367.39C381.711 367.002 381.751 366.6 381.902 366.235C382.054 365.869 382.31 365.557 382.639 365.337C382.968 365.117 383.354 365 383.75 365C384.28 365 384.789 365.211 385.164 365.586C385.539 365.961 385.75 366.47 385.75 367Z" fill="#92E3A9"/>
<path d="M392.33 367C392.33 367.396 392.213 367.782 391.993 368.111C391.773 368.44 391.461 368.696 391.095 368.848C390.73 368.999 390.328 369.039 389.94 368.962C389.552 368.884 389.196 368.694 388.916 368.414C388.636 368.135 388.446 367.778 388.369 367.39C388.291 367.002 388.331 366.6 388.482 366.235C388.634 365.869 388.89 365.557 389.219 365.337C389.548 365.117 389.934 365 390.33 365C390.86 365 391.369 365.211 391.744 365.586C392.119 365.961 392.33 366.47 392.33 367Z" fill="#92E3A9"/>
<path d="M398.9 367C398.9 367.396 398.783 367.782 398.563 368.111C398.343 368.44 398.031 368.696 397.665 368.848C397.3 368.999 396.898 369.039 396.51 368.962C396.122 368.884 395.765 368.694 395.486 368.414C395.206 368.135 395.015 367.778 394.938 367.39C394.861 367.002 394.901 366.6 395.052 366.235C395.204 365.869 395.46 365.557 395.789 365.337C396.118 365.117 396.504 365 396.9 365C397.43 365 397.939 365.211 398.314 365.586C398.689 365.961 398.9 366.47 398.9 367Z" fill="#92E3A9"/>
<path d="M405.48 367C405.48 367.396 405.363 367.782 405.143 368.111C404.923 368.44 404.611 368.696 404.245 368.848C403.88 368.999 403.478 369.039 403.09 368.962C402.702 368.884 402.345 368.694 402.066 368.414C401.786 368.135 401.596 367.778 401.518 367.39C401.441 367.002 401.481 366.6 401.632 366.235C401.784 365.869 402.04 365.557 402.369 365.337C402.698 365.117 403.084 365 403.48 365C404.01 365 404.519 365.211 404.894 365.586C405.269 365.961 405.48 366.47 405.48 367Z" fill="#92E3A9"/>
<path d="M379.17 373C379.17 373.396 379.053 373.782 378.833 374.111C378.613 374.44 378.301 374.696 377.935 374.848C377.57 374.999 377.168 375.039 376.78 374.962C376.392 374.884 376.035 374.694 375.756 374.414C375.476 374.135 375.286 373.778 375.208 373.39C375.131 373.002 375.171 372.6 375.322 372.235C375.474 371.869 375.73 371.557 376.059 371.337C376.388 371.117 376.774 371 377.17 371C377.7 371 378.209 371.211 378.584 371.586C378.959 371.961 379.17 372.47 379.17 373Z" fill="#92E3A9"/>
<path d="M385.75 373C385.75 373.396 385.633 373.782 385.413 374.111C385.193 374.44 384.881 374.696 384.515 374.848C384.15 374.999 383.748 375.039 383.36 374.962C382.972 374.884 382.615 374.694 382.336 374.414C382.056 374.135 381.866 373.778 381.788 373.39C381.711 373.002 381.751 372.6 381.902 372.235C382.054 371.869 382.31 371.557 382.639 371.337C382.968 371.117 383.354 371 383.75 371C384.28 371 384.789 371.211 385.164 371.586C385.539 371.961 385.75 372.47 385.75 373Z" fill="#92E3A9"/>
<path d="M392.33 373C392.33 373.396 392.213 373.782 391.993 374.111C391.773 374.44 391.461 374.696 391.095 374.848C390.73 374.999 390.328 375.039 389.94 374.962C389.552 374.884 389.196 374.694 388.916 374.414C388.636 374.135 388.446 373.778 388.369 373.39C388.291 373.002 388.331 372.6 388.482 372.235C388.634 371.869 388.89 371.557 389.219 371.337C389.548 371.117 389.934 371 390.33 371C390.86 371 391.369 371.211 391.744 371.586C392.119 371.961 392.33 372.47 392.33 373Z" fill="#92E3A9"/>
<path d="M398.9 373C398.9 373.396 398.783 373.782 398.563 374.111C398.343 374.44 398.031 374.696 397.665 374.848C397.3 374.999 396.898 375.039 396.51 374.962C396.122 374.884 395.765 374.694 395.486 374.414C395.206 374.135 395.015 373.778 394.938 373.39C394.861 373.002 394.901 372.6 395.052 372.235C395.204 371.869 395.46 371.557 395.789 371.337C396.118 371.117 396.504 371 396.9 371C397.43 371 397.939 371.211 398.314 371.586C398.689 371.961 398.9 372.47 398.9 373Z" fill="#92E3A9"/>
<path d="M405.48 373C405.48 373.396 405.363 373.782 405.143 374.111C404.923 374.44 404.611 374.696 404.245 374.848C403.88 374.999 403.478 375.039 403.09 374.962C402.702 374.884 402.345 374.694 402.066 374.414C401.786 374.135 401.596 373.778 401.518 373.39C401.441 373.002 401.481 372.6 401.632 372.235C401.784 371.869 402.04 371.557 402.369 371.337C402.698 371.117 403.084 371 403.48 371C404.01 371 404.519 371.211 404.894 371.586C405.269 371.961 405.48 372.47 405.48 373Z" fill="#92E3A9"/>
<path d="M379.17 379C379.17 379.396 379.053 379.782 378.833 380.111C378.613 380.44 378.301 380.696 377.935 380.848C377.57 380.999 377.168 381.039 376.78 380.962C376.392 380.884 376.035 380.694 375.756 380.414C375.476 380.135 375.286 379.778 375.208 379.39C375.131 379.002 375.171 378.6 375.322 378.235C375.474 377.869 375.73 377.557 376.059 377.337C376.388 377.117 376.774 377 377.17 377C377.7 377 378.209 377.211 378.584 377.586C378.959 377.961 379.17 378.47 379.17 379Z" fill="#92E3A9"/>
<path d="M385.75 379C385.75 379.396 385.633 379.782 385.413 380.111C385.193 380.44 384.881 380.696 384.515 380.848C384.15 380.999 383.748 381.039 383.36 380.962C382.972 380.884 382.615 380.694 382.336 380.414C382.056 380.135 381.866 379.778 381.788 379.39C381.711 379.002 381.751 378.6 381.902 378.235C382.054 377.869 382.31 377.557 382.639 377.337C382.968 377.117 383.354 377 383.75 377C384.28 377 384.789 377.211 385.164 377.586C385.539 377.961 385.75 378.47 385.75 379Z" fill="#92E3A9"/>
<path d="M392.33 379C392.33 379.396 392.213 379.782 391.993 380.111C391.773 380.44 391.461 380.696 391.095 380.848C390.73 380.999 390.328 381.039 389.94 380.962C389.552 380.884 389.196 380.694 388.916 380.414C388.636 380.135 388.446 379.778 388.369 379.39C388.291 379.002 388.331 378.6 388.482 378.235C388.634 377.869 388.89 377.557 389.219 377.337C389.548 377.117 389.934 377 390.33 377C390.86 377 391.369 377.211 391.744 377.586C392.119 377.961 392.33 378.47 392.33 379Z" fill="#92E3A9"/>
<path d="M398.9 379C398.9 379.396 398.783 379.782 398.563 380.111C398.343 380.44 398.031 380.696 397.665 380.848C397.3 380.999 396.898 381.039 396.51 380.962C396.122 380.884 395.765 380.694 395.486 380.414C395.206 380.135 395.015 379.778 394.938 379.39C394.861 379.002 394.901 378.6 395.052 378.235C395.204 377.869 395.46 377.557 395.789 377.337C396.118 377.117 396.504 377 396.9 377C397.43 377 397.939 377.211 398.314 377.586C398.689 377.961 398.9 378.47 398.9 379Z" fill="#92E3A9"/>
<path d="M405.48 379C405.48 379.396 405.363 379.782 405.143 380.111C404.923 380.44 404.611 380.696 404.245 380.848C403.88 380.999 403.478 381.039 403.09 380.962C402.702 380.884 402.345 380.694 402.066 380.414C401.786 380.135 401.596 379.778 401.518 379.39C401.441 379.002 401.481 378.6 401.632 378.235C401.784 377.869 402.04 377.557 402.369 377.337C402.698 377.117 403.084 377 403.48 377C404.01 377 404.519 377.211 404.894 377.586C405.269 377.961 405.48 378.47 405.48 379Z" fill="#92E3A9"/>
<path d="M372.55 365H371.4V380.96H372.55V365Z" fill="#263238"/>
<path d="M408.58 332.34H305.37V356.18H408.58V332.34Z" fill="#37474F"/>
<path d="M368.46 336.28H309.71V338.29H368.46V336.28Z" fill="#455A64"/>
<path d="M368.46 339.76H309.71V341.77H368.46V339.76Z" fill="#455A64"/>
<path d="M368.46 343.25H309.71V345.26H368.46V343.25Z" fill="#455A64"/>
<path d="M368.46 346.74H309.71V348.75H368.46V346.74Z" fill="#455A64"/>
<path d="M368.46 350.23H309.71V352.24H368.46V350.23Z" fill="#455A64"/>
<path d="M377.18 340.27C378.285 340.27 379.18 339.375 379.18 338.27C379.18 337.165 378.285 336.27 377.18 336.27C376.076 336.27 375.18 337.165 375.18 338.27C375.18 339.375 376.076 340.27 377.18 340.27Z" fill="#92E3A9"/>
<path d="M385.75 338.27C385.75 338.666 385.633 339.052 385.413 339.381C385.193 339.71 384.881 339.966 384.515 340.118C384.15 340.269 383.748 340.309 383.36 340.232C382.972 340.154 382.615 339.964 382.336 339.684C382.056 339.405 381.866 339.048 381.788 338.66C381.711 338.272 381.751 337.87 381.902 337.505C382.054 337.139 382.31 336.827 382.639 336.607C382.968 336.387 383.354 336.27 383.75 336.27C384.28 336.27 384.789 336.481 385.164 336.856C385.539 337.231 385.75 337.74 385.75 338.27Z" fill="#92E3A9"/>
<path d="M390.33 340.27C391.435 340.27 392.33 339.375 392.33 338.27C392.33 337.165 391.435 336.27 390.33 336.27C389.226 336.27 388.33 337.165 388.33 338.27C388.33 339.375 389.226 340.27 390.33 340.27Z" fill="#92E3A9"/>
<path d="M398.9 338.27C398.9 338.666 398.783 339.052 398.563 339.381C398.343 339.71 398.031 339.966 397.665 340.118C397.3 340.269 396.898 340.309 396.51 340.232C396.122 340.154 395.765 339.964 395.486 339.684C395.206 339.405 395.015 339.048 394.938 338.66C394.861 338.272 394.901 337.87 395.052 337.505C395.204 337.139 395.46 336.827 395.789 336.607C396.118 336.387 396.504 336.27 396.9 336.27C397.43 336.27 397.939 336.481 398.314 336.856C398.689 337.231 398.9 337.74 398.9 338.27Z" fill="#92E3A9"/>
<path d="M405.48 338.27C405.48 338.666 405.363 339.052 405.143 339.381C404.923 339.71 404.611 339.966 404.245 340.118C403.88 340.269 403.478 340.309 403.09 340.232C402.702 340.154 402.345 339.964 402.066 339.684C401.786 339.405 401.596 339.048 401.518 338.66C401.441 338.272 401.481 337.87 401.632 337.505C401.784 337.139 402.04 336.827 402.369 336.607C402.698 336.387 403.084 336.27 403.48 336.27C404.01 336.27 404.519 336.481 404.894 336.856C405.269 337.231 405.48 337.74 405.48 338.27Z" fill="#92E3A9"/>
<path d="M379.17 344.26C379.17 344.656 379.053 345.042 378.833 345.371C378.613 345.7 378.301 345.956 377.935 346.108C377.57 346.259 377.168 346.299 376.78 346.222C376.392 346.144 376.035 345.954 375.756 345.674C375.476 345.395 375.286 345.038 375.208 344.65C375.131 344.262 375.171 343.86 375.322 343.495C375.474 343.129 375.73 342.817 376.059 342.597C376.388 342.377 376.774 342.26 377.17 342.26C377.7 342.26 378.209 342.471 378.584 342.846C378.959 343.221 379.17 343.73 379.17 344.26Z" fill="#92E3A9"/>
<path d="M385.75 344.26C385.75 344.656 385.633 345.042 385.413 345.371C385.193 345.7 384.881 345.956 384.515 346.108C384.15 346.259 383.748 346.299 383.36 346.222C382.972 346.144 382.615 345.954 382.336 345.674C382.056 345.395 381.866 345.038 381.788 344.65C381.711 344.262 381.751 343.86 381.902 343.495C382.054 343.129 382.31 342.817 382.639 342.597C382.968 342.377 383.354 342.26 383.75 342.26C384.28 342.26 384.789 342.471 385.164 342.846C385.539 343.221 385.75 343.73 385.75 344.26Z" fill="#92E3A9"/>
<path d="M392.33 344.26C392.33 344.656 392.213 345.042 391.993 345.371C391.773 345.7 391.461 345.956 391.095 346.108C390.73 346.259 390.328 346.299 389.94 346.222C389.552 346.144 389.196 345.954 388.916 345.674C388.636 345.395 388.446 345.038 388.369 344.65C388.291 344.262 388.331 343.86 388.482 343.495C388.634 343.129 388.89 342.817 389.219 342.597C389.548 342.377 389.934 342.26 390.33 342.26C390.86 342.26 391.369 342.471 391.744 342.846C392.119 343.221 392.33 343.73 392.33 344.26Z" fill="#92E3A9"/>
<path d="M398.9 344.26C398.9 344.656 398.783 345.042 398.563 345.371C398.343 345.7 398.031 345.956 397.665 346.108C397.3 346.259 396.898 346.299 396.51 346.222C396.122 346.144 395.765 345.954 395.486 345.674C395.206 345.395 395.015 345.038 394.938 344.65C394.861 344.262 394.901 343.86 395.052 343.495C395.204 343.129 395.46 342.817 395.789 342.597C396.118 342.377 396.504 342.26 396.9 342.26C397.43 342.26 397.939 342.471 398.314 342.846C398.689 343.221 398.9 343.73 398.9 344.26Z" fill="#92E3A9"/>
<path d="M405.48 344.26C405.48 344.656 405.363 345.042 405.143 345.371C404.923 345.7 404.611 345.956 404.245 346.108C403.88 346.259 403.478 346.299 403.09 346.222C402.702 346.144 402.345 345.954 402.066 345.674C401.786 345.395 401.596 345.038 401.518 344.65C401.441 344.262 401.481 343.86 401.632 343.495C401.784 343.129 402.04 342.817 402.369 342.597C402.698 342.377 403.084 342.26 403.48 342.26C404.01 342.26 404.519 342.471 404.894 342.846C405.269 343.221 405.48 343.73 405.48 344.26Z" fill="#92E3A9"/>
<path d="M379.17 350.24C379.17 350.636 379.053 351.022 378.833 351.351C378.613 351.68 378.301 351.936 377.935 352.088C377.57 352.239 377.168 352.279 376.78 352.202C376.392 352.124 376.035 351.934 375.756 351.654C375.476 351.375 375.286 351.018 375.208 350.63C375.131 350.242 375.171 349.84 375.322 349.475C375.474 349.109 375.73 348.797 376.059 348.577C376.388 348.357 376.774 348.24 377.17 348.24C377.7 348.24 378.209 348.451 378.584 348.826C378.959 349.201 379.17 349.71 379.17 350.24Z" fill="#92E3A9"/>
<path d="M385.75 350.24C385.75 350.636 385.633 351.022 385.413 351.351C385.193 351.68 384.881 351.936 384.515 352.088C384.15 352.239 383.748 352.279 383.36 352.202C382.972 352.124 382.615 351.934 382.336 351.654C382.056 351.375 381.866 351.018 381.788 350.63C381.711 350.242 381.751 349.84 381.902 349.475C382.054 349.109 382.31 348.797 382.639 348.577C382.968 348.357 383.354 348.24 383.75 348.24C384.28 348.24 384.789 348.451 385.164 348.826C385.539 349.201 385.75 349.71 385.75 350.24Z" fill="#92E3A9"/>
<path d="M392.33 350.24C392.33 350.636 392.213 351.022 391.993 351.351C391.773 351.68 391.461 351.936 391.095 352.088C390.73 352.239 390.328 352.279 389.94 352.202C389.552 352.124 389.196 351.934 388.916 351.654C388.636 351.375 388.446 351.018 388.369 350.63C388.291 350.242 388.331 349.84 388.482 349.475C388.634 349.109 388.89 348.797 389.219 348.577C389.548 348.357 389.934 348.24 390.33 348.24C390.86 348.24 391.369 348.451 391.744 348.826C392.119 349.201 392.33 349.71 392.33 350.24Z" fill="#92E3A9"/>
<path d="M398.9 350.24C398.9 350.636 398.783 351.022 398.563 351.351C398.343 351.68 398.031 351.936 397.665 352.088C397.3 352.239 396.898 352.279 396.51 352.202C396.122 352.124 395.765 351.934 395.486 351.654C395.206 351.375 395.015 351.018 394.938 350.63C394.861 350.242 394.901 349.84 395.052 349.475C395.204 349.109 395.46 348.797 395.789 348.577C396.118 348.357 396.504 348.24 396.9 348.24C397.43 348.24 397.939 348.451 398.314 348.826C398.689 349.201 398.9 349.71 398.9 350.24Z" fill="#92E3A9"/>
<path d="M405.48 350.24C405.48 350.636 405.363 351.022 405.143 351.351C404.923 351.68 404.611 351.936 404.245 352.088C403.88 352.239 403.478 352.279 403.09 352.202C402.702 352.124 402.345 351.934 402.066 351.654C401.786 351.375 401.596 351.018 401.518 350.63C401.441 350.242 401.481 349.84 401.632 349.475C401.784 349.109 402.04 348.797 402.369 348.577C402.698 348.357 403.084 348.24 403.48 348.24C404.01 348.24 404.519 348.451 404.894 348.826C405.269 349.201 405.48 349.71 405.48 350.24Z" fill="#92E3A9"/>
<path d="M372.55 336.28H371.4V352.24H372.55V336.28Z" fill="#263238"/>
<path d="M408.58 303.61H305.37V327.45H408.58V303.61Z" fill="#37474F"/>
<path d="M368.46 307.55H309.71V309.56H368.46V307.55Z" fill="#455A64"/>
<path d="M368.46 311.03H309.71V313.04H368.46V311.03Z" fill="#455A64"/>
<path d="M368.46 314.52H309.71V316.53H368.46V314.52Z" fill="#455A64"/>
<path d="M368.46 318.01H309.71V320.02H368.46V318.01Z" fill="#455A64"/>
<path d="M368.46 321.5H309.71V323.51H368.46V321.5Z" fill="#455A64"/>
<path d="M379.17 309.54C379.17 309.936 379.053 310.322 378.833 310.651C378.613 310.98 378.301 311.236 377.935 311.388C377.57 311.539 377.168 311.579 376.78 311.502C376.392 311.424 376.035 311.234 375.756 310.954C375.476 310.675 375.286 310.318 375.208 309.93C375.131 309.542 375.171 309.14 375.322 308.775C375.474 308.409 375.73 308.097 376.059 307.877C376.388 307.657 376.774 307.54 377.17 307.54C377.7 307.54 378.209 307.751 378.584 308.126C378.959 308.501 379.17 309.01 379.17 309.54Z" fill="#92E3A9"/>
<path d="M385.75 309.54C385.75 309.936 385.633 310.322 385.413 310.651C385.193 310.98 384.881 311.236 384.515 311.388C384.15 311.539 383.748 311.579 383.36 311.502C382.972 311.424 382.615 311.234 382.336 310.954C382.056 310.675 381.866 310.318 381.788 309.93C381.711 309.542 381.751 309.14 381.902 308.775C382.054 308.409 382.31 308.097 382.639 307.877C382.968 307.657 383.354 307.54 383.75 307.54C384.28 307.54 384.789 307.751 385.164 308.126C385.539 308.501 385.75 309.01 385.75 309.54Z" fill="#92E3A9"/>
<path d="M392.33 309.54C392.33 309.936 392.213 310.322 391.993 310.651C391.773 310.98 391.461 311.236 391.095 311.388C390.73 311.539 390.328 311.579 389.94 311.502C389.552 311.424 389.196 311.234 388.916 310.954C388.636 310.675 388.446 310.318 388.369 309.93C388.291 309.542 388.331 309.14 388.482 308.775C388.634 308.409 388.89 308.097 389.219 307.877C389.548 307.657 389.934 307.54 390.33 307.54C390.86 307.54 391.369 307.751 391.744 308.126C392.119 308.501 392.33 309.01 392.33 309.54Z" fill="#92E3A9"/>
<path d="M398.9 309.54C398.9 309.936 398.783 310.322 398.563 310.651C398.343 310.98 398.031 311.236 397.665 311.388C397.3 311.539 396.898 311.579 396.51 311.502C396.122 311.424 395.765 311.234 395.486 310.954C395.206 310.675 395.015 310.318 394.938 309.93C394.861 309.542 394.901 309.14 395.052 308.775C395.204 308.409 395.46 308.097 395.789 307.877C396.118 307.657 396.504 307.54 396.9 307.54C397.43 307.54 397.939 307.751 398.314 308.126C398.689 308.501 398.9 309.01 398.9 309.54Z" fill="#92E3A9"/>
<path d="M405.48 309.54C405.48 309.936 405.363 310.322 405.143 310.651C404.923 310.98 404.611 311.236 404.245 311.388C403.88 311.539 403.478 311.579 403.09 311.502C402.702 311.424 402.345 311.234 402.066 310.954C401.786 310.675 401.596 310.318 401.518 309.93C401.441 309.542 401.481 309.14 401.632 308.775C401.784 308.409 402.04 308.097 402.369 307.877C402.698 307.657 403.084 307.54 403.48 307.54C404.01 307.54 404.519 307.751 404.894 308.126C405.269 308.501 405.48 309.01 405.48 309.54Z" fill="#92E3A9"/>
<path d="M377.18 317.53C378.285 317.53 379.18 316.635 379.18 315.53C379.18 314.425 378.285 313.53 377.18 313.53C376.076 313.53 375.18 314.425 375.18 315.53C375.18 316.635 376.076 317.53 377.18 317.53Z" fill="#92E3A9"/>
<path d="M385.75 315.53C385.75 315.926 385.633 316.312 385.413 316.641C385.193 316.97 384.881 317.226 384.515 317.378C384.15 317.529 383.748 317.569 383.36 317.492C382.972 317.414 382.615 317.224 382.336 316.944C382.056 316.665 381.866 316.308 381.788 315.92C381.711 315.532 381.751 315.13 381.902 314.765C382.054 314.399 382.31 314.087 382.639 313.867C382.968 313.647 383.354 313.53 383.75 313.53C384.28 313.53 384.789 313.741 385.164 314.116C385.539 314.491 385.75 315 385.75 315.53Z" fill="#92E3A9"/>
<path d="M390.33 317.53C391.435 317.53 392.33 316.635 392.33 315.53C392.33 314.425 391.435 313.53 390.33 313.53C389.226 313.53 388.33 314.425 388.33 315.53C388.33 316.635 389.226 317.53 390.33 317.53Z" fill="#92E3A9"/>
<path d="M398.9 315.53C398.9 315.926 398.783 316.312 398.563 316.641C398.343 316.97 398.031 317.226 397.665 317.378C397.3 317.529 396.898 317.569 396.51 317.492C396.122 317.414 395.765 317.224 395.486 316.944C395.206 316.665 395.015 316.308 394.938 315.92C394.861 315.532 394.901 315.13 395.052 314.765C395.204 314.399 395.46 314.087 395.789 313.867C396.118 313.647 396.504 313.53 396.9 313.53C397.43 313.53 397.939 313.741 398.314 314.116C398.689 314.491 398.9 315 398.9 315.53Z" fill="#92E3A9"/>
<path d="M405.48 315.53C405.48 315.926 405.363 316.312 405.143 316.641C404.923 316.97 404.611 317.226 404.245 317.378C403.88 317.529 403.478 317.569 403.09 317.492C402.702 317.414 402.345 317.224 402.066 316.944C401.786 316.665 401.596 316.308 401.518 315.92C401.441 315.532 401.481 315.13 401.632 314.765C401.784 314.399 402.04 314.087 402.369 313.867C402.698 313.647 403.084 313.53 403.48 313.53C404.01 313.53 404.519 313.741 404.894 314.116C405.269 314.491 405.48 315 405.48 315.53Z" fill="#92E3A9"/>
<path d="M377.18 323.51C378.285 323.51 379.18 322.615 379.18 321.51C379.18 320.405 378.285 319.51 377.18 319.51C376.076 319.51 375.18 320.405 375.18 321.51C375.18 322.615 376.076 323.51 377.18 323.51Z" fill="#92E3A9"/>
<path d="M385.75 321.51C385.75 321.906 385.633 322.292 385.413 322.621C385.193 322.95 384.881 323.206 384.515 323.358C384.15 323.509 383.748 323.549 383.36 323.472C382.972 323.394 382.615 323.204 382.336 322.924C382.056 322.645 381.866 322.288 381.788 321.9C381.711 321.512 381.751 321.11 381.902 320.745C382.054 320.379 382.31 320.067 382.639 319.847C382.968 319.627 383.354 319.51 383.75 319.51C384.28 319.51 384.789 319.721 385.164 320.096C385.539 320.471 385.75 320.98 385.75 321.51Z" fill="#92E3A9"/>
<path d="M390.33 323.51C391.435 323.51 392.33 322.615 392.33 321.51C392.33 320.405 391.435 319.51 390.33 319.51C389.226 319.51 388.33 320.405 388.33 321.51C388.33 322.615 389.226 323.51 390.33 323.51Z" fill="#92E3A9"/>
<path d="M398.9 321.51C398.9 321.906 398.783 322.292 398.563 322.621C398.343 322.95 398.031 323.206 397.665 323.358C397.3 323.509 396.898 323.549 396.51 323.472C396.122 323.394 395.765 323.204 395.486 322.924C395.206 322.645 395.015 322.288 394.938 321.9C394.861 321.512 394.901 321.11 395.052 320.745C395.204 320.379 395.46 320.067 395.789 319.847C396.118 319.627 396.504 319.51 396.9 319.51C397.43 319.51 397.939 319.721 398.314 320.096C398.689 320.471 398.9 320.98 398.9 321.51Z" fill="#92E3A9"/>
<path d="M405.48 321.51C405.48 321.906 405.363 322.292 405.143 322.621C404.923 322.95 404.611 323.206 404.245 323.358C403.88 323.509 403.478 323.549 403.09 323.472C402.702 323.394 402.345 323.204 402.066 322.924C401.786 322.645 401.596 322.288 401.518 321.9C401.441 321.512 401.481 321.11 401.632 320.745C401.784 320.379 402.04 320.067 402.369 319.847C402.698 319.627 403.084 319.51 403.48 319.51C404.01 319.51 404.519 319.721 404.894 320.096C405.269 320.471 405.48 320.98 405.48 321.51Z" fill="#92E3A9"/>
<path d="M372.55 307.55H371.4V323.51H372.55V307.55Z" fill="#263238"/>
<path d="M408.58 274.88H305.37V298.72H408.58V274.88Z" fill="#37474F"/>
<path d="M368.46 278.82H309.71V280.83H368.46V278.82Z" fill="#455A64"/>
<path d="M368.46 282.31H309.71V284.32H368.46V282.31Z" fill="#455A64"/>
<path d="M368.46 285.79H309.71V287.8H368.46V285.79Z" fill="#455A64"/>
<path d="M368.46 289.28H309.71V291.29H368.46V289.28Z" fill="#455A64"/>
<path d="M368.46 292.77H309.71V294.78H368.46V292.77Z" fill="#455A64"/>
<path d="M377.18 282.82C378.285 282.82 379.18 281.925 379.18 280.82C379.18 279.715 378.285 278.82 377.18 278.82C376.076 278.82 375.18 279.715 375.18 280.82C375.18 281.925 376.076 282.82 377.18 282.82Z" fill="#92E3A9"/>
<path d="M385.75 280.82C385.75 281.216 385.633 281.602 385.413 281.931C385.193 282.26 384.881 282.516 384.515 282.668C384.15 282.819 383.748 282.859 383.36 282.782C382.972 282.704 382.615 282.514 382.336 282.234C382.056 281.955 381.866 281.598 381.788 281.21C381.711 280.822 381.751 280.42 381.902 280.055C382.054 279.689 382.31 279.377 382.639 279.157C382.968 278.937 383.354 278.82 383.75 278.82C384.28 278.82 384.789 279.031 385.164 279.406C385.539 279.781 385.75 280.29 385.75 280.82Z" fill="#92E3A9"/>
<path d="M390.33 282.82C391.435 282.82 392.33 281.925 392.33 280.82C392.33 279.715 391.435 278.82 390.33 278.82C389.226 278.82 388.33 279.715 388.33 280.82C388.33 281.925 389.226 282.82 390.33 282.82Z" fill="#92E3A9"/>
<path d="M398.9 280.82C398.9 281.216 398.783 281.602 398.563 281.931C398.343 282.26 398.031 282.516 397.665 282.668C397.3 282.819 396.898 282.859 396.51 282.782C396.122 282.704 395.765 282.514 395.486 282.234C395.206 281.955 395.015 281.598 394.938 281.21C394.861 280.822 394.901 280.42 395.052 280.055C395.204 279.689 395.46 279.377 395.789 279.157C396.118 278.937 396.504 278.82 396.9 278.82C397.43 278.82 397.939 279.031 398.314 279.406C398.689 279.781 398.9 280.29 398.9 280.82Z" fill="#92E3A9"/>
<path d="M405.48 280.82C405.48 281.216 405.363 281.602 405.143 281.931C404.923 282.26 404.611 282.516 404.245 282.668C403.88 282.819 403.478 282.859 403.09 282.782C402.702 282.704 402.345 282.514 402.066 282.234C401.786 281.955 401.596 281.598 401.518 281.21C401.441 280.822 401.481 280.42 401.632 280.055C401.784 279.689 402.04 279.377 402.369 279.157C402.698 278.937 403.084 278.82 403.48 278.82C404.01 278.82 404.519 279.031 404.894 279.406C405.269 279.781 405.48 280.29 405.48 280.82Z" fill="#92E3A9"/>
<path d="M377.18 288.8C378.285 288.8 379.18 287.905 379.18 286.8C379.18 285.695 378.285 284.8 377.18 284.8C376.076 284.8 375.18 285.695 375.18 286.8C375.18 287.905 376.076 288.8 377.18 288.8Z" fill="#92E3A9"/>
<path d="M385.75 286.8C385.75 287.196 385.633 287.582 385.413 287.911C385.193 288.24 384.881 288.496 384.515 288.648C384.15 288.799 383.748 288.839 383.36 288.762C382.972 288.684 382.615 288.494 382.336 288.214C382.056 287.935 381.866 287.578 381.788 287.19C381.711 286.802 381.751 286.4 381.902 286.035C382.054 285.669 382.31 285.357 382.639 285.137C382.968 284.917 383.354 284.8 383.75 284.8C384.28 284.8 384.789 285.011 385.164 285.386C385.539 285.761 385.75 286.27 385.75 286.8Z" fill="#92E3A9"/>
<path d="M390.33 288.8C391.435 288.8 392.33 287.905 392.33 286.8C392.33 285.695 391.435 284.8 390.33 284.8C389.226 284.8 388.33 285.695 388.33 286.8C388.33 287.905 389.226 288.8 390.33 288.8Z" fill="#92E3A9"/>
<path d="M398.9 286.8C398.9 287.196 398.783 287.582 398.563 287.911C398.343 288.24 398.031 288.496 397.665 288.648C397.3 288.799 396.898 288.839 396.51 288.762C396.122 288.684 395.765 288.494 395.486 288.214C395.206 287.935 395.015 287.578 394.938 287.19C394.861 286.802 394.901 286.4 395.052 286.035C395.204 285.669 395.46 285.357 395.789 285.137C396.118 284.917 396.504 284.8 396.9 284.8C397.43 284.8 397.939 285.011 398.314 285.386C398.689 285.761 398.9 286.27 398.9 286.8Z" fill="#92E3A9"/>
<path d="M405.48 286.8C405.48 287.196 405.363 287.582 405.143 287.911C404.923 288.24 404.611 288.496 404.245 288.648C403.88 288.799 403.478 288.839 403.09 288.762C402.702 288.684 402.345 288.494 402.066 288.214C401.786 287.935 401.596 287.578 401.518 287.19C401.441 286.802 401.481 286.4 401.632 286.035C401.784 285.669 402.04 285.357 402.369 285.137C402.698 284.917 403.084 284.8 403.48 284.8C404.01 284.8 404.519 285.011 404.894 285.386C405.269 285.761 405.48 286.27 405.48 286.8Z" fill="#92E3A9"/>
<path d="M379.17 292.79C379.17 293.186 379.053 293.572 378.833 293.901C378.613 294.23 378.301 294.486 377.935 294.638C377.57 294.789 377.168 294.829 376.78 294.752C376.392 294.674 376.035 294.484 375.756 294.204C375.476 293.925 375.286 293.568 375.208 293.18C375.131 292.792 375.171 292.39 375.322 292.025C375.474 291.659 375.73 291.347 376.059 291.127C376.388 290.907 376.774 290.79 377.17 290.79C377.7 290.79 378.209 291.001 378.584 291.376C378.959 291.751 379.17 292.26 379.17 292.79Z" fill="#92E3A9"/>
<path d="M385.75 292.79C385.75 293.186 385.633 293.572 385.413 293.901C385.193 294.23 384.881 294.486 384.515 294.638C384.15 294.789 383.748 294.829 383.36 294.752C382.972 294.674 382.615 294.484 382.336 294.204C382.056 293.925 381.866 293.568 381.788 293.18C381.711 292.792 381.751 292.39 381.902 292.025C382.054 291.659 382.31 291.347 382.639 291.127C382.968 290.907 383.354 290.79 383.75 290.79C384.28 290.79 384.789 291.001 385.164 291.376C385.539 291.751 385.75 292.26 385.75 292.79Z" fill="#92E3A9"/>
<path d="M392.33 292.79C392.33 293.186 392.213 293.572 391.993 293.901C391.773 294.23 391.461 294.486 391.095 294.638C390.73 294.789 390.328 294.829 389.94 294.752C389.552 294.674 389.196 294.484 388.916 294.204C388.636 293.925 388.446 293.568 388.369 293.18C388.291 292.792 388.331 292.39 388.482 292.025C388.634 291.659 388.89 291.347 389.219 291.127C389.548 290.907 389.934 290.79 390.33 290.79C390.86 290.79 391.369 291.001 391.744 291.376C392.119 291.751 392.33 292.26 392.33 292.79Z" fill="#92E3A9"/>
<path d="M398.9 292.79C398.9 293.186 398.783 293.572 398.563 293.901C398.343 294.23 398.031 294.486 397.665 294.638C397.3 294.789 396.898 294.829 396.51 294.752C396.122 294.674 395.765 294.484 395.486 294.204C395.206 293.925 395.015 293.568 394.938 293.18C394.861 292.792 394.901 292.39 395.052 292.025C395.204 291.659 395.46 291.347 395.789 291.127C396.118 290.907 396.504 290.79 396.9 290.79C397.43 290.79 397.939 291.001 398.314 291.376C398.689 291.751 398.9 292.26 398.9 292.79Z" fill="#92E3A9"/>
<path d="M405.48 292.79C405.48 293.186 405.363 293.572 405.143 293.901C404.923 294.23 404.611 294.486 404.245 294.638C403.88 294.789 403.478 294.829 403.09 294.752C402.702 294.674 402.345 294.484 402.066 294.204C401.786 293.925 401.596 293.568 401.518 293.18C401.441 292.792 401.481 292.39 401.632 292.025C401.784 291.659 402.04 291.347 402.369 291.127C402.698 290.907 403.084 290.79 403.48 290.79C404.01 290.79 404.519 291.001 404.894 291.376C405.269 291.751 405.48 292.26 405.48 292.79Z" fill="#92E3A9"/>
<path d="M372.55 278.82H371.4V294.78H372.55V278.82Z" fill="#263238"/>
<path d="M408.58 246.15H305.37V269.99H408.58V246.15Z" fill="#37474F"/>
<path d="M368.46 250.09H309.71V252.1H368.46V250.09Z" fill="#455A64"/>
<path d="M368.46 253.58H309.71V255.59H368.46V253.58Z" fill="#455A64"/>
<path d="M368.46 257.07H309.71V259.08H368.46V257.07Z" fill="#455A64"/>
<path d="M368.46 260.55H309.71V262.56H368.46V260.55Z" fill="#455A64"/>
<path d="M368.46 264.04H309.71V266.05H368.46V264.04Z" fill="#455A64"/>
<path d="M379.17 252.09C379.17 252.486 379.053 252.872 378.833 253.201C378.613 253.53 378.301 253.786 377.935 253.938C377.57 254.089 377.168 254.129 376.78 254.052C376.392 253.974 376.035 253.784 375.756 253.504C375.476 253.225 375.286 252.868 375.208 252.48C375.131 252.092 375.171 251.69 375.322 251.325C375.474 250.959 375.73 250.647 376.059 250.427C376.388 250.207 376.774 250.09 377.17 250.09C377.7 250.09 378.209 250.301 378.584 250.676C378.959 251.051 379.17 251.56 379.17 252.09Z" fill="#92E3A9"/>
<path d="M385.75 252.09C385.75 252.486 385.633 252.872 385.413 253.201C385.193 253.53 384.881 253.786 384.515 253.938C384.15 254.089 383.748 254.129 383.36 254.052C382.972 253.974 382.615 253.784 382.336 253.504C382.056 253.225 381.866 252.868 381.788 252.48C381.711 252.092 381.751 251.69 381.902 251.325C382.054 250.959 382.31 250.647 382.639 250.427C382.968 250.207 383.354 250.09 383.75 250.09C384.28 250.09 384.789 250.301 385.164 250.676C385.539 251.051 385.75 251.56 385.75 252.09Z" fill="#92E3A9"/>
<path d="M392.33 252.09C392.33 252.486 392.213 252.872 391.993 253.201C391.773 253.53 391.461 253.786 391.095 253.938C390.73 254.089 390.328 254.129 389.94 254.052C389.552 253.974 389.196 253.784 388.916 253.504C388.636 253.225 388.446 252.868 388.369 252.48C388.291 252.092 388.331 251.69 388.482 251.325C388.634 250.959 388.89 250.647 389.219 250.427C389.548 250.207 389.934 250.09 390.33 250.09C390.86 250.09 391.369 250.301 391.744 250.676C392.119 251.051 392.33 251.56 392.33 252.09Z" fill="#92E3A9"/>
<path d="M398.9 252.09C398.9 252.486 398.783 252.872 398.563 253.201C398.343 253.53 398.031 253.786 397.665 253.938C397.3 254.089 396.898 254.129 396.51 254.052C396.122 253.974 395.765 253.784 395.486 253.504C395.206 253.225 395.015 252.868 394.938 252.48C394.861 252.092 394.901 251.69 395.052 251.325C395.204 250.959 395.46 250.647 395.789 250.427C396.118 250.207 396.504 250.09 396.9 250.09C397.43 250.09 397.939 250.301 398.314 250.676C398.689 251.051 398.9 251.56 398.9 252.09Z" fill="#92E3A9"/>
<path d="M405.48 252.09C405.48 252.486 405.363 252.872 405.143 253.201C404.923 253.53 404.611 253.786 404.245 253.938C403.88 254.089 403.478 254.129 403.09 254.052C402.702 253.974 402.345 253.784 402.066 253.504C401.786 253.225 401.596 252.868 401.518 252.48C401.441 252.092 401.481 251.69 401.632 251.325C401.784 250.959 402.04 250.647 402.369 250.427C402.698 250.207 403.084 250.09 403.48 250.09C404.01 250.09 404.519 250.301 404.894 250.676C405.269 251.051 405.48 251.56 405.48 252.09Z" fill="#92E3A9"/>
<path d="M379.17 258.07C379.17 258.466 379.053 258.852 378.833 259.181C378.613 259.51 378.301 259.766 377.935 259.918C377.57 260.069 377.168 260.109 376.78 260.032C376.392 259.954 376.035 259.764 375.756 259.484C375.476 259.205 375.286 258.848 375.208 258.46C375.131 258.072 375.171 257.67 375.322 257.305C375.474 256.939 375.73 256.627 376.059 256.407C376.388 256.187 376.774 256.07 377.17 256.07C377.7 256.07 378.209 256.281 378.584 256.656C378.959 257.031 379.17 257.54 379.17 258.07Z" fill="#92E3A9"/>
<path d="M385.75 258.07C385.75 258.466 385.633 258.852 385.413 259.181C385.193 259.51 384.881 259.766 384.515 259.918C384.15 260.069 383.748 260.109 383.36 260.032C382.972 259.954 382.615 259.764 382.336 259.484C382.056 259.205 381.866 258.848 381.788 258.46C381.711 258.072 381.751 257.67 381.902 257.305C382.054 256.939 382.31 256.627 382.639 256.407C382.968 256.187 383.354 256.07 383.75 256.07C384.28 256.07 384.789 256.281 385.164 256.656C385.539 257.031 385.75 257.54 385.75 258.07Z" fill="#92E3A9"/>
<path d="M392.33 258.07C392.33 258.466 392.213 258.852 391.993 259.181C391.773 259.51 391.461 259.766 391.095 259.918C390.73 260.069 390.328 260.109 389.94 260.032C389.552 259.954 389.196 259.764 388.916 259.484C388.636 259.205 388.446 258.848 388.369 258.46C388.291 258.072 388.331 257.67 388.482 257.305C388.634 256.939 388.89 256.627 389.219 256.407C389.548 256.187 389.934 256.07 390.33 256.07C390.86 256.07 391.369 256.281 391.744 256.656C392.119 257.031 392.33 257.54 392.33 258.07Z" fill="#92E3A9"/>
<path d="M398.9 258.07C398.9 258.466 398.783 258.852 398.563 259.181C398.343 259.51 398.031 259.766 397.665 259.918C397.3 260.069 396.898 260.109 396.51 260.032C396.122 259.954 395.765 259.764 395.486 259.484C395.206 259.205 395.015 258.848 394.938 258.46C394.861 258.072 394.901 257.67 395.052 257.305C395.204 256.939 395.46 256.627 395.789 256.407C396.118 256.187 396.504 256.07 396.9 256.07C397.43 256.07 397.939 256.281 398.314 256.656C398.689 257.031 398.9 257.54 398.9 258.07Z" fill="#92E3A9"/>
<path d="M405.48 258.07C405.48 258.466 405.363 258.852 405.143 259.181C404.923 259.51 404.611 259.766 404.245 259.918C403.88 260.069 403.478 260.109 403.09 260.032C402.702 259.954 402.345 259.764 402.066 259.484C401.786 259.205 401.596 258.848 401.518 258.46C401.441 258.072 401.481 257.67 401.632 257.305C401.784 256.939 402.04 256.627 402.369 256.407C402.698 256.187 403.084 256.07 403.48 256.07C404.01 256.07 404.519 256.281 404.894 256.656C405.269 257.031 405.48 257.54 405.48 258.07Z" fill="#92E3A9"/>
<path d="M379.17 264.06C379.17 264.456 379.053 264.842 378.833 265.171C378.613 265.5 378.301 265.756 377.935 265.908C377.57 266.059 377.168 266.099 376.78 266.022C376.392 265.944 376.035 265.754 375.756 265.474C375.476 265.195 375.286 264.838 375.208 264.45C375.131 264.062 375.171 263.66 375.322 263.295C375.474 262.929 375.73 262.617 376.059 262.397C376.388 262.177 376.774 262.06 377.17 262.06C377.7 262.06 378.209 262.271 378.584 262.646C378.959 263.021 379.17 263.53 379.17 264.06Z" fill="#92E3A9"/>
<path d="M385.75 264.06C385.75 264.456 385.633 264.842 385.413 265.171C385.193 265.5 384.881 265.756 384.515 265.908C384.15 266.059 383.748 266.099 383.36 266.022C382.972 265.944 382.615 265.754 382.336 265.474C382.056 265.195 381.866 264.838 381.788 264.45C381.711 264.062 381.751 263.66 381.902 263.295C382.054 262.929 382.31 262.617 382.639 262.397C382.968 262.177 383.354 262.06 383.75 262.06C384.28 262.06 384.789 262.271 385.164 262.646C385.539 263.021 385.75 263.53 385.75 264.06Z" fill="#92E3A9"/>
<path d="M392.33 264.06C392.33 264.456 392.213 264.842 391.993 265.171C391.773 265.5 391.461 265.756 391.095 265.908C390.73 266.059 390.328 266.099 389.94 266.022C389.552 265.944 389.196 265.754 388.916 265.474C388.636 265.195 388.446 264.838 388.369 264.45C388.291 264.062 388.331 263.66 388.482 263.295C388.634 262.929 388.89 262.617 389.219 262.397C389.548 262.177 389.934 262.06 390.33 262.06C390.86 262.06 391.369 262.271 391.744 262.646C392.119 263.021 392.33 263.53 392.33 264.06Z" fill="#92E3A9"/>
<path d="M398.9 264.06C398.9 264.456 398.783 264.842 398.563 265.171C398.343 265.5 398.031 265.756 397.665 265.908C397.3 266.059 396.898 266.099 396.51 266.022C396.122 265.944 395.765 265.754 395.486 265.474C395.206 265.195 395.015 264.838 394.938 264.45C394.861 264.062 394.901 263.66 395.052 263.295C395.204 262.929 395.46 262.617 395.789 262.397C396.118 262.177 396.504 262.06 396.9 262.06C397.43 262.06 397.939 262.271 398.314 262.646C398.689 263.021 398.9 263.53 398.9 264.06Z" fill="#92E3A9"/>
<path d="M405.48 264.06C405.48 264.456 405.363 264.842 405.143 265.171C404.923 265.5 404.611 265.756 404.245 265.908C403.88 266.059 403.478 266.099 403.09 266.022C402.702 265.944 402.345 265.754 402.066 265.474C401.786 265.195 401.596 264.838 401.518 264.45C401.441 264.062 401.481 263.66 401.632 263.295C401.784 262.929 402.04 262.617 402.369 262.397C402.698 262.177 403.084 262.06 403.48 262.06C404.01 262.06 404.519 262.271 404.894 262.646C405.269 263.021 405.48 263.53 405.48 264.06Z" fill="#92E3A9"/>
<path d="M372.55 250.09H371.4V266.05H372.55V250.09Z" fill="#263238"/>
<path d="M408.58 217.43H305.37V241.27H408.58V217.43Z" fill="#37474F"/>
<path d="M368.46 221.36H309.71V223.37H368.46V221.36Z" fill="#455A64"/>
<path d="M368.46 224.85H309.71V226.86H368.46V224.85Z" fill="#455A64"/>
<path d="M368.46 228.34H309.71V230.35H368.46V228.34Z" fill="#455A64"/>
<path d="M368.46 231.83H309.71V233.84H368.46V231.83Z" fill="#455A64"/>
<path d="M368.46 235.31H309.71V237.32H368.46V235.31Z" fill="#455A64"/>
<path d="M379.17 223.36C379.17 223.756 379.053 224.142 378.833 224.471C378.613 224.8 378.301 225.056 377.935 225.208C377.57 225.359 377.168 225.399 376.78 225.322C376.392 225.245 376.035 225.054 375.756 224.774C375.476 224.495 375.286 224.138 375.208 223.75C375.131 223.362 375.171 222.96 375.322 222.595C375.474 222.229 375.73 221.917 376.059 221.697C376.388 221.477 376.774 221.36 377.17 221.36C377.7 221.36 378.209 221.571 378.584 221.946C378.959 222.321 379.17 222.83 379.17 223.36Z" fill="#92E3A9"/>
<path d="M385.75 223.36C385.75 223.756 385.633 224.142 385.413 224.471C385.193 224.8 384.881 225.056 384.515 225.208C384.15 225.359 383.748 225.399 383.36 225.322C382.972 225.245 382.615 225.054 382.336 224.774C382.056 224.495 381.866 224.138 381.788 223.75C381.711 223.362 381.751 222.96 381.902 222.595C382.054 222.229 382.31 221.917 382.639 221.697C382.968 221.477 383.354 221.36 383.75 221.36C384.28 221.36 384.789 221.571 385.164 221.946C385.539 222.321 385.75 222.83 385.75 223.36Z" fill="#92E3A9"/>
<path d="M392.33 223.36C392.33 223.756 392.213 224.142 391.993 224.471C391.773 224.8 391.461 225.056 391.095 225.208C390.73 225.359 390.328 225.399 389.94 225.322C389.552 225.245 389.196 225.054 388.916 224.774C388.636 224.495 388.446 224.138 388.369 223.75C388.291 223.362 388.331 222.96 388.482 222.595C388.634 222.229 388.89 221.917 389.219 221.697C389.548 221.477 389.934 221.36 390.33 221.36C390.86 221.36 391.369 221.571 391.744 221.946C392.119 222.321 392.33 222.83 392.33 223.36Z" fill="#92E3A9"/>
<path d="M398.9 223.36C398.9 223.756 398.783 224.142 398.563 224.471C398.343 224.8 398.031 225.056 397.665 225.208C397.3 225.359 396.898 225.399 396.51 225.322C396.122 225.245 395.765 225.054 395.486 224.774C395.206 224.495 395.015 224.138 394.938 223.75C394.861 223.362 394.901 222.96 395.052 222.595C395.204 222.229 395.46 221.917 395.789 221.697C396.118 221.477 396.504 221.36 396.9 221.36C397.43 221.36 397.939 221.571 398.314 221.946C398.689 222.321 398.9 222.83 398.9 223.36Z" fill="#92E3A9"/>
<path d="M405.48 223.36C405.48 223.756 405.363 224.142 405.143 224.471C404.923 224.8 404.611 225.056 404.245 225.208C403.88 225.359 403.478 225.399 403.09 225.322C402.702 225.245 402.345 225.054 402.066 224.774C401.786 224.495 401.596 224.138 401.518 223.75C401.441 223.362 401.481 222.96 401.632 222.595C401.784 222.229 402.04 221.917 402.369 221.697C402.698 221.477 403.084 221.36 403.48 221.36C404.01 221.36 404.519 221.571 404.894 221.946C405.269 222.321 405.48 222.83 405.48 223.36Z" fill="#92E3A9"/>
<path d="M379.17 229.35C379.17 229.746 379.053 230.132 378.833 230.461C378.613 230.79 378.301 231.046 377.935 231.198C377.57 231.349 377.168 231.389 376.78 231.312C376.392 231.234 376.035 231.044 375.756 230.764C375.476 230.485 375.286 230.128 375.208 229.74C375.131 229.352 375.171 228.95 375.322 228.585C375.474 228.219 375.73 227.907 376.059 227.687C376.388 227.467 376.774 227.35 377.17 227.35C377.7 227.35 378.209 227.561 378.584 227.936C378.959 228.311 379.17 228.82 379.17 229.35Z" fill="#92E3A9"/>
<path d="M385.75 229.35C385.75 229.746 385.633 230.132 385.413 230.461C385.193 230.79 384.881 231.046 384.515 231.198C384.15 231.349 383.748 231.389 383.36 231.312C382.972 231.234 382.615 231.044 382.336 230.764C382.056 230.485 381.866 230.128 381.788 229.74C381.711 229.352 381.751 228.95 381.902 228.585C382.054 228.219 382.31 227.907 382.639 227.687C382.968 227.467 383.354 227.35 383.75 227.35C384.28 227.35 384.789 227.561 385.164 227.936C385.539 228.311 385.75 228.82 385.75 229.35Z" fill="#92E3A9"/>
<path d="M392.33 229.35C392.33 229.746 392.213 230.132 391.993 230.461C391.773 230.79 391.461 231.046 391.095 231.198C390.73 231.349 390.328 231.389 389.94 231.312C389.552 231.234 389.196 231.044 388.916 230.764C388.636 230.485 388.446 230.128 388.369 229.74C388.291 229.352 388.331 228.95 388.482 228.585C388.634 228.219 388.89 227.907 389.219 227.687C389.548 227.467 389.934 227.35 390.33 227.35C390.86 227.35 391.369 227.561 391.744 227.936C392.119 228.311 392.33 228.82 392.33 229.35Z" fill="#92E3A9"/>
<path d="M398.9 229.35C398.9 229.746 398.783 230.132 398.563 230.461C398.343 230.79 398.031 231.046 397.665 231.198C397.3 231.349 396.898 231.389 396.51 231.312C396.122 231.234 395.765 231.044 395.486 230.764C395.206 230.485 395.015 230.128 394.938 229.74C394.861 229.352 394.901 228.95 395.052 228.585C395.204 228.219 395.46 227.907 395.789 227.687C396.118 227.467 396.504 227.35 396.9 227.35C397.43 227.35 397.939 227.561 398.314 227.936C398.689 228.311 398.9 228.82 398.9 229.35Z" fill="#92E3A9"/>
<path d="M405.48 229.35C405.48 229.746 405.363 230.132 405.143 230.461C404.923 230.79 404.611 231.046 404.245 231.198C403.88 231.349 403.478 231.389 403.09 231.312C402.702 231.234 402.345 231.044 402.066 230.764C401.786 230.485 401.596 230.128 401.518 229.74C401.441 229.352 401.481 228.95 401.632 228.585C401.784 228.219 402.04 227.907 402.369 227.687C402.698 227.467 403.084 227.35 403.48 227.35C404.01 227.35 404.519 227.561 404.894 227.936C405.269 228.311 405.48 228.82 405.48 229.35Z" fill="#92E3A9"/>
<path d="M379.17 235.33C379.17 235.726 379.053 236.112 378.833 236.441C378.613 236.77 378.301 237.026 377.935 237.178C377.57 237.329 377.168 237.369 376.78 237.292C376.392 237.214 376.035 237.024 375.756 236.744C375.476 236.465 375.286 236.108 375.208 235.72C375.131 235.332 375.171 234.93 375.322 234.565C375.474 234.199 375.73 233.887 376.059 233.667C376.388 233.447 376.774 233.33 377.17 233.33C377.7 233.33 378.209 233.541 378.584 233.916C378.959 234.291 379.17 234.8 379.17 235.33Z" fill="#92E3A9"/>
<path d="M385.75 235.33C385.75 235.726 385.633 236.112 385.413 236.441C385.193 236.77 384.881 237.026 384.515 237.178C384.15 237.329 383.748 237.369 383.36 237.292C382.972 237.214 382.615 237.024 382.336 236.744C382.056 236.465 381.866 236.108 381.788 235.72C381.711 235.332 381.751 234.93 381.902 234.565C382.054 234.199 382.31 233.887 382.639 233.667C382.968 233.447 383.354 233.33 383.75 233.33C384.28 233.33 384.789 233.541 385.164 233.916C385.539 234.291 385.75 234.8 385.75 235.33Z" fill="#92E3A9"/>
<path d="M392.33 235.33C392.33 235.726 392.213 236.112 391.993 236.441C391.773 236.77 391.461 237.026 391.095 237.178C390.73 237.329 390.328 237.369 389.94 237.292C389.552 237.214 389.196 237.024 388.916 236.744C388.636 236.465 388.446 236.108 388.369 235.72C388.291 235.332 388.331 234.93 388.482 234.565C388.634 234.199 388.89 233.887 389.219 233.667C389.548 233.447 389.934 233.33 390.33 233.33C390.86 233.33 391.369 233.541 391.744 233.916C392.119 234.291 392.33 234.8 392.33 235.33Z" fill="#92E3A9"/>
<path d="M398.9 235.33C398.9 235.726 398.783 236.112 398.563 236.441C398.343 236.77 398.031 237.026 397.665 237.178C397.3 237.329 396.898 237.369 396.51 237.292C396.122 237.214 395.765 237.024 395.486 236.744C395.206 236.465 395.015 236.108 394.938 235.72C394.861 235.332 394.901 234.93 395.052 234.565C395.204 234.199 395.46 233.887 395.789 233.667C396.118 233.447 396.504 233.33 396.9 233.33C397.43 233.33 397.939 233.541 398.314 233.916C398.689 234.291 398.9 234.8 398.9 235.33Z" fill="#92E3A9"/>
<path d="M405.48 235.33C405.48 235.726 405.363 236.112 405.143 236.441C404.923 236.77 404.611 237.026 404.245 237.178C403.88 237.329 403.478 237.369 403.09 237.292C402.702 237.214 402.345 237.024 402.066 236.744C401.786 236.465 401.596 236.108 401.518 235.72C401.441 235.332 401.481 234.93 401.632 234.565C401.784 234.199 402.04 233.887 402.369 233.667C402.698 233.447 403.084 233.33 403.48 233.33C404.01 233.33 404.519 233.541 404.894 233.916C405.269 234.291 405.48 234.8 405.48 235.33Z" fill="#92E3A9"/>
<path d="M372.55 221.36H371.4V237.32H372.55V221.36Z" fill="#263238"/>
<path d="M408.58 188.7H305.37V212.54H408.58V188.7Z" fill="#37474F"/>
<path d="M368.46 192.64H309.71V194.65H368.46V192.64Z" fill="#455A64"/>
<path d="M368.46 196.12H309.71V198.13H368.46V196.12Z" fill="#455A64"/>
<path d="M368.46 199.61H309.71V201.62H368.46V199.61Z" fill="#455A64"/>
<path d="M368.46 203.1H309.71V205.11H368.46V203.1Z" fill="#455A64"/>
<path d="M368.46 206.59H309.71V208.6H368.46V206.59Z" fill="#455A64"/>
<path d="M379.17 194.63C379.17 195.026 379.053 195.412 378.833 195.741C378.613 196.07 378.301 196.326 377.935 196.478C377.57 196.629 377.168 196.669 376.78 196.592C376.392 196.515 376.035 196.324 375.756 196.044C375.476 195.765 375.286 195.408 375.208 195.02C375.131 194.632 375.171 194.23 375.322 193.865C375.474 193.499 375.73 193.187 376.059 192.967C376.388 192.747 376.774 192.63 377.17 192.63C377.7 192.63 378.209 192.841 378.584 193.216C378.959 193.591 379.17 194.1 379.17 194.63Z" fill="#92E3A9"/>
<path d="M385.75 194.63C385.75 195.026 385.633 195.412 385.413 195.741C385.193 196.07 384.881 196.326 384.515 196.478C384.15 196.629 383.748 196.669 383.36 196.592C382.972 196.515 382.615 196.324 382.336 196.044C382.056 195.765 381.866 195.408 381.788 195.02C381.711 194.632 381.751 194.23 381.902 193.865C382.054 193.499 382.31 193.187 382.639 192.967C382.968 192.747 383.354 192.63 383.75 192.63C384.28 192.63 384.789 192.841 385.164 193.216C385.539 193.591 385.75 194.1 385.75 194.63Z" fill="#92E3A9"/>
<path d="M392.33 194.63C392.33 195.026 392.213 195.412 391.993 195.741C391.773 196.07 391.461 196.326 391.095 196.478C390.73 196.629 390.328 196.669 389.94 196.592C389.552 196.515 389.196 196.324 388.916 196.044C388.636 195.765 388.446 195.408 388.369 195.02C388.291 194.632 388.331 194.23 388.482 193.865C388.634 193.499 388.89 193.187 389.219 192.967C389.548 192.747 389.934 192.63 390.33 192.63C390.86 192.63 391.369 192.841 391.744 193.216C392.119 193.591 392.33 194.1 392.33 194.63Z" fill="#92E3A9"/>
<path d="M398.9 194.63C398.9 195.026 398.783 195.412 398.563 195.741C398.343 196.07 398.031 196.326 397.665 196.478C397.3 196.629 396.898 196.669 396.51 196.592C396.122 196.515 395.765 196.324 395.486 196.044C395.206 195.765 395.015 195.408 394.938 195.02C394.861 194.632 394.901 194.23 395.052 193.865C395.204 193.499 395.46 193.187 395.789 192.967C396.118 192.747 396.504 192.63 396.9 192.63C397.43 192.63 397.939 192.841 398.314 193.216C398.689 193.591 398.9 194.1 398.9 194.63Z" fill="#92E3A9"/>
<path d="M405.48 194.63C405.48 195.026 405.363 195.412 405.143 195.741C404.923 196.07 404.611 196.326 404.245 196.478C403.88 196.629 403.478 196.669 403.09 196.592C402.702 196.515 402.345 196.324 402.066 196.044C401.786 195.765 401.596 195.408 401.518 195.02C401.441 194.632 401.481 194.23 401.632 193.865C401.784 193.499 402.04 193.187 402.369 192.967C402.698 192.747 403.084 192.63 403.48 192.63C404.01 192.63 404.519 192.841 404.894 193.216C405.269 193.591 405.48 194.1 405.48 194.63Z" fill="#92E3A9"/>
<path d="M377.18 202.62C378.285 202.62 379.18 201.725 379.18 200.62C379.18 199.516 378.285 198.62 377.18 198.62C376.076 198.62 375.18 199.516 375.18 200.62C375.18 201.725 376.076 202.62 377.18 202.62Z" fill="#92E3A9"/>
<path d="M385.75 200.62C385.75 201.016 385.633 201.402 385.413 201.731C385.193 202.06 384.881 202.317 384.515 202.468C384.15 202.619 383.748 202.659 383.36 202.582C382.972 202.505 382.615 202.314 382.336 202.034C382.056 201.755 381.866 201.398 381.788 201.01C381.711 200.622 381.751 200.22 381.902 199.855C382.054 199.489 382.31 199.177 382.639 198.957C382.968 198.737 383.354 198.62 383.75 198.62C384.28 198.62 384.789 198.831 385.164 199.206C385.539 199.581 385.75 200.09 385.75 200.62Z" fill="#92E3A9"/>
<path d="M390.33 202.62C391.435 202.62 392.33 201.725 392.33 200.62C392.33 199.516 391.435 198.62 390.33 198.62C389.226 198.62 388.33 199.516 388.33 200.62C388.33 201.725 389.226 202.62 390.33 202.62Z" fill="#92E3A9"/>
<path d="M398.9 200.62C398.9 201.016 398.783 201.402 398.563 201.731C398.343 202.06 398.031 202.317 397.665 202.468C397.3 202.619 396.898 202.659 396.51 202.582C396.122 202.505 395.765 202.314 395.486 202.034C395.206 201.755 395.015 201.398 394.938 201.01C394.861 200.622 394.901 200.22 395.052 199.855C395.204 199.489 395.46 199.177 395.789 198.957C396.118 198.737 396.504 198.62 396.9 198.62C397.43 198.62 397.939 198.831 398.314 199.206C398.689 199.581 398.9 200.09 398.9 200.62Z" fill="#92E3A9"/>
<path d="M405.48 200.62C405.48 201.016 405.363 201.402 405.143 201.731C404.923 202.06 404.611 202.317 404.245 202.468C403.88 202.619 403.478 202.659 403.09 202.582C402.702 202.505 402.345 202.314 402.066 202.034C401.786 201.755 401.596 201.398 401.518 201.01C401.441 200.622 401.481 200.22 401.632 199.855C401.784 199.489 402.04 199.177 402.369 198.957C402.698 198.737 403.084 198.62 403.48 198.62C404.01 198.62 404.519 198.831 404.894 199.206C405.269 199.581 405.48 200.09 405.48 200.62Z" fill="#92E3A9"/>
<path d="M379.17 206.6C379.17 206.996 379.053 207.382 378.833 207.711C378.613 208.04 378.301 208.296 377.935 208.448C377.57 208.599 377.168 208.639 376.78 208.562C376.392 208.484 376.035 208.294 375.756 208.014C375.476 207.735 375.286 207.378 375.208 206.99C375.131 206.602 375.171 206.2 375.322 205.835C375.474 205.469 375.73 205.157 376.059 204.937C376.388 204.717 376.774 204.6 377.17 204.6C377.7 204.6 378.209 204.811 378.584 205.186C378.959 205.561 379.17 206.07 379.17 206.6Z" fill="#92E3A9"/>
<path d="M385.75 206.6C385.75 206.996 385.633 207.382 385.413 207.711C385.193 208.04 384.881 208.296 384.515 208.448C384.15 208.599 383.748 208.639 383.36 208.562C382.972 208.484 382.615 208.294 382.336 208.014C382.056 207.735 381.866 207.378 381.788 206.99C381.711 206.602 381.751 206.2 381.902 205.835C382.054 205.469 382.31 205.157 382.639 204.937C382.968 204.717 383.354 204.6 383.75 204.6C384.28 204.6 384.789 204.811 385.164 205.186C385.539 205.561 385.75 206.07 385.75 206.6Z" fill="#92E3A9"/>
<path d="M392.33 206.6C392.33 206.996 392.213 207.382 391.993 207.711C391.773 208.04 391.461 208.296 391.095 208.448C390.73 208.599 390.328 208.639 389.94 208.562C389.552 208.484 389.196 208.294 388.916 208.014C388.636 207.735 388.446 207.378 388.369 206.99C388.291 206.602 388.331 206.2 388.482 205.835C388.634 205.469 388.89 205.157 389.219 204.937C389.548 204.717 389.934 204.6 390.33 204.6C390.86 204.6 391.369 204.811 391.744 205.186C392.119 205.561 392.33 206.07 392.33 206.6Z" fill="#92E3A9"/>
<path d="M398.9 206.6C398.9 206.996 398.783 207.382 398.563 207.711C398.343 208.04 398.031 208.296 397.665 208.448C397.3 208.599 396.898 208.639 396.51 208.562C396.122 208.484 395.765 208.294 395.486 208.014C395.206 207.735 395.015 207.378 394.938 206.99C394.861 206.602 394.901 206.2 395.052 205.835C395.204 205.469 395.46 205.157 395.789 204.937C396.118 204.717 396.504 204.6 396.9 204.6C397.43 204.6 397.939 204.811 398.314 205.186C398.689 205.561 398.9 206.07 398.9 206.6Z" fill="#92E3A9"/>
<path d="M405.48 206.6C405.48 206.996 405.363 207.382 405.143 207.711C404.923 208.04 404.611 208.296 404.245 208.448C403.88 208.599 403.478 208.639 403.09 208.562C402.702 208.484 402.345 208.294 402.066 208.014C401.786 207.735 401.596 207.378 401.518 206.99C401.441 206.602 401.481 206.2 401.632 205.835C401.784 205.469 402.04 205.157 402.369 204.937C402.698 204.717 403.084 204.6 403.48 204.6C404.01 204.6 404.519 204.811 404.894 205.186C405.269 205.561 405.48 206.07 405.48 206.6Z" fill="#92E3A9"/>
<path d="M372.55 192.64H371.4V208.6H372.55V192.64Z" fill="#263238"/>
<path d="M391.74 168.86H255.69V176.42H391.74V168.86Z" fill="#37474F"/>
<path d="M257.05 384.07H241.86V399.26H257.05V384.07Z" fill="#263238"/>
<path d="M34.02 353.74H7.45996V380.3H34.02V353.74Z" fill="#37474F"/>
<path d="M20.7401 375.88C25.6389 375.88 29.6101 371.909 29.6101 367.01C29.6101 362.111 25.6389 358.14 20.7401 358.14C15.8414 358.14 11.8701 362.111 11.8701 367.01C11.8701 371.909 15.8414 375.88 20.7401 375.88Z" fill="#455A64"/>
<path d="M19.1201 363.43H17.1201V370.75H19.1201V363.43Z" fill="#263238"/>
<path d="M24.6802 363.43H22.6802V370.75H24.6802V363.43Z" fill="#263238"/>
<path d="M0.850098 421.59L54.1401 421.35L107.43 421.26L214 421.09L320.57 421.26L373.86 421.35L427.15 421.59L373.86 421.84L320.57 421.93L214 422.09L107.43 421.92L54.1401 421.83L0.850098 421.59Z" fill="#263238"/>
<path d="M92.0803 396.52C93.0803 398.64 89.2403 413.83 88.0803 416.95C86.9203 420.07 82.6903 437.48 80.6503 438.23C78.6103 438.98 68.7203 438.77 67.3203 438.23C65.9203 437.69 67.3203 434.72 68.9303 433.68C70.5403 432.64 72.4703 431.05 72.4703 431.05C72.4703 431.05 69.5803 404.16 70.1203 401.15C70.6603 398.14 89.4803 390.83 92.0803 396.52Z" fill="#92E3A9"/>
<path opacity="0.1" d="M92.0803 396.52C93.0803 398.64 89.2403 413.83 88.0803 416.95C86.9203 420.07 82.6903 437.48 80.6503 438.23C78.6103 438.98 68.7203 438.77 67.3203 438.23C65.9203 437.69 67.3203 434.72 68.9303 433.68C70.5403 432.64 72.4703 431.05 72.4703 431.05C72.4703 431.05 69.5803 404.16 70.1203 401.15C70.6603 398.14 89.4803 390.83 92.0803 396.52Z" fill="black"/>
<path opacity="0.1" d="M71.4001 437.06C71.5097 436.523 71.7312 436.015 72.0501 435.57C72.3694 435.134 72.75 434.747 73.1801 434.42C73.598 434.09 74.0825 433.855 74.6001 433.73C74.6158 433.723 74.6334 433.723 74.6496 433.728C74.6658 433.733 74.6795 433.744 74.6881 433.759C74.6967 433.774 74.6996 433.791 74.6963 433.808C74.693 433.825 74.6837 433.84 74.6701 433.85C74.4901 434.01 74.2901 434.15 74.1201 434.32C73.9501 434.49 73.7601 434.67 73.6001 434.85C73.2718 435.202 72.9865 435.591 72.7501 436.01C72.5001 436.42 72.2701 436.84 72.0501 437.28C71.8301 437.72 71.7201 438.19 71.5501 438.65C71.5501 438.677 71.5396 438.702 71.5208 438.721C71.5021 438.739 71.4767 438.75 71.4501 438.75C71.4236 438.75 71.3982 438.739 71.3794 438.721C71.3607 438.702 71.3501 438.677 71.3501 438.65C71.2503 438.123 71.2674 437.58 71.4001 437.06Z" fill="black"/>
<path opacity="0.1" d="M68.5103 435.48C69.0605 434.531 69.9074 433.79 70.9203 433.37C70.9903 433.37 71.0603 433.42 71.0003 433.47C70.2356 434.072 69.5852 434.807 69.0803 435.64C68.8279 436.065 68.6641 436.536 68.5988 437.026C68.5334 437.516 68.568 438.014 68.7003 438.49C68.7003 438.49 68.7003 438.55 68.6303 438.49C68.3387 438.046 68.1734 437.532 68.1522 437.002C68.1311 436.471 68.2549 435.945 68.5103 435.48Z" fill="black"/>
<path opacity="0.1" d="M70.9399 416L84.5299 428.86C86.0299 423.93 87.4299 418.57 88.0399 416.98C89.2399 413.86 93.0399 398.67 92.0399 396.55C89.4299 390.86 70.5599 398.17 70.0399 401.18C69.8299 402.57 70.3299 409.27 70.9399 416Z" fill="black"/>
<path d="M143.41 411.72C143.96 412.24 149.31 407.18 150.13 404.81C150.95 402.44 147.53 395.75 148.13 394.61C148.73 393.47 151.68 392.56 153.19 394.31C154.7 396.06 158.57 405.65 157.77 409.75C156.97 413.85 148.74 423 147.87 423C147 423 143.41 411.72 143.41 411.72Z" fill="#92E3A9"/>
<path opacity="0.1" d="M143.41 411.72C143.41 411.72 147.02 422.92 147.87 422.97C148.5 422.97 153.08 418.11 155.82 413.88L148.33 407.57C146.44 409.8 143.79 412.08 143.41 411.72Z" fill="black"/>
<path d="M113.19 365.46H68.7902C68.7902 365.46 65.4902 394.7 65.8502 398.57C66.2102 402.44 85.7202 431.11 91.7702 434.81C97.8202 438.51 132.6 438.69 141.06 436.81C147.64 435.36 153.13 426.96 150.4 414.03C149.21 408.37 133.79 394.89 131.64 392.31C129.49 389.73 113.19 365.46 113.19 365.46Z" fill="#C7C7C7"/>
<path d="M65.8504 398.57C66.2104 402.44 85.7204 431.11 91.7804 434.81C97.8404 438.51 132.6 438.69 141.07 436.81C147.64 435.36 153.14 426.96 150.4 414.02C149.21 408.37 133.8 394.89 131.65 392.31C130.33 390.73 123.71 381.01 118.77 373.71C115.64 369.09 113.19 365.44 113.19 365.44H68.7904C68.7904 365.44 67.9604 372.78 67.1804 380.59C66.4004 388.4 65.6704 396.64 65.8504 398.57Z" fill="#92E3A9"/>
<path opacity="0.1" d="M67.1802 380.61C91.0402 387.97 112.26 377.5 118.77 373.73C115.64 369.11 113.19 365.46 113.19 365.46H68.7902C68.7902 365.46 68.0002 372.8 67.1802 380.61Z" fill="black"/>
<path d="M141.91 412.64C141.91 412.64 129.69 404.97 121.12 406.35C112.55 407.73 109.52 425.35 113.63 435.24C113.63 435.24 105.81 437.56 105.81 441.34C105.81 443.49 110.28 444.18 116.72 444.02C123.16 443.86 135.98 443.74 136.26 442.12C136.32 440.785 136.03 439.458 135.42 438.27C135.42 438.27 146.99 436.97 149.26 429.27C151.53 421.57 143.84 413.93 141.91 412.64Z" fill="#92E3A9"/>
<path opacity="0.1" d="M125.22 436.11C128.495 437.451 131.975 438.222 135.51 438.39C135.58 438.39 135.6 438.51 135.51 438.52C131.906 438.876 128.283 438.059 125.18 436.19C125.14 436.17 125.17 436.08 125.22 436.11Z" fill="black"/>
<path opacity="0.1" d="M110.84 444.07C111.266 442.631 112.215 441.404 113.5 440.63C114.198 440.148 114.958 439.764 115.76 439.49C116.68 439.18 117.62 439.01 118.55 438.72C118.62 438.72 118.68 438.81 118.55 438.84C117.755 439.128 116.986 439.482 116.25 439.9C115.504 440.286 114.779 440.713 114.08 441.18C112.929 442.016 111.916 443.028 111.08 444.18C111.05 444.31 110.8 444.24 110.84 444.07Z" fill="black"/>
<path opacity="0.1" d="M112.42 438C112.436 438 112.451 438.006 112.463 438.018C112.474 438.029 112.48 438.044 112.48 438.06C112.48 438.076 112.474 438.091 112.463 438.102C112.451 438.114 112.436 438.12 112.42 438.12C110.054 439.108 108.166 440.981 107.16 443.34C107.16 443.44 106.94 443.44 106.96 443.34C107.155 441.973 107.796 440.708 108.783 439.743C109.771 438.777 111.049 438.165 112.42 438Z" fill="black"/>
<path opacity="0.1" d="M108.61 437.45C108.61 437.45 108.61 437.51 108.61 437.5C110.133 436.599 111.745 435.859 113.42 435.29C113.62 435.64 113.83 435.99 114.06 436.29C114.06 436.36 114.21 436.29 114.17 436.23C112.71 433.144 111.978 429.764 112.03 426.35C112.037 424.542 112.144 422.736 112.35 420.94C112.77 417.79 113.752 414.742 115.25 411.94C116.094 410.18 117.396 408.681 119.02 407.6C120.774 406.747 122.731 406.4 124.67 406.6C126.672 406.734 128.652 407.1 130.57 407.69C132.519 408.229 134.43 408.898 136.29 409.69C132.724 407.664 128.798 406.35 124.73 405.82C122.623 405.526 120.476 405.875 118.57 406.82C116.777 407.959 115.326 409.563 114.37 411.46C112.479 415.143 111.43 419.201 111.3 423.34C111.3 423.81 111.3 424.29 111.3 424.76C111.3 425.39 111.3 426.01 111.3 426.64C111.316 429.611 112.039 432.535 113.41 435.17C111.619 435.434 109.947 436.228 108.61 437.45Z" fill="black"/>
<path d="M106.43 400.29C107.43 402.4 103.59 417.59 102.43 420.71C101.27 423.83 97 441.24 95 442C93 442.76 83.07 442.54 81.67 442C80.27 441.46 81.67 438.49 83.28 437.45C84.89 436.41 86.81 434.82 86.81 434.82C86.81 434.82 83.93 407.93 84.46 404.92C84.99 401.91 103.83 394.59 106.43 400.29Z" fill="#92E3A9"/>
<path opacity="0.1" d="M99.7701 429.15C100.68 426.41 101.87 423.75 102.77 421.02C102.77 420.91 102.98 420.96 102.94 421.07C102.24 423.27 101.71 425.53 101.05 427.75C101.15 427.6 101.24 427.44 101.33 427.29C101.987 426.449 102.516 425.515 102.9 424.52C102.907 424.496 102.923 424.476 102.944 424.464C102.966 424.451 102.991 424.448 103.015 424.455C103.039 424.461 103.059 424.477 103.071 424.499C103.084 424.52 103.087 424.546 103.08 424.57C102.935 425.038 102.737 425.487 102.49 425.91C102.23 426.4 101.96 426.91 101.69 427.38C101.42 427.85 100.98 428.64 100.59 429.25C100.59 429.3 100.59 429.34 100.59 429.38C99.7404 432.143 98.7389 434.857 97.5901 437.51C97.575 437.534 97.5526 437.552 97.5262 437.562C97.4998 437.572 97.4708 437.573 97.4437 437.565C97.4166 437.557 97.3928 437.541 97.3759 437.518C97.359 437.496 97.3499 437.468 97.3501 437.44C98.017 434.638 98.8247 431.871 99.7701 429.15Z" fill="black"/>
<path opacity="0.1" d="M84.05 409.2C84.05 409.15 84.16 409.13 84.17 409.2C84.46 411.2 84.58 413.3 84.79 415.35C85 417.4 85.26 419.6 85.49 421.73C85.96 425.96 86.67 430.18 87.01 434.42C87.01 434.6 86.7 434.62 86.65 434.42C85.6327 430.342 84.9471 426.189 84.6 422C84.38 419.92 84.25 417.84 84.15 415.76C83.9951 413.577 83.9617 411.387 84.05 409.2Z" fill="black"/>
<path opacity="0.1" d="M85.2701 440.61C85.3716 440.072 85.5901 439.564 85.9101 439.12C86.2301 438.681 86.6144 438.294 87.0501 437.97C87.4656 437.636 87.951 437.4 88.4701 437.28C88.4849 437.277 88.5002 437.28 88.5137 437.286C88.5271 437.293 88.5381 437.304 88.5448 437.317C88.5515 437.331 88.5538 437.346 88.5511 437.361C88.5484 437.376 88.5411 437.39 88.5301 437.4C88.3501 437.57 88.1501 437.7 87.9801 437.87L87.4601 438.4C87.1372 438.756 86.8523 439.145 86.6101 439.56C86.3701 439.97 86.1301 440.39 85.9201 440.83C85.7101 441.27 85.5801 441.74 85.4101 442.2C85.4035 442.22 85.3908 442.237 85.3737 442.25C85.3567 442.262 85.3361 442.269 85.3151 442.269C85.294 442.269 85.2735 442.262 85.2564 442.25C85.2394 442.237 85.2267 442.22 85.2201 442.2C85.1152 441.673 85.1323 441.129 85.2701 440.61Z" fill="black"/>
<path opacity="0.1" d="M82.3701 439C82.9228 438.05 83.7734 437.308 84.7901 436.89C84.8501 436.89 84.9201 436.94 84.8601 436.99C84.0957 437.59 83.4482 438.325 82.9501 439.16C82.6926 439.583 82.5259 440.054 82.4605 440.545C82.395 441.036 82.4324 441.534 82.5701 442.01C82.5701 442.01 82.5701 442.07 82.5001 442.01C82.2068 441.567 82.0398 441.053 82.0169 440.523C81.994 439.993 82.1161 439.466 82.3701 439Z" fill="black"/>
<path d="M85.7802 324.81C86.2602 323.05 81.8802 316.81 80.2102 314.76C78.5402 312.71 69.3502 309.54 66.4102 311.15C65.2602 311.78 63.1202 316.2 60.2302 320.03C55.7502 325.97 50.5302 332.2 52.4302 333.87C57.0302 337.94 67.5402 331.52 70.9502 329.37C74.3602 327.22 77.4702 324.59 78.3002 324.68C79.4002 324.8 81.7002 326.54 82.6302 326.68C83.2828 326.724 83.9334 326.569 84.4959 326.235C85.0584 325.901 85.5062 325.404 85.7802 324.81Z" fill="#92E3A9"/>
<path opacity="0.1" d="M85.7802 324.81C86.2602 323.05 81.8802 316.81 80.2102 314.76C78.5402 312.71 69.3502 309.54 66.4102 311.15C65.2602 311.78 63.1202 316.2 60.2302 320.03C55.7502 325.97 50.5302 332.2 52.4302 333.87C57.0302 337.94 67.5402 331.52 70.9502 329.37C74.3602 327.22 77.4702 324.59 78.3002 324.68C79.4002 324.8 81.7002 326.54 82.6302 326.68C83.2828 326.724 83.9334 326.569 84.4959 326.235C85.0584 325.901 85.5062 325.404 85.7802 324.81Z" fill="black"/>
<path d="M107 318.59C117.73 325.01 122.49 342.07 122.78 344.8C123.02 347.02 128.13 354.9 127.22 363.37C126.63 368.81 116.85 376.04 108.89 375.97C107.43 375.97 95.0403 380.45 84.5703 379.73C74.1003 379.01 66.1803 371.58 65.8703 370.95C65.5603 370.32 57.0003 369.1 56.5003 360.35C55.6503 346.35 69.9003 322.59 73.9703 319.35C80.7203 314 99.6603 314.23 107 318.59Z" fill="#92E3A9"/>
<path d="M101.9 326C101.7 324.1 107.27 318.39 109.35 316.5C111.43 314.61 121.49 312.89 124.27 315.05C125.36 315.9 126.85 320.83 129.21 325.29C132.86 332.2 137.21 339.53 135.01 340.95C129.55 344.41 119.71 336.01 116.53 333.2C113.35 330.39 110.53 327.2 109.68 327.12C108.52 327.06 105.84 328.48 104.87 328.43C104.189 328.37 103.541 328.106 103.011 327.672C102.481 327.239 102.094 326.656 101.9 326Z" fill="#92E3A9"/>
<path opacity="0.1" d="M101.9 326C101.7 324.1 107.27 318.39 109.35 316.5C111.43 314.61 121.49 312.89 124.27 315.05C125.36 315.9 126.85 320.83 129.21 325.29C132.86 332.2 137.21 339.53 135.01 340.95C129.55 344.41 119.71 336.01 116.53 333.2C113.35 330.39 110.53 327.2 109.68 327.12C108.52 327.06 105.84 328.48 104.87 328.43C104.189 328.37 103.541 328.106 103.011 327.672C102.481 327.239 102.094 326.656 101.9 326Z" fill="black"/>
<path opacity="0.1" d="M82.3002 349.93C88.8802 349.99 91.8802 357.04 92.6702 358.87C93.4602 360.7 97.5302 364.87 97.6702 369.3C97.8102 373.73 89.4402 378.6 80.6702 377.05C71.9002 375.5 67.2702 370.56 67.3202 366.1C67.3202 362.51 70.7402 359.4 71.1202 358.46C71.5002 357.52 76.3102 349.87 82.3002 349.93Z" fill="black"/>
<path opacity="0.1" d="M98.48 362.31C99.3598 363.311 100.103 364.424 100.69 365.62C101.302 366.824 101.737 368.111 101.98 369.44C102.258 370.819 102.108 372.249 101.55 373.54C101.249 374.177 100.812 374.74 100.27 375.19C99.732 375.6 99.1261 375.911 98.48 376.11C99.5629 375.444 100.391 374.433 100.83 373.24C101.184 372.059 101.239 370.808 100.99 369.6C100.773 368.348 100.438 367.119 99.99 365.93C99.52 364.72 99 363.51 98.48 362.31Z" fill="black"/>
<path opacity="0.1" d="M68.3304 359.68C67.7604 360.39 67.2204 361.08 66.7204 361.78C66.2274 362.464 65.802 363.194 65.4504 363.96C65.1209 364.707 64.9247 365.505 64.8704 366.32C64.8796 367.178 65.0387 368.027 65.3404 368.83C64.6713 368.165 64.2332 367.303 64.0904 366.37C63.9917 365.41 64.1469 364.441 64.5404 363.56C65.3336 361.879 66.6682 360.512 68.3304 359.68Z" fill="black"/>
<path d="M171.14 453.86C160.37 453.86 148.48 453.67 136.53 453.45C130.37 453.34 125.53 453.25 122.47 453.25C106.94 453.25 102.47 433.25 98.1504 413.99C97.5504 411.3 96.9504 408.61 96.3204 405.99C95.0804 400.82 94.0704 395.61 93.0804 390.56C90.0804 374.95 87.4104 361.48 80.5304 360.74C71.4404 359.74 63.3504 373.36 60.4004 394.57L58.4004 394.3C61.5104 371.94 70.4804 357.64 80.7204 358.75C89.0704 359.64 91.8304 373.75 95.0204 390.18C96.0204 395.18 97.0204 400.4 98.2404 405.52C98.8804 408.17 99.4804 410.88 100.09 413.58C104.43 432.96 108.53 451.27 122.45 451.27C125.5 451.27 130.38 451.36 136.55 451.47C150.07 451.73 168.55 452.07 184.25 451.76C209.67 451.26 212.68 449.26 212.99 448.65C212.99 444.49 186.15 439.49 176.05 437.6C165.95 435.71 165.45 435.6 165.56 434.37C165.67 433.14 166.91 433.24 168.81 433.24H210.75C223.9 433.24 228.14 414.32 230.68 403.01C231.115 400.582 231.761 398.196 232.61 395.88C235.55 389.76 242.99 390.65 243.3 390.69L243.04 392.69C242.78 392.69 236.72 391.95 234.41 396.76C233.642 398.943 233.047 401.183 232.63 403.46C229.96 415.35 225.51 435.25 210.75 435.25H174.35L176.44 435.64C200.86 440.2 215 443.81 215 448.74C214.996 449.009 214.936 449.274 214.825 449.518C214.713 449.763 214.551 449.981 214.35 450.16C211.38 453.05 193.71 453.86 171.14 453.86Z" fill="#263238"/>
<path d="M65.7517 393.102L53.4937 392.367L53.0527 399.724L65.3107 400.459L65.7517 393.102Z" fill="#455A64"/>
<path d="M63.5745 390.636L55.9282 390.177L55.7882 392.513L63.4345 392.971L63.5745 390.636Z" fill="#37474F"/>
<path d="M57.1168 399.975L55.6694 399.889L55.3332 405.499L56.7806 405.585L57.1168 399.975Z" fill="#92E3A9"/>
<path d="M62.6571 400.296L61.2197 400.21L60.8835 405.82L62.3209 405.906L62.6571 400.296Z" fill="#92E3A9"/>
<path d="M247.05 385.53V397.81H252.42V385.53H247.05Z" fill="#455A64"/>
<path d="M242.72 387.84V395.5H247.06V387.84H242.72Z" fill="#37474F"/>
<path d="M74 360.6C74 360.6 76.61 363.6 77.62 362.98C78.63 362.36 81.16 356.4 81.16 356.4C81.16 356.4 81.77 363.96 83.72 364.17C85.67 364.38 89.01 361.39 89.01 361.39L81.12 355.92L74 360.6Z" fill="#92E3A9"/>
<path opacity="0.1" d="M74 360.6C74 360.6 76.61 363.6 77.62 362.98C78.63 362.36 81.16 356.4 81.16 356.4C81.16 356.4 81.77 363.96 83.72 364.17C85.67 364.38 89.01 361.39 89.01 361.39L81.12 355.92L74 360.6Z" fill="black"/>
<path opacity="0.1" d="M112.65 351.21C113.427 348.777 113.7 346.212 113.45 343.67C113.338 342.355 113.031 341.065 112.54 339.84C112.273 339.209 111.938 338.608 111.54 338.05C111.158 337.472 110.708 336.942 110.2 336.47C109.946 336.234 109.676 336.017 109.39 335.82C109.1 335.62 108.8 335.46 108.51 335.28L108.06 335.03L107.59 334.84C107.265 334.699 106.931 334.579 106.59 334.48C105.293 334.099 103.936 333.97 102.59 334.1C100.015 334.345 97.5608 335.312 95.5103 336.89C97.7873 336.023 100.204 335.579 102.64 335.58C103.789 335.595 104.927 335.797 106.01 336.18C106.28 336.26 106.53 336.41 106.79 336.51L107.17 336.68L107.53 336.91C107.76 337.06 108.01 337.19 108.24 337.35C108.462 337.509 108.672 337.682 108.87 337.87C109.695 338.624 110.355 339.54 110.81 340.56C111.304 341.623 111.67 342.741 111.9 343.89C112.4 346.298 112.651 348.751 112.65 351.21Z" fill="black"/>
<path opacity="0.1" d="M63.8703 346.1C63.9782 344.02 64.3135 341.957 64.8703 339.95C65.3487 338.089 66.3977 336.424 67.8703 335.19C68.2392 334.92 68.6345 334.689 69.0503 334.5C69.4549 334.324 69.8825 334.206 70.3203 334.15C71.282 334.041 72.254 334.061 73.2103 334.21C75.2681 334.574 77.2943 335.099 79.2703 335.78C78.4406 335.08 77.5389 334.469 76.5803 333.96C76.1003 333.71 75.5803 333.48 75.1003 333.26C74.5866 333.053 74.0625 332.873 73.5303 332.72C72.4242 332.38 71.264 332.251 70.1103 332.34C69.49 332.385 68.8816 332.534 68.3103 332.78C67.7562 333.016 67.2325 333.319 66.7503 333.68C65.803 334.402 65.0305 335.328 64.4903 336.39C63.9867 337.406 63.6491 338.497 63.4903 339.62C63.1382 341.781 63.268 343.994 63.8703 346.1Z" fill="black"/>
<path d="M96.36 348.07C96.36 347.96 96.62 348.22 96.61 348.35C96.37 351.35 96.61 354.85 99.61 355.98C99.7 355.98 99.68 356.17 99.61 356.15C95.94 355.52 95.61 350.89 96.36 348.07Z" fill="#263238"/>
<path d="M99.4601 345.05C104.8 344.91 104.79 354.66 99.8401 354.79C94.8901 354.92 95.0001 345.16 99.4601 345.05Z" fill="#263238"/>
<path d="M75.7302 345.7C75.7302 345.59 75.4602 345.82 75.4502 345.95C75.2702 348.95 74.4502 352.38 71.4502 353.09C71.3602 353.09 71.3502 353.26 71.4502 353.26C75.1202 353.14 76.0902 348.6 75.7302 345.7Z" fill="#263238"/>
<path d="M73.0904 342.28C67.8304 341.4 66.4704 351.06 71.3504 351.87C76.2304 352.68 77.5104 343 73.0904 342.28Z" fill="#263238"/>
<path d="M80.9102 356.12C81.9102 356.43 88.4502 354.35 87.9102 352.35C87.3602 350.19 78.1002 349.68 76.9102 351.08C75.7202 352.48 79.9202 355.8 80.9102 356.12Z" fill="#263238"/>
<path d="M89.1302 361.29C88.078 362.085 86.9569 362.785 85.7802 363.38C85.2177 363.682 84.5971 363.859 83.9602 363.9C83.5802 363.97 83.2602 363.46 83.0402 362.97C82.6411 361.942 82.3625 360.872 82.2102 359.78C82.0102 358.69 81.9002 357.57 81.7802 356.48L81.4702 353.48L80.5602 356.43C80.2802 357.34 79.9502 358.25 79.6202 359.16C79.2885 360.066 78.8942 360.948 78.4402 361.8C78.3291 362.012 78.1985 362.213 78.0502 362.4C77.9286 362.588 77.7725 362.75 77.5902 362.88C77.4191 362.962 77.225 362.983 77.0402 362.94C76.7887 362.87 76.5468 362.769 76.3202 362.64C75.4242 362.058 74.6246 361.339 73.9502 360.51C74.4345 361.463 75.1163 362.301 75.9502 362.97C76.2114 363.172 76.5058 363.328 76.8202 363.43C77.0133 363.478 77.2112 363.505 77.4102 363.51C77.6324 363.511 77.8518 363.46 78.0502 363.36C78.3302 363.205 78.5808 363.002 78.7902 362.76C78.9716 362.555 79.1387 362.338 79.2902 362.11C79.8482 361.259 80.3269 360.359 80.7202 359.42C81.1202 358.51 81.4602 357.59 81.7202 356.66L80.4902 356.57C80.5789 357.701 80.7325 358.826 80.9502 359.94C81.0607 360.507 81.2009 361.068 81.3702 361.62C81.5352 362.198 81.7597 362.758 82.0402 363.29C82.1962 363.59 82.3949 363.867 82.6302 364.11C82.7817 364.266 82.9616 364.391 83.1602 364.48C83.2894 364.542 83.4279 364.583 83.5702 364.6C83.6931 364.615 83.8173 364.615 83.9402 364.6C84.7111 364.518 85.4514 364.254 86.1002 363.83C87.226 363.132 88.2463 362.277 89.1302 361.29Z" fill="#263238"/>
<path d="M38.8999 395.89C42.8716 395.658 46.8566 395.931 50.7599 396.7C46.7882 396.93 42.8033 396.658 38.8999 395.89Z" fill="#263238"/>
<path d="M67.6899 402.22C69.5655 402.872 71.3933 403.654 73.1599 404.56C74.9396 405.436 76.654 406.438 78.2899 407.56C74.5451 406.231 70.9834 404.433 67.6899 402.21V402.22Z" fill="#263238"/>
<path d="M45.25 416C47.2175 412.543 49.6167 409.351 52.39 406.5C51.4219 408.243 50.3291 409.914 49.12 411.5C47.939 413.09 46.6457 414.594 45.25 416Z" fill="#263238"/>
<path d="M34 384.07C35.55 384.56 37.06 385.12 38.56 385.7C40.06 386.28 41.56 386.9 43.04 387.53C44.52 388.16 46.04 388.81 47.45 389.53C48.86 390.25 50.37 390.92 51.79 391.7C50.24 391.2 48.73 390.64 47.23 390.06C45.73 389.48 44.23 388.86 42.75 388.23C41.27 387.6 39.75 386.95 38.34 386.23C36.93 385.51 35.43 384.84 34 384.07Z" fill="#263238"/>
<path d="M69.1299 392.93C70.5231 392.23 71.9754 391.654 73.4699 391.21C74.9531 390.739 76.476 390.404 78.0199 390.21C75.2264 391.602 72.2229 392.524 69.1299 392.94V392.93Z" fill="#263238"/>
<path d="M54.7498 387.87C53.9298 386.57 53.1898 385.24 52.4598 383.87C51.7298 382.5 51.0298 381.17 50.3398 379.8C49.6498 378.43 48.9898 377.06 48.3398 375.66C47.6898 374.26 47.0898 372.87 46.5498 371.43C47.3698 372.73 48.1198 374.07 48.8498 375.43C49.5798 376.79 50.2798 378.13 50.9698 379.49C51.6598 380.85 52.3098 382.23 52.9698 383.63C53.6298 385.03 54.2098 386.43 54.7498 387.87Z" fill="#263238"/>
<path d="M74.9998 419.5C74.1098 418.5 73.2798 417.41 72.4698 416.34C71.6598 415.27 70.8798 414.16 70.0998 413.06C69.3198 411.96 68.5898 410.83 67.8798 409.68C67.1698 408.53 66.4598 407.38 65.8198 406.19C66.7098 407.19 67.5398 408.28 68.3498 409.35C69.1598 410.42 69.9498 411.53 70.7198 412.63C71.4898 413.73 72.2298 414.86 72.9398 416.01C73.6498 417.16 74.3598 418.3 74.9998 419.5Z" fill="#263238"/>
<path d="M343.94 168.86H261.28L254.88 112.72H337.54L343.94 168.86Z" fill="#A6A6A6"/>
<path d="M339.44 165.1H264.93L259.39 116.49H333.9L339.44 165.1Z" fill="white"/>
<path d="M293.42 142.06L292.23 143.48L280.51 133.36L281.7 131.94L293.42 142.06Z" fill="#92E3A9"/>
<path d="M290.4 131.94L292.04 133.36L283.53 143.48L281.89 142.06L290.4 131.94Z" fill="#92E3A9"/>
<path d="M318.48 142.06L317.29 143.48L305.57 133.36L306.76 131.94L318.48 142.06Z" fill="#92E3A9"/>
<path d="M315.46 131.94L317.1 133.36L308.59 143.48L306.95 142.06L315.46 131.94Z" fill="#92E3A9"/>
<path d="M279.01 151.79L278.69 149.79H324.12L324.44 151.79H279.01Z" fill="#92E3A9"/>
<path d="M368.2 165.1H261.86V168.87H368.2V165.1Z" fill="#A6A6A6"/>
<path d="M377.18 165.1H284.96V168.87H377.18V165.1Z" fill="#C7C7C7"/>
<path d="M334.17 118.85L333.9 116.49H259.39L259.66 118.85H334.17Z" fill="#263238"/>
<path d="M265.66 117.67C265.672 117.822 265.738 117.964 265.846 118.07C265.955 118.177 266.098 118.241 266.25 118.25C266.321 118.249 266.39 118.232 266.453 118.2C266.517 118.169 266.572 118.124 266.616 118.068C266.66 118.013 266.692 117.949 266.708 117.88C266.724 117.811 266.725 117.739 266.71 117.67C266.7 117.517 266.635 117.372 266.526 117.263C266.418 117.155 266.273 117.09 266.12 117.08C266.049 117.083 265.979 117.101 265.916 117.134C265.852 117.166 265.797 117.212 265.753 117.268C265.709 117.325 265.678 117.39 265.662 117.459C265.646 117.528 265.645 117.6 265.66 117.67Z" fill="#C7C7C7"/>
<path d="M263.5 117.67C263.514 117.823 263.582 117.965 263.692 118.071C263.803 118.178 263.947 118.241 264.1 118.25C264.17 118.247 264.239 118.229 264.301 118.197C264.364 118.165 264.419 118.12 264.462 118.065C264.506 118.01 264.537 117.946 264.554 117.878C264.571 117.81 264.573 117.739 264.56 117.67C264.548 117.517 264.483 117.374 264.374 117.266C264.266 117.157 264.123 117.092 263.97 117.08C263.899 117.083 263.829 117.102 263.765 117.134C263.701 117.166 263.645 117.212 263.601 117.268C263.556 117.324 263.524 117.389 263.507 117.458C263.489 117.528 263.487 117.6 263.5 117.67Z" fill="white"/>
<path d="M261.35 117.67C261.362 117.822 261.428 117.964 261.536 118.07C261.645 118.177 261.788 118.241 261.94 118.25C262.01 118.249 262.08 118.232 262.143 118.2C262.207 118.169 262.262 118.124 262.306 118.068C262.35 118.013 262.382 117.949 262.398 117.88C262.414 117.811 262.414 117.739 262.4 117.67C262.39 117.517 262.325 117.372 262.216 117.263C262.108 117.155 261.963 117.09 261.81 117.08C261.739 117.083 261.669 117.101 261.606 117.134C261.542 117.166 261.487 117.212 261.443 117.268C261.399 117.325 261.368 117.39 261.352 117.459C261.336 117.528 261.335 117.6 261.35 117.67Z" fill="#92E3A9"/>
</g>
<defs>
<clipPath id="clip0_90_649">
<rect width="428" height="461" fill="white"/>
</clipPath>
</defs>
</svg>
